<svg width="11" height="17" viewBox="0 0 11 17" fill="none" xmlns="http://www.w3.org/2000/svg">
<path d="M9.92783 0.35858C10.1426 0.573297 10.2499 0.827521 10.2499 1.12125C10.2499 1.41441 10.1426 1.66835 9.92783 1.88307L3.63664 8.17426L9.94931 14.4869C10.1497 14.6873 10.2499 14.9378 10.2499 15.2384C10.2499 15.539 10.1426 15.7967 9.92783 16.0114C9.71312 16.2261 9.45889 16.3335 9.16516 16.3335C8.872 16.3335 8.61806 16.2261 8.40335 16.0114L1.18887 8.77547C1.10298 8.68958 1.042 8.59654 1.00593 8.49634C0.970429 8.39614 0.952679 8.28878 0.952679 8.17426C0.952679 8.05975 0.970429 7.95239 1.00593 7.85219C1.042 7.75199 1.10298 7.65894 1.18887 7.57306L8.42482 0.337108C8.62522 0.136705 8.872 0.0365046 9.16516 0.0365047C9.45889 0.0365047 9.71312 0.143864 9.92783 0.35858Z" fill="white"/>
</svg>
