<svg width="10" height="17" viewBox="0 0 10 17" fill="none" xmlns="http://www.w3.org/2000/svg">
<path d="M0.444115 15.9901C0.229398 15.7753 0.12204 15.5211 0.12204 15.2274C0.12204 14.9342 0.229398 14.6803 0.444115 14.4656L6.73531 8.17437L0.422643 1.8617C0.222241 1.6613 0.12204 1.41079 0.12204 1.11019C0.12204 0.809588 0.229398 0.551928 0.444115 0.337212C0.658831 0.122495 0.913056 0.0151367 1.20679 0.0151367C1.49995 0.0151367 1.75389 0.122495 1.9686 0.337212L9.18308 7.57316C9.26897 7.65905 9.32995 7.75209 9.36602 7.85229C9.40152 7.95249 9.41927 8.05985 9.41927 8.17437C9.41927 8.28888 9.40152 8.39624 9.36602 8.49644C9.32995 8.59664 9.26897 8.68969 9.18308 8.77557L1.94713 16.0115C1.74673 16.2119 1.49995 16.3121 1.20679 16.3121C0.913056 16.3121 0.658831 16.2048 0.444115 15.9901Z" fill="white"/>
</svg>
