<svg width="43" height="25" viewBox="0 0 43 25" fill="none" xmlns="http://www.w3.org/2000/svg">
<path d="M21.5 24.9999C20.9858 24.9999 20.487 24.9045 20.0037 24.7137C19.5203 24.5228 19.1193 24.2684 18.8004 23.9503L1.06054 6.39312C0.353511 5.69337 0 4.80279 0 3.72136C0 2.63994 0.353511 1.74936 1.06054 1.04961C1.76756 0.34987 2.66741 0 3.76009 0C4.85276 0 5.75262 0.34987 6.45964 1.04961L21.5 15.9351L36.5404 1.04961C37.2474 0.34987 38.1472 0 39.2399 0C40.3326 0 41.2324 0.34987 41.9395 1.04961C42.6465 1.74936 43 2.63994 43 3.72136C43 4.80279 42.6465 5.69337 41.9395 6.39312L24.1995 23.9503C23.8139 24.332 23.3961 24.603 22.9462 24.7633C22.4963 24.9236 22.0142 25.0025 21.5 24.9999Z" fill="black"/>
</svg>
