<svg width="25" height="21" viewBox="0 0 25 21" fill="none" xmlns="http://www.w3.org/2000/svg">
<path d="M0 16.1899L2.11146 19.6747H2.1125C2.32289 20.0731 2.64501 20.4079 3.043 20.6419C3.44099 20.8759 3.89923 20.9999 4.36667 21H18.3844L15.476 16.1899H0ZM25 16.2148C25 15.7336 24.851 15.2852 24.5958 14.9084L16.3833 1.28155C16.1685 0.894613 15.8473 0.570853 15.4542 0.34506C15.061 0.119266 14.6109 -2.58466e-05 14.1521 4.20065e-09H9.81146L22.4979 20.9791L24.4979 17.6733C24.8917 17.04 25 16.7596 25 16.2148ZM13.4073 12.7728L7.7375 3.39925L2.06667 12.7728H13.4073Z" fill="white"/>
</svg>
