<svg width="30" height="20" viewBox="0 0 30 20" fill="none" xmlns="http://www.w3.org/2000/svg">
<path d="M12.1108 8.85204C12.1108 8.85204 14.9495 8.63149 14.9495 5.16269C14.9495 1.68939 12.6269 0 9.68324 0H0V19.3935H9.68324C9.68324 19.3935 15.5961 19.587 15.5961 13.6682C15.5961 13.6682 15.8527 8.85204 12.1108 8.85204ZM4.26699 3.44479H9.68324C9.68324 3.44479 11.0005 3.44479 11.0005 5.46126C11.0005 7.48073 10.2264 7.77329 9.34716 7.77329H4.26699V3.44479ZM9.40867 15.9457H4.26699V10.762H9.68324C9.68324 10.762 11.6457 10.735 11.6457 13.4251C11.6457 15.6936 10.1798 15.9292 9.40867 15.9457ZM23.4789 4.93164C16.3208 4.93164 16.3268 12.3839 16.3268 12.3839C16.3268 12.3839 15.8377 19.7971 23.4789 19.7971C23.4789 19.7971 29.8449 20.1782 29.8449 14.6404H26.5711C26.5711 14.6404 26.6792 16.7274 23.5884 16.7274C23.5884 16.7274 20.3117 16.9554 20.3117 13.3516H29.9484C29.9484 13.3516 31.0122 4.93164 23.4789 4.93164ZM26.3911 10.762H20.2787C20.2787 10.762 20.6778 7.77329 23.5524 7.77329C26.4271 7.77329 26.3911 10.762 26.3911 10.762ZM27.1518 1.13876H19.4745V3.53031H27.1518V1.13876Z" fill="white"/>
</svg>
