<svg width="28" height="26" viewBox="0 0 28 26" fill="none" xmlns="http://www.w3.org/2000/svg">
<path d="M22.9894 1.0775C23.5292 0.661802 24.2018 0.456754 24.8816 0.500642C25.5615 0.54453 26.2022 0.834354 26.684 1.316C27.1658 1.79765 27.4559 2.4382 27.5 3.11805C27.5442 3.7979 27.3394 4.47058 26.9239 5.0105L20.8789 12.9155C19.1773 15.1405 17.0076 16.9644 14.5234 18.2585C14.2162 17.1118 13.6126 16.0662 12.7732 15.2268C11.9337 14.3873 10.8881 13.7837 9.74141 13.4765C11.0357 10.9928 12.8596 8.82374 15.0844 7.1225L22.9894 1.0775ZM7.99991 15.5C6.80643 15.5 5.66184 15.9741 4.81793 16.818C3.97401 17.6619 3.49991 18.8065 3.49991 20C3.50016 20.1275 3.46793 20.2529 3.40626 20.3644C3.34458 20.476 3.25549 20.57 3.14741 20.6375C3.03932 20.7051 2.91581 20.7439 2.78852 20.7505C2.66123 20.7571 2.53437 20.7311 2.41991 20.675C2.21829 20.5759 1.99164 20.5395 1.76914 20.5704C1.54664 20.6013 1.33848 20.6981 1.17147 20.8483C1.00446 20.9985 0.886244 21.1953 0.832054 21.4133C0.777864 21.6313 0.790177 21.8606 0.867408 22.0715C1.35443 23.3925 2.29038 24.5003 3.51156 25.201C4.73274 25.9017 6.1614 26.1507 7.54765 25.9046C8.9339 25.6584 10.1895 24.9328 11.0948 23.8545C12.0001 22.7762 12.4974 21.4139 12.4999 20.006V20C12.4984 19.164 12.2649 18.3448 11.8252 17.6336C11.3856 16.9225 10.7571 16.3475 10.0099 15.9725C9.38577 15.6608 8.69754 15.499 7.99991 15.5Z" fill="white"/>
</svg>
