<svg width="29" height="34" viewBox="0 0 29 34" fill="none" xmlns="http://www.w3.org/2000/svg">
<path d="M3.33334 33.3333C2.41667 33.3333 1.63167 33.0067 0.978336 32.3533C0.325003 31.7 -0.00110828 30.9156 2.82966e-06 30V8.33334C2.82966e-06 7.86111 0.160003 7.465 0.480003 7.145C0.800003 6.825 1.19556 6.66556 1.66667 6.66667C2.13889 6.66667 2.535 6.82667 2.855 7.14667C3.175 7.46667 3.33445 7.86223 3.33334 8.33334V30H20C20.4722 30 20.8683 30.16 21.1883 30.48C21.5083 30.8 21.6678 31.1956 21.6667 31.6667C21.6667 32.1389 21.5067 32.535 21.1867 32.855C20.8667 33.175 20.4711 33.3345 20 33.3333H3.33334ZM10 26.6667C9.08334 26.6667 8.29834 26.34 7.645 25.6867C6.99167 25.0333 6.66556 24.2489 6.66667 23.3333V3.33334C6.66667 2.41667 6.99334 1.63167 7.64667 0.978336C8.3 0.325003 9.08445 -0.00110828 10 2.82966e-06H25C25.9167 2.82966e-06 26.7017 0.32667 27.355 0.980003C28.0083 1.63334 28.3344 2.41778 28.3333 3.33334V23.3333C28.3333 24.25 28.0067 25.035 27.3533 25.6883C26.7 26.3417 25.9156 26.6678 25 26.6667H10ZM10 23.3333H25V3.33334H10V23.3333Z" fill="white"/>
</svg>
