<svg width="35" height="34" viewBox="0 0 35 34" fill="none" xmlns="http://www.w3.org/2000/svg">
<path d="M17 33.6667C14.6944 33.6667 12.5278 33.2289 10.5 32.3534C8.47222 31.4789 6.70833 30.2917 5.20833 28.7917C3.70833 27.2917 2.52111 25.5278 1.64666 23.5C0.771106 21.4723 0.333328 19.3056 0.333328 17C0.333328 14.6945 0.771106 12.5278 1.64666 10.5C2.52111 8.47226 3.70833 6.70837 5.20833 5.20837C6.70833 3.70837 8.47222 2.5206 10.5 1.64504C12.5278 0.770596 14.6944 0.333374 17 0.333374C21.0555 0.333374 24.6039 1.60393 27.645 4.14504C30.6872 6.68726 32.5833 9.87504 33.3333 13.7084H29.9167C29.3889 11.6806 28.4378 9.86782 27.0633 8.27004C25.6878 6.67337 24 5.47226 22 4.66671V5.33337C22 6.25004 21.6739 7.03449 21.0217 7.68671C20.3683 8.34004 19.5833 8.66671 18.6667 8.66671H15.3333V12C15.3333 12.4723 15.1739 12.8678 14.855 13.1867C14.535 13.5067 14.1389 13.6667 13.6667 13.6667H10.3333V17H13.6667V22H12L3.99999 14C3.91666 14.5 3.83999 15 3.76999 15.5C3.70111 16 3.66666 16.5 3.66666 17C3.66666 20.6389 4.94444 23.7639 7.49999 26.375C10.0555 28.9862 13.2222 30.3056 17 30.3334V33.6667ZM32.1667 32.8334L26.8333 27.5C26.25 27.8334 25.625 28.1112 24.9583 28.3334C24.2917 28.5556 23.5833 28.6667 22.8333 28.6667C20.75 28.6667 18.9789 27.9378 17.52 26.48C16.0622 25.0212 15.3333 23.25 15.3333 21.1667C15.3333 19.0834 16.0622 17.3123 17.52 15.8534C18.9789 14.3956 20.75 13.6667 22.8333 13.6667C24.9167 13.6667 26.6878 14.3956 28.1467 15.8534C29.6044 17.3123 30.3333 19.0834 30.3333 21.1667C30.3333 21.9167 30.2222 22.625 30 23.2917C29.7778 23.9584 29.5 24.5834 29.1667 25.1667L34.5 30.5L32.1667 32.8334ZM22.8333 25.3334C24 25.3334 24.9861 24.9306 25.7917 24.125C26.5972 23.3195 27 22.3334 27 21.1667C27 20 26.5972 19.0139 25.7917 18.2084C24.9861 17.4028 24 17 22.8333 17C21.6667 17 20.6805 17.4028 19.875 18.2084C19.0694 19.0139 18.6667 20 18.6667 21.1667C18.6667 22.3334 19.0694 23.3195 19.875 24.125C20.6805 24.9306 21.6667 25.3334 22.8333 25.3334Z" fill="#15C56E"/>
</svg>
