<svg width="37" height="37" viewBox="0 0 37 37" fill="none" xmlns="http://www.w3.org/2000/svg">
<path d="M31.4543 25.1845C30.3807 26.2581 28.6397 26.2581 27.566 25.1845L22.8258 20.4441C21.752 19.3704 21.752 17.6296 22.8258 16.5559L27.566 11.8155C28.6397 10.7418 30.3807 10.7418 31.4543 11.8155L36.1948 16.5558C37.2684 17.6296 37.2684 19.3704 36.1948 20.4441L31.4543 25.1845ZM9.43388 25.1845C8.36017 26.2581 6.61931 26.2581 5.54559 25.1845L0.805292 20.4441C-0.268429 19.3704 -0.268431 17.6296 0.80529 16.5559L5.54559 11.8155C6.61931 10.7418 8.36017 10.7418 9.43388 11.8155L14.1742 16.5558C15.2479 17.6296 15.2479 19.3704 14.1742 20.4441L9.43388 25.1845ZM20.4442 36.1946C19.3704 37.2685 17.6296 37.2685 16.5558 36.1946L11.8155 31.4544C10.7418 30.3807 10.7418 28.6397 11.8155 27.5661L16.5558 22.8259C17.6296 21.752 19.3704 21.752 20.4442 22.8259L25.1844 27.5661C26.2581 28.6397 26.2581 30.3807 25.1844 31.4544L20.4442 36.1946ZM20.4442 14.1742C19.3704 15.2479 17.6296 15.2479 16.5558 14.1742L11.8155 9.43389C10.7418 8.36017 10.7418 6.61932 11.8155 5.54559L16.5558 0.805293C17.6296 -0.26843 19.3704 -0.268432 20.4442 0.805291L25.1844 5.54559C26.2581 6.61932 26.2581 8.36017 25.1844 9.43389L20.4442 14.1742Z" fill="#15C570"/>
</svg>
