<svg width="31" height="31" viewBox="0 0 31 31" fill="none" xmlns="http://www.w3.org/2000/svg">
<path d="M15.0034 8.80386C17.3023 8.79621 19.5568 9.43748 21.5075 10.6539C23.4583 11.8704 25.0262 13.6127 26.0309 15.6804C23.9679 19.8939 19.7545 22.557 15.0034 22.557C10.2523 22.557 6.03884 19.8939 3.97587 15.6804C4.98062 13.6127 6.5485 11.8704 8.49925 10.6539C10.45 9.43748 12.7044 8.79621 15.0034 8.80386ZM15.0034 6.30328C8.75196 6.30328 3.41324 10.1917 1.25024 15.6804C3.41324 21.1692 8.75196 25.0576 15.0034 25.0576C21.2548 25.0576 26.5935 21.1692 28.7565 15.6804C26.5935 10.1917 21.2548 6.30328 15.0034 6.30328ZM15.0034 12.5547C15.8324 12.5547 16.6274 12.884 17.2136 13.4702C17.7998 14.0564 18.1291 14.8514 18.1291 15.6804C18.1291 16.5094 17.7998 17.3045 17.2136 17.8906C16.6274 18.4768 15.8324 18.8061 15.0034 18.8061C14.1744 18.8061 13.3794 18.4768 12.7932 17.8906C12.207 17.3045 11.8777 16.5094 11.8777 15.6804C11.8777 14.8514 12.207 14.0564 12.7932 13.4702C13.3794 12.884 14.1744 12.5547 15.0034 12.5547ZM15.0034 10.0541C11.9027 10.0541 9.37711 12.5797 9.37711 15.6804C9.37711 18.7811 11.9027 21.3067 15.0034 21.3067C18.1041 21.3067 20.6297 18.7811 20.6297 15.6804C20.6297 12.5797 18.1041 10.0541 15.0034 10.0541Z" fill="white"/>
</svg>
