<svg width="64" height="115" viewBox="0 0 64 115" fill="none" xmlns="http://www.w3.org/2000/svg">
<path d="M29.0682 30.4898L29.9132 27.8823L29.6509 27.7529C28.342 29.7225 26.8313 31.4891 24.8208 32.7784L27.8466 27.9604L27.5687 27.6838L25.0629 28.0117C25.0629 27.8823 25.0629 27.7886 25.0786 27.7708C27.6987 26.8785 29.1691 24.8465 30.4735 22.578C30.9532 21.7437 31.7018 21.0165 32.4504 20.3942C32.5774 20.2802 32.7274 20.1945 32.8903 20.1429C33.0533 20.0913 33.2255 20.075 33.3953 20.095C33.5651 20.1151 33.7287 20.1711 33.875 20.2592C34.0213 20.3474 34.1469 20.4657 34.2435 20.6061C34.5214 20.9875 34.5259 21.5653 34.6918 22.1898C35.2342 21.9445 35.4359 21.3311 35.093 20.7132C34.5864 19.7986 34.9832 19.3213 35.6511 18.7703C37.3187 17.3963 38.9818 16.0312 41.1828 15.5873C41.4069 15.5449 41.6176 15.5427 42.0973 15.4958C40.9228 16.165 39.9433 16.6781 39.0333 17.2803C38.2997 17.7834 37.6086 18.3451 36.9668 18.9599C36.6675 19.234 36.4654 19.5971 36.3907 19.9949C36.1509 22.0761 35.1871 23.8159 34.0395 25.5179C33.217 26.7402 32.3182 28.0183 31.964 29.4013C31.7399 30.2645 32.437 31.3843 32.8225 32.3479C32.883 32.5041 33.4949 32.5554 33.8176 32.4751C36.198 31.884 37.9283 30.3359 39.1005 28.3128C40.4185 26.0354 42.411 25.1097 44.8272 24.5453C46.4119 24.1751 47.9069 23.43 49.4086 22.8612C49.2943 23.9475 48.3619 24.5297 47.4205 25.1297C47.0082 25.4195 46.6144 25.7346 46.2415 26.0733C45.6498 26.5662 45.0716 27.0748 44.4641 27.5499C44.2647 27.7083 43.9441 27.7284 43.776 27.9024C42.7226 28.9909 41.6826 30.0928 40.674 31.2215C40.4117 31.5159 40.3669 32.0646 40.0688 32.2565C38.5895 33.2112 37.155 34.3108 35.5256 34.9332C33.6428 35.6492 31.8587 34.206 31.7152 32.1895C31.6951 31.8706 31.7152 31.5494 31.7152 31.2304L31.2849 31.2728C31.4934 32.8186 31.6996 34.3644 31.9035 35.8767C30.8725 34.8752 30.6932 33.4654 30.617 32.0847C30.4825 29.5976 31.1616 27.2443 32.1568 24.9892C32.2868 24.697 32.7664 24.5431 33.1071 24.3669C33.8759 23.9765 34.573 23.5683 34.0754 22.4642C32.4146 23.1869 31.4418 24.3847 30.9577 26.1023C30.5273 27.6258 29.902 29.0957 29.3641 30.5902L29.0682 30.4898Z" fill="#EAA410"/>
<path d="M38.3923 77.2161C38.3923 75.4316 38.6164 73.5936 38.3474 71.8426C37.6055 67.0558 35.7519 62.8601 31.5673 59.9335C27.6673 57.2078 25.686 53.3377 25.4416 48.6044C25.3565 46.927 25.7465 45.3388 26.5803 43.5276C26.7708 44.2548 26.8963 44.6585 26.9815 45.0712C27.5261 47.7122 29.1018 49.4119 31.6704 50.2238C33.7235 50.8729 35.8012 51.4506 37.8118 52.2113C42.9534 54.1563 46.6472 59.4629 46.7638 64.939C46.7839 65.9383 46.7638 66.9465 46.7638 67.9391C46.4903 57.5736 41.7633 52.6395 32.0985 52.7979C35.1535 54.7073 37.6728 56.7728 39.105 59.8532C40.5373 62.9337 41.241 66.0386 40.1204 69.3533C40.4653 67.1016 40.3224 64.8025 39.7012 62.6102C38.8271 59.6213 37.2918 57.1074 34.2928 55.7891C32.5692 55.0329 30.8164 54.3459 28.9135 53.5585C29.252 55.2627 30.0589 56.572 31.0742 57.7498C32.2756 59.1573 33.6204 60.4488 34.8016 61.8764C38.5357 66.3799 39.4995 71.5683 38.3923 77.2161Z" fill="#EAA410"/>
<path d="M32.0314 78.3381C31.6437 77.7046 31.3007 77.1425 30.9354 76.5537C30.7113 77.4459 31.0497 79.507 31.879 81.0639C32.6231 82.4602 33.5623 83.7518 34.4723 85.1749C34.024 85.8106 33.5376 86.5355 32.9369 87.4054C30.0635 83.8187 28.3556 79.933 28.2749 75.0636C26.9704 77.4414 25.6749 79.4378 23.5501 80.8007C26.9368 76.9975 28.0597 72.4828 27.3716 67.6269C26.6992 62.8066 24.5184 58.7357 20.0491 56.184C22.5885 57.2636 24.4758 59.0503 26.1299 61.147C27.784 63.2438 28.6313 65.7019 29.1804 68.4388C30.0321 66.061 30.8166 63.8706 31.6863 61.437L33.2418 62.8757C31.8303 65.3052 31.1279 68.0784 31.2133 70.8835C31.2381 73.0398 31.7153 75.1671 32.6142 77.1291C32.9168 77.7827 32.6994 78.0705 32.0314 78.3381Z" fill="#EAA410"/>
<path d="M23.8841 38.0314C20.5759 39.9229 18.3255 42.5639 17.9893 46.55C17.6195 44.0317 18.6236 41.9193 19.6905 39.7735C19.5067 39.9207 19.3409 40.1438 19.1324 40.1951C18.7253 40.2697 18.3133 40.3152 17.8997 40.3311C17.9669 39.8404 17.875 39.0508 18.1238 38.9147C18.8164 38.5467 19.6546 38.453 20.4414 38.2768C20.4795 38.2768 20.5781 38.5377 20.4593 38.4151L27.5241 31.9999C27.1341 32.881 26.7687 33.7085 26.4034 34.5383L26.576 34.7413C27.2484 34.09 28.0105 33.4944 28.6067 32.7695C29.2029 32.0445 29.6579 31.1701 30.2429 30.2578C30.0613 32.2988 29.0482 33.8267 28.0486 35.3882C26.4796 37.8128 24.6327 40.1237 23.521 42.7491C21.2976 47.991 21.9969 52.9652 26.0381 57.2479C26.1134 57.3282 26.1816 57.4147 26.242 57.5066C26.2555 57.5245 26.2308 57.5691 26.2241 57.6025C21.1071 54.7719 18.8433 45.8206 23.8841 38.0314Z" fill="#EAA410"/>
<path d="M34.2122 88.05L35.5166 86.0693C39.2687 86.8054 42.0166 84.8045 42.6218 80.9389C42.7563 80.0712 42.7562 79.1812 42.8056 78.4652C43.3928 79.6452 43.3457 80.6445 42.6868 83.5956C42.2497 85.5429 40.9901 86.821 39.4166 87.8649C42.7787 92.2658 42.9781 97.2066 42.3304 102.321C41.9728 105.262 41.197 108.137 40.0263 110.86C39.6049 111.824 39.717 113.017 39.578 114.13C38.7487 112.883 39.0087 111.572 39.4682 110.276C41.1432 105.615 41.6809 100.625 41.0371 95.7165C40.674 92.8993 39.2754 90.6107 36.857 89.0649C36.1173 88.5898 35.1759 88.4092 34.2122 88.05Z" fill="#EAA410"/>
<path d="M25.1144 31.4245C24.3523 31.8706 23.6172 32.4372 22.7879 32.7629C21.6672 33.1867 20.6137 32.4283 20.356 31.0074C20.2439 30.3828 20.0848 29.9635 19.4438 29.8207C19.4072 29.8127 19.3742 29.7931 19.3496 29.765C18.4329 28.3552 16.9738 27.2221 17.0836 25.2904C17.0641 25.0856 17.0071 24.886 16.9155 24.7015C16.716 24.1149 16.4986 23.5327 16.3081 22.9438C16.2431 22.7386 16.2901 22.4977 16.1983 22.3014C15.5796 21.0434 14.9341 19.7987 14.3738 18.4827C16.2969 19.4597 18.202 20.4902 19.3675 22.3416C19.8853 23.1669 20.0825 24.271 20.1789 25.2703C20.4031 27.521 21.127 29.4594 23.0927 30.733C23.5948 31.0498 24.2582 31.1368 25.1144 31.4245Z" fill="#EAA410"/>
<path d="M29.9605 33.9049C29.5996 35.415 29.2993 36.8181 28.9294 38.2055C28.0329 41.6049 28.7748 44.6362 30.8391 47.3643C29.4405 46.9427 28.405 45.4281 26.9638 41.6339C25.3724 43.1641 24.5341 46.8021 24.8434 49.6751C25.1299 52.5595 26.1802 55.3167 27.8872 57.6651C26.6681 56.5719 25.6779 55.2499 24.9734 53.775C22.7858 49.1153 23.2543 44.6429 25.9282 40.3312C27.2237 38.23 28.5529 36.1355 29.9605 33.9049Z" fill="#EAA410"/>
<path d="M15.2525 22.5289C15.4004 23.1735 15.5439 23.8115 15.7008 24.4472C10.2386 25.2056 0.634307 16.968 0 10.8696C3.36205 17.1175 8.21685 21.2753 15.2525 22.5289Z" fill="#EAA410"/>
<path d="M40.0197 46.7196C41.8509 45.0578 42.5861 42.9499 42.7833 40.5967L43.0523 40.6234C43.0882 41.2703 43.1733 41.9216 43.1532 42.5663C43.0837 44.5872 42.3418 46.3717 41.1539 47.9933C40.2394 49.2402 39.3473 50.5027 38.3521 51.8901L37.0073 51.3414C37.2427 50.3086 37.5116 49.3874 37.6551 48.4416C37.9579 46.6067 37.7827 44.7251 37.1463 42.9767C36.9222 42.3655 37.1463 42.109 37.6506 41.8614C38.2759 41.5469 38.6009 41.8927 38.7533 42.3789C39.1994 43.7708 39.5782 45.1805 40.0197 46.7196Z" fill="#EAA410"/>
<path d="M0.656738 15.4022C3.75431 22.317 8.9498 25.3618 16.1692 25.0852C16.1823 25.4487 16.2144 25.8113 16.2656 26.1715C16.3488 26.495 16.4498 26.8137 16.5682 27.1262C8.96549 27.6035 1.79311 22.752 0.656738 15.4022Z" fill="#EAA410"/>
<path d="M0.882979 4.57495C1.88935 6.58248 2.83521 9.03612 4.24503 11.1708C6.49985 14.6327 9.41362 17.4655 13.3719 19.0514C14.4365 19.4797 14.5284 19.7206 14.6181 21.1214C8.96535 20.8404 0.840393 10.825 0.882979 4.57495Z" fill="#EAA410"/>
<path d="M48.2791 25.6272C48.8528 24.9268 49.4289 24.1907 50.0453 23.4903C50.2117 23.36 50.4163 23.2872 50.628 23.2829C56.7783 22.5133 61.3328 19.569 63.7669 13.7248C63.8294 13.6261 63.9048 13.5361 63.991 13.4572C64.4819 18.7369 54.1828 26.6399 48.2791 25.6272Z" fill="#EAA410"/>
<path d="M62.2697 20.9675C60.174 26.1269 50.6796 30.0772 45.1008 28.3285C45.7732 27.7329 46.4053 27.1061 47.1181 26.5708C47.322 26.4168 47.7322 26.4971 48.0437 26.5261C52.8963 26.9901 57.2513 25.8748 60.8957 22.5066C61.3283 22.1096 61.6825 21.6367 62.2697 20.9675Z" fill="#EAA410"/>
<path d="M18.9686 54.8032C17.2741 52.3361 18.4665 43.2041 21.842 40.5051C17.6148 48.7248 21.127 54.7095 27.2213 60.0094C23.5343 57.5713 20.5667 54.5154 19.2353 50.0966L18.9686 50.1881V54.8032Z" fill="#EAA410"/>
<path d="M12.6458 17.519C10.7451 17.0082 9.31958 16.3569 8.44096 14.5568C6.36097 10.2852 4.80771 5.96904 5.77374 1.11529C5.85069 0.735659 5.95787 0.362718 6.09425 0C5.91494 7.87842 8.23476 11.599 12.6458 17.519Z" fill="#EAA410"/>
<path d="M32.4684 37.1504C33.179 38.6783 33.746 40.2486 33.4771 41.9662C33.4165 42.3543 33.0848 42.6978 32.8764 43.0636C32.5626 42.7469 32.1412 42.4792 31.9597 42.1C31.7355 41.616 31.6952 41.0405 31.5114 40.233C31.1752 41.4888 30.9085 42.4971 30.6148 43.5789C28.8217 42.4971 28.8598 37.7035 30.5924 35.6492C30.8614 36.9697 31.1035 38.1452 31.3545 39.3676C31.4822 38.5668 31.6033 37.7928 31.7422 36.9139L32.4998 37.1838L32.4684 37.1504Z" fill="#EAA410"/>
<path d="M59.1362 26.5127C56.4801 31.5047 47.5931 33.3494 42.9221 29.9121C42.951 29.859 42.9872 29.8102 43.0297 29.7671C44.2826 28.8236 45.4661 29.0823 46.8871 29.6021C50.3859 30.8824 55.9826 30.2735 59.1362 26.5127Z" fill="#EAA410"/>
<path d="M56.0991 30.4408C53.5529 33.9986 45.5647 35.0023 41.2344 31.4468C41.9763 30.9672 42.5994 30.9471 43.4533 31.3687C47.2637 33.2558 51.074 32.8543 54.8417 31.1144C55.2721 30.9137 55.68 30.6661 56.0991 30.4408Z" fill="#EAA410"/>
<path d="M50.6548 22.3059C56.507 19.5868 59.6718 14.7353 61.4492 8.75952L61.8213 8.93574C61.057 10.9433 60.3666 13.0021 59.5059 14.9762C58.9478 16.2654 58.0804 17.3986 57.4596 18.6633C56.3098 21.001 54.1805 21.7103 51.8696 22.1609C51.4706 22.2389 51.0627 22.2635 50.6548 22.3059Z" fill="#EAA410"/>
<path d="M30.0343 115C29.9043 114.683 29.837 114.331 29.6353 114.056C29.1436 113.391 28.6027 112.763 28.017 112.178C27.4589 111.645 26.7148 111.286 26.2015 110.726C24.8321 109.207 24.906 107.583 26.4257 105.103C26.5377 106.096 26.6498 106.948 26.726 107.802C26.8807 109.475 27.6495 110.827 28.871 111.946C29.7563 112.754 30.0881 113.795 30.0343 115Z" fill="#EAA410"/>
<path d="M38.3116 107.871C37.8902 106.013 36.3481 105.509 34.963 104.713C32.5916 103.352 32.0806 101.766 33.394 98.5271C33.5778 99.1963 33.7437 99.6803 33.8423 100.18C34.2345 102.089 35.0481 103.675 36.6911 104.895C37.5473 105.531 38.0718 106.609 38.7464 107.487L38.3116 107.871Z" fill="#EAA410"/>
<path d="M37.3928 34.8886C39.3383 34.3689 41.6828 35.598 42.1512 37.1705C42.6197 38.7431 42.0975 40.1952 40.7168 40.6837C41.1314 37.8932 40.1206 35.8924 37.3928 34.8886Z" fill="#EAA410"/>
<path d="M15.6895 37.1393C18.6144 36.9876 20.997 36.1668 22.306 33.151C22.548 35.3281 21.3265 37.3222 19.6768 37.9646C18.0272 38.607 16.586 38.3973 15.6895 37.1393Z" fill="#EAA410"/>
<path d="M20.3674 95.3687C20.2329 96.2609 20.1119 96.9301 20.0424 97.5769C19.8658 99.464 20.2286 101.362 21.0891 103.053C21.8781 104.69 21.9117 105.507 21.2774 106.602C21.2332 106.281 21.2107 105.958 21.2102 105.634C21.3133 104.44 20.8829 103.524 20.0379 102.656C18.1193 100.689 18.2157 97.4766 20.3674 95.3687Z" fill="#EAA410"/>
<path d="M36.0725 35.7831C38.3475 35.9058 40.0823 37.3445 40.228 39.2896C40.2706 39.8606 39.9613 40.5699 39.5825 41.0272C39.2037 41.4845 38.4461 41.1856 38.3542 40.6011C37.9396 37.9691 37.9396 37.9691 36.0725 35.7831Z" fill="#EAA410"/>
<path d="M17.5276 28.2637C14.838 29.04 12.3545 29.417 9.84868 28.469C9.55282 28.3597 9.40041 27.8935 9.17627 27.5901C9.54161 27.405 9.91144 27.0659 10.2723 27.0726C10.8102 27.0726 11.3325 27.396 11.8771 27.4786C13.659 27.7529 15.4499 27.9805 17.5276 28.2637Z" fill="#EAA410"/>
<path d="M17.9736 29.0333C17.3012 31.1791 14.3045 32.0022 12.5069 31.2349C12.0587 31.0453 11.8345 30.3917 11.4961 29.9523C11.9444 29.823 12.4464 29.5062 12.8611 29.591C14.5811 29.9593 16.3747 29.7637 17.9736 29.0333Z" fill="#EAA410"/>
<path d="M42.884 39.4145C43.3323 36.3519 41.8015 34.8485 39.1611 34.0856C40.6449 33.4521 43.0297 34.418 43.9128 35.8411C44.574 36.9073 44.2849 38.2323 42.884 39.4145Z" fill="#EAA410"/>
<path d="M38.0518 103.945C36.187 103.475 34.3356 99.522 34.9139 96.5286C35.4182 97.5011 36.0166 98.4357 36.3909 99.4529C36.6778 100.231 36.5613 101.155 36.8392 101.938C37.0902 102.66 37.6349 103.276 38.0518 103.945Z" fill="#EAA410"/>
<path d="M27.9005 103.305C28.8027 104.482 29.2874 105.923 29.279 107.403C29.279 108.65 29.7071 109.896 29.9155 110.989C28.4922 110.459 27.1317 106.069 27.9005 103.305Z" fill="#EAA410"/>
<path d="M14.6609 35.2544C17.2071 35.4663 19.3834 35.0537 20.2374 32.2052C20.8672 33.8135 20.1724 35.2076 18.5317 36.0418C17.0502 36.8047 15.4947 36.5682 14.6609 35.2544Z" fill="#EAA410"/>
<path d="M12.8923 32.0468C16.9739 31.6766 16.9739 31.6766 18.563 30.0393C18.9373 31.1011 18.4778 32.1941 17.384 32.8409C15.9944 33.6618 14.0197 33.3495 12.8923 32.0468Z" fill="#EAA410"/>
<path d="M32.4999 37.1838C32.724 37.1191 32.993 36.9362 33.1431 37.0076C34.9071 37.8485 35.9986 40.2419 35.4248 42.0755C35.324 42.3967 34.9228 42.6264 34.6605 42.9008C34.4902 42.5684 34.1585 42.2316 34.1764 41.9082C34.2818 40.0724 33.7864 38.482 32.4819 37.1548L32.4999 37.1838Z" fill="#EAA410"/>
<path d="M22.0685 102.404C20.791 100.945 20.9658 96.4393 22.0327 94.8979C22.9897 97.3427 22.3554 99.9078 22.0685 102.404Z" fill="#EAA410"/>
<path d="M36.3258 41.665C36.3034 39.5772 35.8238 37.7615 33.9365 36.4098C35.8148 36.5325 37.3591 37.8641 37.6348 39.3988C37.8051 40.349 37.5518 41.1364 36.3258 41.665Z" fill="#EAA410"/>
<path d="M40.3669 33.0372C42.1175 32.5732 44.6793 33.3673 45.5759 34.5852C45.7821 34.864 45.9726 35.2789 45.9233 35.5912C45.8538 36.0262 45.5512 36.4254 45.3473 36.8381C45.085 36.5392 44.7242 36.2805 44.574 35.9325C43.8724 34.3153 43.3345 33.9049 40.3669 33.0372Z" fill="#EAA410"/>
<path d="M13.6096 33.394C15.8936 34.1279 17.978 34.2617 19.287 31.5962C19.3357 32.2622 19.1586 32.9253 18.784 33.4793C18.4093 34.0333 17.8588 34.4462 17.2205 34.6521C15.7882 35.1361 14.3941 34.7257 13.6096 33.394Z" fill="#EAA410"/>
<path d="M33.513 79.2169L35.481 81.6393C34.1048 81.2914 32.9594 79.9173 33.513 79.2169Z" fill="#EAA410"/>
</svg>
