<svg width="361" height="329" viewBox="0 0 361 329" fill="none" xmlns="http://www.w3.org/2000/svg">
<path d="M342.389 115.786C314.007 124.178 285.449 123.294 257.338 121.495C259.546 119.655 260.274 119.103 267.489 120.05C280.962 121.828 294.382 120.871 307.854 120.393C317.224 120.06 326.147 117.18 335.403 116.15C342.472 115.37 348.25 106.625 342.264 99.2112C338.901 95.0519 335.257 91.1213 331.582 87.2427C328.739 84.2271 325.2 81.7731 322.805 78.4768C320.258 75.1655 317.234 72.2499 313.83 69.8253C318.401 69.1598 319.734 73.2048 322.805 73.8703C322.93 73.7663 323.326 73.5999 323.367 73.3608C324.034 69.8253 328.333 65.9675 326.137 63.3991C323.94 60.8307 319.046 63.3991 315.486 64.1893C308.031 65.9467 300.462 65.6451 292.924 66.1131C291.03 66.2274 288.531 66.0195 287.927 68.0784C286.209 73.9223 283.981 70.418 281.68 68.7023C270.29 60.186 255.714 62.2241 246.823 73.5271C245.643 75.0245 244.411 76.4664 243.127 77.8529C242.606 78.4144 241.367 79.5166 241.159 78.3728C240.274 73.5479 237.182 76.3763 235.287 76.7195C216.547 80.0677 198.42 86.078 179.826 89.9463C165.875 92.8786 152.527 98.1402 137.951 99.2216C142.199 97.4851 146.384 95.5926 150.695 94.0224C155.245 92.4003 159.857 90.9029 164.542 89.7383C185.365 84.5391 202.793 72.5705 220.763 61.7145C222.575 60.6964 224.147 59.303 225.375 57.6279C226.802 55.4755 229.54 53.4686 228.176 50.349C226.698 46.928 223.574 46.0233 220.107 45.7633C211.049 45.1082 202.283 46.9696 193.402 48.259C173.319 51.1809 154.245 58.0959 134.536 62.484C133.391 62.7336 132.246 63.3263 130.705 62.4216C152.819 54.654 174.974 48.1446 197.994 44.4635C191.882 43.2781 186.375 41.5208 179.972 43.4237C165.541 47.8326 150.57 50.9522 135.827 54.5604C124.031 57.4616 113.328 63.2431 102.032 67.5896C105.988 67.652 109.757 66.0091 114.63 66.4354C109.682 68.3469 104.55 69.7409 99.3147 70.5948C90.7357 72.2897 82.4483 74.8893 76.2744 81.4819C74.5981 83.2705 69.2571 86.6811 77.1801 87.8458C79.783 88.2513 79.2624 92.4835 82.8023 94.0224C81.7194 91.4201 81.2185 88.613 81.3343 85.7973C81.3343 82.6777 82.7398 80.8684 85.5925 80.1717C88.4452 79.475 91.3396 79.6934 92.6306 82.8545C94.3485 87.0139 97.0763 88.2513 101.23 86.5772C102.011 86.2652 103.136 85.8285 103.729 86.1508C110.184 89.5823 111.673 84.2791 113.662 80.3901C114.515 78.5161 115.774 76.8541 117.347 75.5236C118.336 74.7437 119.575 74.2342 120.668 75.1805C121.762 76.1267 120.95 77.4057 120.377 78.4352C119.336 80.3901 116.41 82.3034 119.429 84.5703C122.011 86.5044 124.344 84.3519 126.457 82.9689C128.571 81.5859 130.018 79.2983 131.371 77.0418C135.161 70.7196 140.898 68.4423 147.79 71.2083C152.86 73.288 156.962 72.2481 160.721 68.9102C164.23 65.8531 168.009 65.0004 172.652 65.4164C176.879 65.7907 181.398 64.9068 184.251 61.101C186.697 57.8359 190.331 59.5517 193.621 57.8255C192.861 62.0785 190.258 63.9918 187.447 65.5619C175.057 72.4561 162.46 78.9447 149.008 83.52C138.701 87.0139 129.05 92.1403 119.534 97.3603C114.89 99.9079 109.705 100.625 104.958 102.716C102.75 103.693 100.408 104.369 98.3464 106.345C99.2314 107.863 102.303 105.949 102.178 108.362C102.095 109.89 100.189 110.088 99.1169 110.899C94.7962 114.175 91.8289 118.719 88.2058 122.628C87.4918 123.401 87.0975 124.416 87.1022 125.467C87.8414 133.453 86.592 141.626 90.4546 149.29C93.8696 156.059 96.8993 163.224 97.0034 170.919C97.0867 177.158 95.7957 183.48 97.9092 189.636C98.2111 190.499 98.3464 191.133 99.1898 191.591C104.135 194.284 105.551 199.057 106.217 204.069C106.676 207.49 107.717 209.746 111.683 210.37C113.156 210.555 114.559 211.101 115.769 211.959C116.979 212.818 117.957 213.961 118.617 215.289C115.775 215.705 114.453 212.918 111.923 213.209C113.433 216.141 117.514 217.608 116.598 222.214C111.225 218.71 107.331 213.043 99.5542 214.291C104.271 211.369 101.636 208.904 99.9498 206.679C91.4749 195.241 84.3327 183.189 80.4285 169.245C76.1806 154.25 77.0552 139.089 78.19 124.001C78.6169 118.188 81.5737 113.436 86.5191 109.714C92.1704 105.338 97.3989 100.443 102.136 95.0935C99.3647 95.5031 96.6187 96.069 93.9112 96.7884C88.768 98.4626 83.6144 97.6619 78.5648 96.9028C71.2769 95.8006 67.6329 87.3466 71.3498 80.9828C74.1817 76.1163 78.8251 73.4231 83.5207 70.8131C100.991 61.3506 120.21 56.7025 139.367 52.0544C145.359 50.4911 151.218 48.457 156.89 45.9713C165.468 42.3943 174.589 40.1378 183.397 37.1015C193.079 33.774 201.669 28.9907 206.614 19.2994C208.27 16.0447 208.884 13.1331 206.75 10.1072C204.813 7.35157 205.146 4.79356 207.395 2.65148C210.435 -0.22888 214.058 -0.717606 217.963 0.966938C220.94 2.25634 222.127 4.492 221.679 7.61153C221.617 8.12105 221.471 8.65137 221.419 9.1401C221.086 12.3428 218.743 16.159 223.023 18.2491C226.146 19.7673 234.048 15.3688 235.35 11.9165C237.255 6.86284 240.555 5.23029 245.501 7.21639C250.113 9.08811 249.155 12.9667 248.228 16.471C247.627 18.2695 246.679 19.9332 245.438 21.3686C244.15 22.8031 242.758 24.1411 241.274 25.372C244.085 26.7342 247.458 24.4362 249.467 27.7741C251.976 31.9334 251.175 36.5711 246.573 39.3683C244.491 40.6265 243.887 41.448 244.335 44.0788C245.292 49.7043 240.43 54.758 233.528 55.5171C231.216 55.777 229.811 56.245 228.77 58.439C227.614 60.8619 225.011 61.9017 222.918 63.4199C215.724 68.6971 208.011 73.2299 199.899 76.9482C197.491 78.0634 195.291 79.5788 193.392 81.4299C201.721 79.4646 210.237 77.8633 218.441 75.3988C222.914 74.0721 227.519 73.2388 232.174 72.9136C238.74 72.3392 245.045 70.0789 250.477 66.3522C253.372 64.4597 256.433 62.8376 259.41 61.0906C265.084 57.7423 270.675 58.0647 275.964 61.8081C277.957 63.1392 280.341 63.7619 282.732 63.5758C294.569 63.5758 305.939 59.8116 317.714 59.4165C319.609 59.3437 321.504 59.1357 323.398 58.9589C338.807 57.5552 340.921 66.6122 337.037 78.716C334.82 85.6725 335.569 89.5199 340.983 93.4401C342.805 94.7711 343.773 96.9236 344.721 98.9721C346.178 102.092 347.896 104.733 351.582 106.157C356.048 107.884 356.34 111.19 353.279 117.367C354.008 117.689 354.705 118.084 355.455 118.334C360.005 119.842 361.816 123.044 360.661 127.599C359.62 131.821 354.622 135.096 350.312 134.223C346.001 133.349 341.566 132.143 337.006 133.339C335.486 133.744 333.695 133.755 333.445 135.679C333.196 137.602 334.081 138.798 336.038 139.516C338.641 140.441 340.733 141.387 340.202 145.339C339.567 150.143 337.787 152.971 332.914 153.418C325.033 154.146 319.005 149.8 313.133 145.619C307.74 141.793 302.076 138.798 295.434 139.568C286.594 140.607 278.13 141.647 269.926 146.961C252.747 158.118 233.913 166.032 213.017 167.643C207.041 168.101 201.065 166.77 195.016 168.517C193.1 169.068 190.05 166.645 187.853 165.096C183.074 161.747 178.941 148.708 180.7 143.259C181.179 141.772 181.856 139.9 183.824 140.462C185.791 141.023 184.521 142.801 184.094 143.862C179.69 154.999 186.666 159.896 193.715 165.189C194.766 165.774 195.98 165.997 197.171 165.824C209.238 164.898 221.18 163.827 232.518 158.69C243.856 153.553 256.266 149.945 267.469 144.268C273.122 141.387 279.39 139.443 284.543 135.325C286.625 133.63 290.02 133.339 292.872 132.746C300.316 131.207 307.75 129.294 315.288 128.587C323.825 127.765 330.561 122.348 338.693 120.632C340.588 120.174 341.931 118.272 342.389 115.786ZM217.848 9.29607C216.203 9.99277 215.339 12.0829 213.527 11.7917C210.602 11.3134 210.404 13.3515 210.289 15.2128C209.842 23.8435 204.74 29.3338 198.15 34.0443C195.526 35.916 192.205 36.9247 189.821 39.909C203.428 39.2435 205.157 36.2488 225.48 24.7273C230.217 22.0445 234.548 18.2491 241.097 18.6547C239.566 16.1174 238.494 14.0793 238.202 11.5525C227.697 23.9163 213.028 28.7203 199.128 36.3216C200.17 33.8675 201.825 33.5452 203.022 32.6717C207.364 29.469 210.518 25.3928 211.164 19.9753C211.56 16.679 211.57 13.8714 215.735 13.1851C217.244 12.9459 218.296 11.5525 217.848 9.29607ZM212.986 35.7705C220.451 34.949 227.791 33.2436 235.297 32.8485C235.471 32.8551 235.643 32.8234 235.803 32.7556C235.962 32.6879 236.105 32.5858 236.22 32.4566C236.335 32.3275 236.421 32.1745 236.47 32.0085C236.519 31.8426 236.531 31.6678 236.505 31.4967C236.339 30.2801 235.287 30.3945 234.496 30.5505C227.27 32.0062 219.847 32.6613 212.986 35.7705ZM326.137 149.384C330.176 152.087 333.341 151.754 336.475 149.862C336.858 149.648 337.194 149.357 337.461 149.009C337.728 148.661 337.921 148.262 338.028 147.836C338.135 147.411 338.154 146.968 338.084 146.535C338.014 146.102 337.856 145.688 337.62 145.318C336.059 142.541 333.227 142.354 330.093 142.313C331.634 144.632 336.34 143.217 335.351 146.545C334.205 150.122 329.916 148.146 326.137 149.384Z" fill="#A5FFB3"/>
<path d="M273.997 214.966C270.926 222.328 269.832 222.536 261.847 221.205C256.402 220.269 251.029 217.95 245.189 219.947C241.961 221.049 239.212 221.434 240.358 225.884C241.586 230.668 244.22 233.163 248.229 231.926C252.237 230.688 255.267 231.926 257.943 234.744C260.879 237.863 260.587 240.983 257.776 243.894C256.12 245.669 254.128 247.098 251.916 248.099C249.703 249.101 247.314 249.654 244.887 249.728C242.242 249.842 240.722 249.01 238.838 246.9C231.945 239.038 224.668 231.468 213.08 231.042C211.529 230.98 209.644 230.408 208.915 232.082C208.187 233.756 209.957 234.931 210.998 235.908C214.225 238.81 218.65 239.652 222.107 242.345C223.438 243.29 224.479 244.586 225.115 246.088C225.751 247.59 225.957 249.239 225.709 250.851C225.157 255.717 221.721 258.307 217.38 259.835C214.017 261.021 210.685 260.116 209.176 257.173C204.095 247.253 194.766 245.163 185.178 243.063C177.431 241.368 169.8 239.09 162.054 237.343C158.354 236.433 154.899 234.722 151.934 232.331C143.865 226.165 142.751 218.47 148.686 210.224C153.548 203.476 160.461 199.129 167.353 194.814C171.31 192.339 175.276 189.885 179.306 187.535C182.148 185.861 182.429 183.708 180.878 181.026C180.581 180.405 180.191 179.834 179.722 179.331C169.373 170.534 159.711 160.697 145.364 158.315C137.546 157.026 129.747 155.414 122.616 151.681C118.836 149.716 118.826 152.867 118.774 154.874C118.628 160.915 118.878 167.05 120.971 172.769C126.666 188.367 130.039 204.599 135.068 220.373C136.317 224.273 137.15 229.264 133.475 233.101L133.6 233.226C134.318 229.794 136.39 226.113 131.621 223.774C131.174 223.555 131.08 222.547 130.903 221.881C125.697 202.062 116.421 183.407 113.995 162.818C112.865 154.258 114.357 145.558 118.274 137.862C118.586 140.773 117.129 143.061 118.659 145.141C120.19 147.22 122.824 147.543 125 148.406C135.411 152.503 146.645 154.364 156.682 159.563C158.618 160.603 159.055 159.563 159.003 157.744C158.91 154.624 159.555 151.442 158.941 148.479C158.139 144.6 163.501 143.383 161.721 139.37C163.907 140.503 163.355 142.084 163.168 143.435C162.733 147.038 162.677 150.677 163.001 154.291C163.439 160.343 165.906 165.064 171.33 168.402C176.755 171.74 182.481 174.641 186.521 179.892C190.04 184.499 190.123 185.216 185.479 188.991C178.962 194.252 171.31 197.58 164.001 201.469C159.569 203.83 155.606 206.98 152.309 210.765C149.591 213.885 148.228 217.368 150.112 223.15C152.206 218.016 156.003 213.757 160.867 211.087C165.219 208.592 166.406 209.091 166.218 214.02C166.062 218.273 167.863 218.335 170.924 216.869C176.026 214.415 181.18 212.346 185.74 208.613C191.726 203.715 199.004 200.616 206.094 197.372C213.632 193.93 214.6 189.116 209.592 182.533C207.947 180.37 206.156 178.312 204.137 175.847C210.383 177.293 216.943 184.384 217.036 189.22C217.161 195.459 213.215 199.94 205.959 202.28C201.018 203.816 196.399 206.241 192.33 209.434C193.371 211.056 194.694 210.391 195.651 210.089C207.323 206.367 219.223 203.195 228.968 195.115C232.237 192.412 236.016 190.707 240.493 192.599C242.971 193.639 245.334 194.793 245.636 197.798C245.949 201.001 243.554 202.446 241.159 203.445C235.433 205.826 229.613 208.051 223.46 208.987C221.072 209.354 218.739 210.017 216.516 210.963C215.391 211.431 213.923 211.566 214.121 213.136C214.319 214.706 215.756 214.488 216.984 214.561C222.586 214.883 227.833 212.97 233.226 212.044C235.485 211.649 237.588 209.892 241.555 211.795C233.33 214.103 226.615 216.744 219.212 216.879C215.048 216.952 210.883 216.879 206.771 217.025C204.688 217.025 202.512 217.306 201.419 214.945C200.441 212.793 198.785 213.812 197.411 214.155C187.853 216.547 178.296 218.907 168.467 219.874C166.801 220.03 165.677 221.101 164.417 222.027C162.79 223.305 161.071 224.462 159.274 225.489C157.462 226.446 154.068 225.635 154.36 228.869C154.651 232.29 158.004 231.988 160.44 232.519C163.974 233.445 167.7 233.337 171.174 232.207C172.496 231.718 174.662 232.207 173.132 229.607C172.726 228.9 173.673 228.162 174.287 228.255C178.743 229.004 181.783 225.354 185.865 224.678C192.559 223.555 199.566 224.054 205.834 220.134C208.364 218.553 212.226 218.793 215.485 218.761C226.035 218.797 236.522 217.151 246.553 213.885C252.189 212.151 258.064 211.319 263.96 211.42C265.959 211.42 268.125 211.691 266.532 214.685C265.886 215.933 265.095 217.347 266.834 218.252C268.26 218.98 269.52 218.054 270.572 217.139C271.623 216.224 272.477 215.06 274.028 215.06L273.997 214.966ZM249.301 240.203C249.666 238.217 247.156 238.123 248.104 236.668C248.374 236.272 249.728 236.366 250.488 236.574C251.696 236.917 252.695 237.697 252.456 239.174C252.255 239.826 251.983 240.453 251.644 241.045C250.894 242.751 251.758 243.427 253.268 243.063C254.32 242.915 255.295 242.429 256.047 241.679C256.798 240.928 257.284 239.954 257.432 238.903C257.53 238.391 257.525 237.864 257.417 237.354C257.309 236.843 257.101 236.36 256.805 235.93C256.509 235.501 256.13 235.134 255.691 234.852C255.252 234.57 254.761 234.378 254.247 234.286C251.921 233.517 249.391 233.647 247.156 234.65C244.689 235.929 242.898 235.233 241.107 233.61C239.882 232.405 238.593 231.267 237.245 230.2C232.872 226.987 229.145 222.619 223.356 221.787C222.107 221.611 220.233 221.444 219.899 223.202C219.441 225.281 221.565 225.208 222.679 225.281C227.291 225.656 230.477 228.234 233.747 231.219C238.122 235.433 243.461 238.517 249.301 240.203ZM184.553 228.349C199.535 229.971 206.854 244.165 220.618 250.768C216.755 245.465 211.633 243.416 208.957 239.423C203.023 230.543 193.965 229.409 184.553 228.349Z" fill="#A5FFB3"/>
<path d="M92.8807 300.452C96.0041 302.937 96.8162 306.806 98.5861 310.05C100.96 314.407 102.532 319.19 104.947 323.568C105.676 324.878 106.676 326.822 104.854 328.299C103.282 329.568 101.73 328.829 99.9916 328.299C97.5137 327.623 94.9525 324.036 92.079 328.788C90.8817 324.628 87.7479 322.133 86.207 319.429C83.7499 315.072 80.2101 310.071 81.4282 304.247C81.6563 303.322 81.6937 302.36 81.538 301.42C81.3823 300.479 81.0367 299.581 80.5224 298.778C72.4223 286.3 61.4592 276.13 47.9348 271.004C39.0007 267.721 30.4679 263.437 22.4999 258.234C15.3246 253.692 9.08111 247.827 4.10299 240.952C-3.32032 230.242 -0.592538 221.466 11.6512 216.932C18.1184 214.427 24.9509 212.99 31.8805 212.679C46.675 212.253 61.5425 210.828 76.2746 214.228C67.8518 214.8 59.5643 216.849 51.0582 216.578C39.9493 216.235 29.4859 219.147 19.1995 222.817C10.7246 225.76 9.37114 232.852 15.618 239.164C22.0314 245.684 28.2469 252.391 34.4729 259.098C39.6161 264.64 46.2898 267 53.4424 268.966C53.4424 266.356 50.6626 265.992 50.319 263.694C52.7032 262.945 54.14 264.733 55.6601 265.773C62.594 270.64 69.4031 275.641 75.0148 282.099C76.0559 283.243 77.3365 285.541 79.1273 283.752C80.7514 282.109 79.4292 280.383 77.8987 278.907C73.8175 275.028 72.8804 269.111 75.5874 265.16C76.6285 263.631 77.8571 264.577 78.7108 265.285C84.5724 270.307 92.0061 271.732 98.9713 274.196C103.501 275.945 107.607 278.635 111.017 282.088C111.756 282.785 112.6 283.679 111.923 284.792C111.246 285.905 110.132 285.499 109.133 285.229C106.691 284.489 104.185 283.981 101.647 283.711C105.131 285.903 108.389 288.435 111.371 291.27C111.829 291.738 112.61 292.31 113.152 292.216C121.939 290.906 130.382 294.296 139.065 294.005C141.45 293.911 143.803 293.059 146.187 292.799C149.997 292.383 152.121 294.015 152.028 298.071C151.851 305.62 149.217 307.232 142.314 303.27C135.609 299.475 129.081 298.445 121.595 301.118C115.817 303.197 112.704 306.712 111.809 312.556C111.257 316.122 110.819 319.71 110.236 323.932C106.155 319.273 102.064 315.426 100.554 309.374C99.2628 304.258 97.0452 299.329 91.6001 296.272C90.6943 298.601 92.6412 299.319 93.0577 300.577C92.0179 300.502 90.974 300.502 89.9343 300.577C88.8931 300.712 87.7791 301.128 87.5917 302.282C87.4043 303.436 88.3101 304.133 89.3408 304.497C90.5381 304.923 91.7458 305.027 92.6516 303.915C93.5574 302.802 93.2034 301.627 92.8807 300.452ZM94.5361 315.717C92.4538 317.038 92.4538 319.876 91.4127 322.05C90.8401 323.193 92.1831 324.784 93.37 324.296C96.2852 323.069 94.6402 319.408 96.4934 317.349C97.2743 316.518 95.9729 316.112 94.5361 315.717ZM92.1831 307.346C90.257 307.294 89.8093 308.448 89.9447 310.039C90.0592 311.36 90.5589 312.493 92.0269 312.421C92.4188 312.446 92.8117 312.391 93.1812 312.258C93.5507 312.125 93.8887 311.918 94.1741 311.648C94.4594 311.379 94.6861 311.053 94.8397 310.693C94.9934 310.332 95.0708 309.943 95.0671 309.551C95.1399 307.71 93.4741 307.637 92.1831 307.346Z" fill="#A5FFB3"/>
<path d="M133.453 233.038C132.693 235.46 131.371 237.914 134.14 240.036C134.361 240.173 134.551 240.355 134.697 240.571C134.842 240.786 134.941 241.03 134.986 241.286C135.032 241.542 135.022 241.805 134.959 242.057C134.896 242.309 134.78 242.545 134.619 242.75C131.683 247.439 129.091 252.493 122.448 252.711C120.533 252.774 118.024 253.179 118.45 255.571C118.726 256.584 119.32 257.482 120.144 258.134C120.969 258.785 121.981 259.155 123.031 259.19C126.217 259.398 128.529 257.599 130.882 255.727C136.67 251.131 141.095 252.348 144.5 260.011C141.522 258.711 140.148 255.914 137.472 255.477C133.953 254.906 132.485 256.777 131.892 260.011C139.179 259.262 140.221 264.358 136.556 270.981C139.877 271.148 139.877 271.148 143.053 269.12C141.637 273.987 140.97 274.423 136.285 273.581C132.995 272.988 130.194 274.517 127.467 275.848C126.684 276.251 126.056 276.9 125.68 277.695C125.303 278.49 125.2 279.387 125.384 280.246C125.532 281.286 126.021 282.247 126.775 282.979C127.529 283.711 128.504 284.173 129.549 284.291C133.008 284.681 136.324 285.889 139.221 287.817C133.203 287.817 128.112 287.234 124.645 282.181C122.094 278.458 123.521 275.37 125.895 272.177C120.928 273.82 120.96 278.188 120.533 282.316C117.409 281.702 115.65 279.352 113.62 277.626C110.121 274.683 107.373 270.732 102.084 270.711C101.731 270.701 101.384 270.619 101.063 270.472C100.742 270.324 100.455 270.114 100.218 269.852C99.9805 269.591 99.7985 269.285 99.6827 268.952C99.5668 268.619 99.5195 268.266 99.5434 267.914C99.8662 266.146 101.761 266.614 103.042 266.573C108.737 266.396 114.432 266.354 120.075 265.21C121.321 265.047 122.519 264.627 123.594 263.977C124.669 263.327 125.598 262.462 126.321 261.436C122.927 261.872 120.179 262.101 117.482 262.611C113.386 263.271 109.21 263.271 105.114 262.611C101.688 262.153 98.1171 260.531 94.7021 262.902C94.3482 263.151 93.661 262.964 93.1717 262.964C91.0894 262.964 88.8614 263.099 87.8619 260.697C86.6958 257.911 90.8083 258.774 90.7666 256.153C87.2788 255.81 83.7494 255.405 80.2095 255.113C71.1932 254.543 62.5004 251.543 55.0557 246.431C49.5897 242.708 43.2908 240.691 36.8462 239.152C35.3886 238.819 33.7228 238.996 32.3589 237.374C34.6494 235.741 36.992 236.76 39.2304 236.989C41.9165 237.27 44.9671 239.526 46.7891 235.419C47.1014 234.712 48.0905 234.774 48.6319 235.221C53.9208 239.505 61.9688 237.53 66.6748 243.29C68.1532 245.1 70.6623 245.173 72.9216 245.193C81.0424 245.297 89.1633 245.474 97.2842 245.485C110.819 245.485 122.667 240.691 133.557 233.006L133.453 233.038ZM128.602 243.852C128.435 243.082 128.414 241.949 127.154 241.658C126.28 241.46 125.343 241.658 125.072 242.625C124.416 245.058 122.261 245.88 120.501 247.169C119.637 247.793 118.981 248.781 120.501 249.446C123.146 250.601 128.654 246.899 128.602 243.852Z" fill="#A5FFB3"/>
<path d="M265.648 100.73C256.163 100.668 248.292 92.4116 248.365 82.7098C248.427 74.1103 256.881 65.1885 264.929 65.2405C275.549 65.3133 284.117 73.4344 284.221 83.5313C284.305 91.8396 274.643 100.793 265.648 100.73ZM276.059 76.6579C277.85 80.0374 276.059 83.2089 276.725 86.5052C279.849 85.3926 281.14 83.5833 280.89 80.8589C280.713 78.6024 279.745 76.9491 276.007 76.6579H276.059ZM255.236 78.7376C253.872 78.7376 253.487 79.7775 253.154 80.7029C252.456 82.7826 252.446 84.7687 254.081 86.4428C254.362 86.7236 255.184 86.942 255.382 86.7652C256.923 85.3822 255.861 83.5625 256.038 81.9403C256.121 80.8589 256.517 79.5279 255.205 78.7376H255.236Z" fill="#A5FFB3"/>
<path d="M330.854 109.516C330.854 108.477 331.228 107.166 330.781 106.75C329.552 105.596 329.229 107.218 328.605 107.79C327.98 108.362 326.928 109.34 326.106 108.123C325.398 107.083 326.418 106.272 327.147 105.565C328.802 103.901 330.968 103.36 332.582 105.035C334.466 107.104 332.405 108.269 330.854 109.516Z" fill="#A5FFB3"/>
<path d="M274.049 215.08C273.247 206.48 272.404 205.721 264.751 206.553L264.856 206.616C268.218 204.328 271.602 204.536 274.517 207.146C277.433 209.756 275.059 212.345 273.986 214.945L274.049 215.08Z" fill="#A5FFB3"/>
<path d="M69.4444 264.899C70.0795 268.653 70.8708 270.941 68.9551 272.584C67.914 273.457 66.5188 272.344 66.092 271.305C64.978 268.539 67.6745 267.769 69.4444 264.899Z" fill="#A5FFB3"/>
<path d="M264.751 206.553C262.75 208.064 260.456 209.142 258.015 209.721C255.574 210.299 253.039 210.364 250.572 209.912C255.777 209.309 259.869 206.231 264.845 206.605L264.751 206.553Z" fill="#A5FFB3"/>
</svg>
