<svg width="100" height="94" viewBox="0 0 100 94" fill="none" xmlns="http://www.w3.org/2000/svg">
<path d="M94.8445 32.8123C86.9827 35.1903 79.0718 34.9398 71.2849 34.43C71.8963 33.9085 72.0982 33.7523 74.0968 34.0204C77.8287 34.5243 81.5463 34.2532 85.2782 34.1177C87.8738 34.0234 90.3454 33.2071 92.9093 32.9154C94.8676 32.6944 96.4682 30.2162 94.8099 28.1151C93.8784 26.9364 92.869 25.8225 91.8509 24.7234C91.0636 23.8688 90.083 23.1734 89.4197 22.2392C88.7142 21.3009 87.8764 20.4746 86.9336 19.7875C88.1997 19.5989 88.5689 20.7452 89.4197 20.9338C89.4543 20.9044 89.5639 20.8572 89.5754 20.7894C89.76 19.7875 90.9511 18.6943 90.3426 17.9664C89.734 17.2386 88.3785 17.9664 87.3922 18.1904C85.3272 18.6884 83.2305 18.6029 81.1425 18.7355C80.6176 18.7679 79.9254 18.709 79.7581 19.2925C79.2823 20.9486 78.6651 19.9555 78.0277 19.4693C74.8726 17.0559 70.835 17.6334 68.372 20.8366C68.0451 21.2609 67.7039 21.6695 67.3482 22.0624C67.204 22.2216 66.8608 22.5339 66.8031 22.2098C66.5579 20.8425 65.7014 21.644 65.1765 21.7412C59.9852 22.6901 54.9641 24.3933 49.8132 25.4895C45.9486 26.3205 42.2513 27.8116 38.2137 28.118C39.3904 27.6259 40.5497 27.0896 41.7437 26.6447C43.004 26.185 44.2817 25.7606 45.5795 25.4306C51.3476 23.9572 56.1754 20.5655 61.1533 17.489C61.6551 17.2005 62.0907 16.8057 62.4309 16.331C62.826 15.721 63.5845 15.1523 63.2067 14.2682C62.7972 13.2987 61.9319 13.0424 60.9716 12.9687C58.4625 12.7831 56.0341 13.3105 53.574 13.6759C48.0107 14.504 42.7272 16.4636 37.2677 17.7071C36.9505 17.7778 36.6332 17.9458 36.2064 17.6894C42.3321 15.4882 48.4693 13.6435 54.8459 12.6004C53.153 12.2644 51.6273 11.7664 49.8536 12.3057C45.8564 13.5551 41.7091 14.4391 37.6253 15.4617C34.3577 16.2838 31.3929 17.9222 28.2638 19.154C29.3597 19.1717 30.4037 18.7061 31.7534 18.8269C30.383 19.3686 28.9612 19.7636 27.511 20.0056C25.1346 20.4859 22.8389 21.2226 21.1287 23.0909C20.6643 23.5977 19.1848 24.5642 21.3796 24.8943C22.1006 25.0092 21.9564 26.2085 22.937 26.6447C22.637 25.9072 22.4982 25.1117 22.5303 24.3138C22.5303 23.4297 22.9196 22.917 23.7099 22.7196C24.5001 22.5221 25.3019 22.584 25.6595 23.4798C26.1353 24.6585 26.891 25.0092 28.0417 24.5348C28.258 24.4464 28.5695 24.3226 28.7339 24.414C30.522 25.3864 30.9344 23.8835 31.4852 22.7814C31.7217 22.2504 32.0704 21.7794 32.5062 21.4024C32.7802 21.1814 33.1234 21.037 33.4262 21.3051C33.729 21.5733 33.504 21.9357 33.3454 22.2275C33.057 22.7814 32.2466 23.3237 33.083 23.9661C33.7982 24.5142 34.4442 23.9042 35.0297 23.5122C35.6152 23.1203 36.016 22.472 36.391 21.8326C37.4408 20.041 39.0299 19.3956 40.9391 20.1795C42.3436 20.7688 43.4799 20.4741 44.521 19.5282C45.493 18.6619 46.5399 18.4202 47.8261 18.5381C48.9971 18.6442 50.2487 18.3937 51.039 17.3152C51.7167 16.3899 52.7232 16.8761 53.6346 16.387C53.4241 17.5922 52.703 18.1344 51.9244 18.5794C48.4924 20.5331 45.0027 22.3718 41.2765 23.6684C38.4213 24.6585 35.7478 26.1113 33.1118 27.5906C31.8255 28.3125 30.3893 28.5159 29.0742 29.1082C28.4628 29.3852 27.8139 29.5767 27.2428 30.1366C27.488 30.5668 28.3387 30.0246 28.3041 30.7083C28.2811 31.1414 27.7533 31.1974 27.4562 31.4273C26.2594 32.3555 25.4374 33.6432 24.4338 34.7512C24.236 34.9703 24.1268 35.2577 24.1281 35.5557C24.3328 37.8188 23.9867 40.135 25.0567 42.3068C26.0027 44.2251 26.8419 46.2554 26.8708 48.436C26.8938 50.2041 26.5362 51.9957 27.1217 53.7402C27.2053 53.9848 27.2428 54.1646 27.4764 54.2942C28.8463 55.0574 29.2386 56.41 29.4231 57.8303C29.55 58.7998 29.8384 59.4393 30.9373 59.6161C31.3451 59.6685 31.7339 59.8232 32.069 60.0664C32.4042 60.3096 32.6752 60.6337 32.858 61.0099C32.0707 61.1278 31.7044 60.338 31.0036 60.4205C31.4218 61.2515 32.5523 61.667 32.2985 62.9724C30.8104 61.9794 29.7317 60.3734 27.5774 60.727C28.8838 59.899 28.1542 59.2006 27.687 58.57C25.3394 55.3285 23.3609 51.9132 22.2794 47.9616C21.1027 43.7124 21.345 39.416 21.6593 35.1402C21.7776 33.493 22.5966 32.1463 23.9666 31.0913C25.532 29.8513 26.9803 28.4642 28.2926 26.9482C27.5249 27.0643 26.7642 27.2246 26.0142 27.4285C24.5895 27.9029 23.1619 27.676 21.7632 27.4609C19.7443 27.1486 18.7349 24.7528 19.7645 22.9494C20.549 21.5703 21.8353 20.8071 23.136 20.0675C27.9754 17.3859 33.2993 16.0687 38.6059 14.7515C40.2658 14.3085 41.8888 13.7321 43.4597 13.0276C45.8362 12.0139 48.3626 11.3745 50.8025 10.514C53.4846 9.57108 55.8639 8.21556 57.2339 5.46917C57.6924 4.54683 57.8626 3.72174 57.2714 2.86423C56.7349 2.08333 56.8272 1.35843 57.4502 0.751394C58.2923 -0.0648616 59.2959 -0.20336 60.3775 0.274017C61.2023 0.639417 61.5311 1.27297 61.4071 2.157C61.3898 2.30139 61.3494 2.45168 61.335 2.59018C61.2427 3.49778 60.5938 4.57925 61.7791 5.17155C62.6443 5.60178 64.8333 4.35529 65.1938 3.37697C65.7216 1.94484 66.6358 1.48219 68.0057 2.04503C69.2833 2.57544 69.018 3.67459 68.7613 4.66765C68.5946 5.17731 68.3321 5.64879 67.9884 6.05558C67.6316 6.46208 67.246 6.84127 66.8348 7.19009C67.6135 7.57611 68.5479 6.92488 69.1045 7.87079C69.7996 9.0495 69.5775 10.3638 68.3028 11.1564C67.726 11.513 67.5587 11.7458 67.6827 12.4913C67.948 14.0855 66.6012 15.5177 64.6891 15.7328C64.0488 15.8064 63.6595 15.939 63.3711 16.5608C63.051 17.2474 62.3299 17.5421 61.7503 17.9723C59.7574 19.4678 57.6209 20.7523 55.3737 21.8061C54.7068 22.1221 54.0973 22.5516 53.5711 23.0761C55.8784 22.5192 58.2375 22.0654 60.5101 21.367C61.7492 20.991 63.0248 20.7549 64.3142 20.6627C66.1328 20.4999 67.8794 19.8594 69.3843 18.8033C70.1861 18.267 71.034 17.8073 71.8588 17.3122C73.4306 16.3634 74.9793 16.4547 76.4444 17.5156C76.9965 17.8928 77.6568 18.0692 78.319 18.0165C81.5982 18.0165 84.7475 16.9498 88.0094 16.8378C88.5343 16.8172 89.0592 16.7582 89.584 16.7082C93.8524 16.3103 94.4379 18.877 93.3621 22.307C92.7478 24.2784 92.9555 25.3687 94.4552 26.4796C94.9599 26.8568 95.2281 27.4668 95.4905 28.0473C95.8943 28.9314 96.3702 29.6798 97.3911 30.0835C98.6284 30.5727 98.7091 31.5098 97.8612 33.2602C98.0631 33.3515 98.2563 33.4635 98.464 33.5342C99.7243 33.9615 100.226 34.8691 99.906 36.1598C99.6176 37.3562 98.2333 38.2844 97.0393 38.0369C95.8453 37.7893 94.6167 37.4475 93.3535 37.7864C92.9324 37.9013 92.4364 37.9043 92.3671 38.4494C92.2979 38.9946 92.5431 39.3335 93.0853 39.5368C93.8063 39.799 94.386 40.0672 94.2389 41.187C94.063 42.5484 93.5698 43.3499 92.2201 43.4766C90.0368 43.6829 88.367 42.4511 86.7404 41.2665C85.2465 40.1821 83.6776 39.3335 81.8375 39.5515C79.389 39.8462 77.0443 40.1409 74.7717 41.6467C70.013 44.8086 64.7958 47.051 59.0075 47.5078C57.3521 47.6375 55.6967 47.2603 54.021 47.7553C53.4904 47.9115 52.6454 47.2249 52.0368 46.7858C50.7131 45.837 49.5681 42.1417 50.0555 40.5976C50.1882 40.1762 50.3756 39.6458 50.9207 39.8049C51.4658 39.9641 51.1139 40.468 50.9957 40.7685C49.7758 43.9245 51.7081 45.3125 53.6605 46.8124C53.9517 46.9781 54.2882 47.0413 54.618 46.9921C57.9606 46.7299 61.2686 46.4263 64.4093 44.9706C67.55 43.5149 70.9878 42.4924 74.091 40.8835C75.6571 40.0672 77.3932 39.5162 78.8208 38.3492C79.3976 37.8689 80.3378 37.7864 81.1281 37.6184C83.1901 37.1823 85.2493 36.6401 87.3374 36.4397C89.7023 36.2069 91.5683 34.6717 93.8207 34.1855C94.3456 34.0558 94.7176 33.5165 94.8445 32.8123ZM60.3457 2.63438C59.8901 2.83181 59.6507 3.42411 59.1489 3.3416C58.3384 3.20605 58.2836 3.78362 58.2519 4.31109C58.1279 6.75691 56.7147 8.31281 54.8891 9.64769C54.1624 10.1781 53.2424 10.4639 52.5819 11.3097C56.3513 11.1211 56.8301 10.2724 62.4597 7.00739C63.772 6.24712 64.9717 5.17155 66.7858 5.28647C66.3618 4.56746 66.0648 3.98989 65.984 3.27383C63.074 6.77754 59.0104 8.13895 55.1602 10.293C55.4486 9.5976 55.9072 9.50625 56.2389 9.25872C57.4415 8.35111 58.3154 7.19598 58.4942 5.66071C58.6038 4.72659 58.6067 3.93096 59.7603 3.73647C60.1785 3.6687 60.4697 3.27383 60.3457 2.63438ZM58.9989 10.1369C61.0667 9.90406 63.1 9.42079 65.1794 9.30881C65.2273 9.31068 65.2751 9.30169 65.3193 9.2825C65.3635 9.2633 65.403 9.23437 65.4349 9.19777C65.4669 9.16117 65.4905 9.1178 65.5042 9.07078C65.5179 9.02375 65.5212 8.97422 65.5139 8.92573C65.4678 8.58096 65.1765 8.61338 64.9573 8.65758C62.9558 9.07013 60.8995 9.25577 58.9989 10.1369ZM90.3426 42.3333C91.4616 43.0994 92.3383 43.0051 93.2064 42.4688C93.3125 42.4081 93.4054 42.3258 93.4794 42.2271C93.5534 42.1284 93.6068 42.0153 93.6365 41.8948C93.6662 41.7742 93.6715 41.6488 93.6521 41.526C93.6327 41.4033 93.589 41.2859 93.5236 41.1811C93.091 40.3943 92.3066 40.3413 91.4385 40.3295C91.8653 40.9866 93.1689 40.5858 92.8949 41.5288C92.5777 42.5425 91.3895 41.9826 90.3426 42.3333Z" fill="#9F13E5"/>
<path d="M75.8994 60.9185C75.0486 63.0049 74.7458 63.0638 72.5337 62.6866C71.0254 62.4214 69.5372 61.7643 67.9193 62.33C67.0252 62.6424 66.2639 62.7514 66.5811 64.0126C66.9214 65.3682 67.6511 66.0754 68.7614 65.7247C69.8718 65.3741 70.711 65.7247 71.4522 66.5233C72.2655 67.4073 72.1848 68.2914 71.4061 69.1165C70.9473 69.6193 70.3956 70.0243 69.7828 70.308C69.1699 70.5918 68.5082 70.7487 67.8357 70.7696C67.1031 70.802 66.682 70.5663 66.16 69.9681C64.2508 67.7403 62.2349 65.5951 59.0249 65.4742C58.5952 65.4566 58.0732 65.2945 57.8713 65.7689C57.6694 66.2434 58.1597 66.5763 58.4481 66.8533C59.3422 67.6755 60.5679 67.9142 61.5254 68.6774C61.8941 68.9452 62.1826 69.3124 62.3588 69.7381C62.535 70.1637 62.592 70.631 62.5233 71.0878C62.3704 72.4669 61.4187 73.2007 60.216 73.6339C59.2845 73.9698 58.3616 73.7134 57.9434 72.8795C56.536 70.0683 53.9519 69.476 51.2957 68.8807C49.15 68.4004 47.036 67.755 44.8903 67.26C43.8654 67.0019 42.9084 66.5171 42.087 65.8396C39.8519 64.0922 39.5433 61.9116 41.1872 59.5748C42.534 57.6624 44.449 56.4306 46.3583 55.2077C47.4542 54.5064 48.553 53.8109 49.6691 53.145C50.4565 52.6705 50.5343 52.0605 50.1046 51.3003C50.0224 51.1245 49.9145 50.9625 49.7845 50.82C46.9178 48.327 44.2414 45.5393 40.2672 44.8645C38.1013 44.4991 35.9411 44.0424 33.9656 42.9845C32.9187 42.4276 32.9158 43.3204 32.9014 43.8892C32.861 45.6012 32.9302 47.3398 33.5099 48.9605C35.0875 53.3807 36.0219 57.9806 37.4149 62.4509C37.761 63.5559 37.9917 64.9703 36.9736 66.0577L37.0082 66.0931C37.2072 65.1206 37.7812 64.0775 36.4603 63.4145C36.3363 63.3526 36.3103 63.0667 36.2613 62.8781C34.8193 57.2616 32.2496 51.9751 31.5776 46.1405C31.2645 43.7149 31.6778 41.2492 32.7629 39.0682C32.8495 39.8933 32.4457 40.5416 32.8696 41.131C33.2936 41.7203 34.0233 41.8117 34.626 42.0563C37.5101 43.2173 40.6219 43.7448 43.4021 45.2181C43.9386 45.5128 44.0597 45.2181 44.0453 44.7025C44.0193 43.8184 44.1981 42.9167 44.028 42.0769C43.8059 40.9777 45.2912 40.633 44.798 39.4955C45.4037 39.8167 45.2508 40.2646 45.1989 40.6477C45.0783 41.6687 45.0628 42.6998 45.1527 43.7241C45.2739 45.4392 45.9574 46.777 47.46 47.7229C48.9625 48.6688 50.5488 49.491 51.6678 50.9791C52.6426 52.2845 52.6656 52.4878 51.3794 53.5575C49.574 55.0486 47.4542 55.9915 45.4296 57.0936C44.2018 57.7626 43.1042 58.6555 42.1908 59.728C41.4381 60.6121 41.0603 61.5992 41.5823 63.2376C42.1623 61.7828 43.2141 60.576 44.5615 59.8194C45.767 59.1122 46.0958 59.2536 46.0439 60.6504C46.0006 61.8556 46.4996 61.8733 47.3475 61.4578C48.7607 60.7624 50.1883 60.176 51.4515 59.1181C53.1098 57.7301 55.1257 56.852 57.0898 55.9326C59.1778 54.9572 59.446 53.5929 58.0588 51.7276C57.6031 51.1146 57.1071 50.5312 56.5476 49.8328C58.278 50.2424 60.0949 52.2521 60.1209 53.6223C60.1555 55.3904 59.0624 56.6605 57.0523 57.3235C55.6836 57.7588 54.4042 58.4459 53.2771 59.3509C53.5655 59.8106 53.9317 59.622 54.1971 59.5365C57.4301 58.4816 60.7265 57.5828 63.426 55.2932C64.3316 54.527 65.3785 54.0437 66.6186 54.58C67.305 54.8747 67.9597 55.2018 68.0433 56.0534C68.1298 56.961 67.4665 57.3706 66.8032 57.6535C65.217 58.3283 63.6048 58.9589 61.9003 59.2241C61.2388 59.3281 60.5925 59.5162 59.9767 59.784C59.6652 59.9166 59.2585 59.9549 59.3133 60.3999C59.3681 60.8449 59.7661 60.783 60.1064 60.8036C61.6581 60.895 63.1116 60.3528 64.6055 60.0905C65.2314 59.9785 65.8139 59.4805 66.9128 60.0198C64.6344 60.674 62.7742 61.4224 60.7236 61.4607C59.57 61.4814 58.4164 61.4607 57.2772 61.502C56.7004 61.502 56.0976 61.5816 55.7948 60.9126C55.5237 60.3027 55.0652 60.5914 54.6845 60.6887C52.0369 61.3664 49.3894 62.0354 46.6669 62.3094C46.2054 62.3536 45.8939 62.6571 45.545 62.9194C45.0942 63.2816 44.618 63.6096 44.1203 63.9007C43.6184 64.1718 42.6782 63.9419 42.759 64.8584C42.8397 65.8279 43.7684 65.7424 44.4433 65.8927C45.4222 66.1553 46.4544 66.1246 47.4167 65.8043C47.783 65.6658 48.3829 65.8043 47.9589 65.0676C47.8464 64.8672 48.1089 64.658 48.279 64.6845C49.5134 64.8967 50.3555 63.8624 51.4861 63.6708C53.3405 63.3526 55.2815 63.494 57.0176 62.3831C57.7185 61.9352 58.7884 62.003 59.6911 61.9941C62.6135 62.0042 65.5187 61.5377 68.2971 60.6121C69.8583 60.1208 71.4858 59.8851 73.1192 59.9137C73.6729 59.9137 74.2728 59.9903 73.8316 60.839C73.6527 61.1926 73.4336 61.5933 73.9152 61.8497C74.3103 62.056 74.6593 61.7937 74.9506 61.5344C75.2419 61.2751 75.4783 60.9451 75.9081 60.9451L75.8994 60.9185ZM69.0585 68.0704C69.1594 67.5075 68.4644 67.481 68.7268 67.0685C68.8018 66.9565 69.1767 66.983 69.3873 67.0419C69.7218 67.1392 69.9987 67.3602 69.9323 67.7786C69.8769 67.9634 69.8014 68.1413 69.7074 68.309C69.4997 68.7923 69.7391 68.9839 70.1573 68.8807C70.4488 68.8389 70.719 68.7012 70.9271 68.4885C71.1352 68.2759 71.2699 67.9998 71.3109 67.702C71.338 67.5568 71.3365 67.4076 71.3067 67.2629C71.2769 67.1183 71.2192 66.9812 71.1371 66.8595C71.0551 66.7378 70.9501 66.6339 70.8285 66.554C70.7068 66.474 70.5708 66.4195 70.4284 66.3936C69.7842 66.1756 69.0833 66.2124 68.4644 66.4968C67.7809 66.8592 67.2848 66.6618 66.7888 66.2021C66.4493 65.8605 66.0922 65.5379 65.7188 65.2356C64.5075 64.325 63.475 63.0874 61.8715 62.8516C61.5254 62.8015 61.0063 62.7544 60.914 63.2524C60.7871 63.8417 61.3754 63.8211 61.684 63.8417C62.9616 63.9478 63.8442 64.6786 64.7497 65.5243C65.9618 66.7187 67.4408 67.5926 69.0585 68.0704ZM51.1227 64.711C55.2728 65.1707 57.3003 69.1931 61.113 71.0643C60.043 69.5614 58.6241 68.9809 57.8829 67.8493C56.239 65.3328 53.7299 65.0116 51.1227 64.711Z" fill="#9F13E5"/>
<path d="M25.7287 85.144C26.5939 85.8483 26.8189 86.9445 27.3092 87.8639C27.9667 89.0986 28.4022 90.4541 29.0713 91.6947C29.2732 92.066 29.55 92.6171 29.0453 93.0355C28.6099 93.395 28.1801 93.1858 27.6985 93.0355C27.0121 92.844 26.3026 91.8273 25.5066 93.174C25.175 91.9953 24.3069 91.2881 23.88 90.5219C23.1994 89.2872 22.2188 87.8698 22.5563 86.2196C22.6195 85.9574 22.6298 85.6847 22.5867 85.4183C22.5435 85.1518 22.4478 84.8971 22.3054 84.6696C20.0616 81.1335 17.0247 78.2516 13.2783 76.7988C10.8035 75.8685 8.43985 74.6545 6.23265 73.1802C4.24505 71.893 2.51554 70.2309 1.13656 68.2826C-0.919754 65.2475 -0.164138 62.7604 3.22748 61.4756C5.01893 60.7656 6.91161 60.3585 8.83116 60.2704C12.9294 60.1495 17.0478 59.7458 21.1287 60.7094C18.7955 60.8715 16.4998 61.452 14.1435 61.3754C11.0663 61.2782 8.16783 62.1032 5.31841 63.1435C2.97081 63.9774 2.59588 65.9871 4.3263 67.7758C6.10286 69.6234 7.82463 71.5241 9.54928 73.4247C10.974 74.9954 12.8227 75.6643 14.804 76.2212C14.804 75.4816 14.034 75.3785 13.9388 74.7272C14.5992 74.515 14.9972 75.0219 15.4183 75.3166C17.3391 76.6957 19.2252 78.1131 20.7797 79.943C21.0681 80.2671 21.4228 80.9184 21.9189 80.4115C22.3688 79.9459 22.0025 79.4568 21.5786 79.0383C20.448 77.9392 20.1885 76.2625 20.9383 75.1427C21.2267 74.7095 21.567 74.9777 21.8035 75.1781C23.4272 76.6014 25.4864 77.0051 27.4159 77.7035C28.6707 78.199 29.8081 78.9614 30.7527 79.9401C30.9575 80.1375 31.1911 80.3909 31.0036 80.7062C30.8161 81.0215 30.5075 80.9066 30.2307 80.83C29.5542 80.6203 28.86 80.4763 28.1571 80.3997C29.1222 81.0209 30.0245 81.7385 30.8507 82.542C30.9776 82.6747 31.1939 82.8367 31.3439 82.8102C33.778 82.4389 36.117 83.3996 38.5223 83.317C39.1827 83.2905 39.8345 83.0489 40.4949 82.9752C41.5505 82.8574 42.1388 83.32 42.1129 84.4692C42.0639 86.6086 41.3342 87.0653 39.4221 85.9426C37.5648 84.8671 35.7565 84.5753 33.6829 85.3326C32.0822 85.922 31.2199 86.918 30.9719 88.5741C30.819 89.5848 30.6979 90.6015 30.5364 91.7979C29.4058 90.4777 28.2724 89.3874 27.8542 87.6724C27.4966 86.2226 26.8823 84.8258 25.374 83.9594C25.1231 84.6195 25.6624 84.8228 25.7777 85.1794C25.4897 85.1581 25.2005 85.1581 24.9125 85.1794C24.6241 85.2177 24.3155 85.3356 24.2636 85.6627C24.2117 85.9898 24.4626 86.1872 24.7481 86.2903C25.0798 86.4112 25.4143 86.4406 25.6653 86.1253C25.9162 85.81 25.8181 85.477 25.7287 85.144ZM26.1873 89.4699C25.6105 89.8441 25.6105 90.6486 25.3221 91.2645C25.1634 91.5886 25.5355 92.0395 25.8643 91.901C26.6718 91.5533 26.2161 90.516 26.7295 89.9326C26.9458 89.6968 26.5853 89.5819 26.1873 89.4699ZM25.5355 87.0978C25.0019 87.083 24.8779 87.4101 24.9154 87.861C24.9471 88.2352 25.0856 88.5564 25.4922 88.5358C25.6008 88.5431 25.7096 88.5274 25.812 88.4897C25.9143 88.4521 26.0079 88.3932 26.087 88.3169C26.166 88.2405 26.2288 88.1483 26.2714 88.0461C26.3139 87.9438 26.3354 87.8336 26.3344 87.7225C26.3545 87.2009 25.8931 87.1803 25.5355 87.0978Z" fill="#9F13E5"/>
<path d="M36.9676 66.04C36.757 66.7266 36.3908 67.422 37.1579 68.0231C37.2191 68.0621 37.2717 68.1137 37.312 68.1748C37.3524 68.2358 37.3797 68.3049 37.3923 68.3774C37.4048 68.45 37.4022 68.5244 37.3847 68.5959C37.3672 68.6674 37.3351 68.7343 37.2906 68.7923C36.4773 70.1212 35.7592 71.5534 33.9192 71.6153C33.3885 71.6329 32.6934 71.7479 32.8117 72.4256C32.888 72.7128 33.0525 72.9673 33.2809 73.1519C33.5093 73.3365 33.7896 73.4413 34.0807 73.4511C34.9632 73.51 35.6034 73.0002 36.2552 72.4698C37.8587 71.1673 39.0845 71.5121 40.0275 73.6839C39.2027 73.3155 38.822 72.5229 38.0808 72.3991C37.106 72.237 36.6994 72.7674 36.535 73.6839C38.5538 73.4717 38.8422 74.9156 37.827 76.7927C38.747 76.8399 38.747 76.8399 39.6267 76.2653C39.2344 77.6443 39.0498 77.7681 37.752 77.5294C36.8407 77.3615 36.0649 77.7946 35.3093 78.1718C35.0925 78.286 34.9185 78.47 34.8143 78.6953C34.71 78.9205 34.6813 79.1747 34.7325 79.4183C34.7734 79.7129 34.9089 79.9853 35.1176 80.1928C35.3264 80.4002 35.5967 80.531 35.8861 80.5646C36.8442 80.6749 37.7628 81.0174 38.5653 81.5636C36.8984 81.5636 35.4881 81.3985 34.5277 79.9664C33.8211 78.9115 34.2162 78.0363 34.8738 77.1316C33.4981 77.5972 33.5067 78.8348 33.3885 80.0047C32.5233 79.8309 32.0359 79.1649 31.4735 78.6757C30.5045 77.8418 29.7431 76.722 28.278 76.7161C28.1802 76.7132 28.0841 76.6901 27.9952 76.6483C27.9064 76.6065 27.8268 76.5468 27.7611 76.4728C27.6954 76.3987 27.645 76.3119 27.6129 76.2176C27.5808 76.1232 27.5676 76.0231 27.5743 75.9234C27.6637 75.4225 28.1886 75.5551 28.5433 75.5433C30.1209 75.4932 31.6985 75.4814 33.2616 75.1573C33.6067 75.1109 33.9387 74.9919 34.2365 74.8078C34.5344 74.6237 34.7916 74.3784 34.992 74.0876C34.0518 74.2114 33.2904 74.2762 32.5435 74.4206C31.4087 74.6077 30.252 74.6077 29.1172 74.4206C28.1684 74.2909 27.1792 73.8312 26.2332 74.5031C26.1352 74.5738 25.9448 74.5208 25.8093 74.5208C25.2324 74.5208 24.6153 74.5591 24.3384 73.8784C24.0154 73.0886 25.1546 73.3332 25.143 72.5906C24.1769 72.4934 23.1992 72.3785 22.2186 72.296C19.7211 72.1344 17.3131 71.284 15.2508 69.8354C13.7367 68.7805 11.9919 68.2088 10.2066 67.7727C9.80288 67.6784 9.34143 67.7285 8.96362 67.2688C9.59811 66.8061 10.247 67.0949 10.8671 67.1597C11.6112 67.2393 12.4562 67.8788 12.9609 66.7148C13.0474 66.5144 13.3214 66.5321 13.4714 66.6588C14.9365 67.8729 17.1658 67.313 18.4694 68.9455C18.8789 69.4582 19.574 69.4788 20.1998 69.4847C22.4494 69.5142 24.6989 69.5643 26.9485 69.5673C30.6977 69.5673 33.9797 68.2088 36.9964 66.0311L36.9676 66.04ZM35.6236 69.1046C35.5775 68.8865 35.5717 68.5653 35.2227 68.4828C34.9805 68.4269 34.7209 68.4828 34.6459 68.7569C34.4642 69.4464 33.8672 69.6792 33.3798 70.0446C33.1405 70.2214 32.9588 70.5014 33.3798 70.69C34.1124 71.0171 35.638 69.968 35.6236 69.1046Z" fill="#9F13E5"/>
<path d="M73.5865 28.5454C70.9591 28.5277 68.7788 26.188 68.799 23.4387C68.8163 21.0017 71.1581 18.4734 73.3875 18.4881C76.3292 18.5087 78.7027 20.8102 78.7316 23.6715C78.7546 26.0259 76.0783 28.5631 73.5865 28.5454ZM76.4705 21.7237C76.9665 22.6814 76.4705 23.5801 76.6551 24.5142C77.5203 24.1989 77.8779 23.6862 77.8087 22.9142C77.7597 22.2747 77.4914 21.8062 76.4561 21.7237H76.4705ZM70.7024 22.313C70.3246 22.313 70.2179 22.6077 70.1256 22.8699C69.9324 23.4593 69.9295 24.0221 70.3823 24.4966C70.4602 24.5761 70.688 24.638 70.7428 24.5879C71.1696 24.196 70.8755 23.6803 70.9245 23.2206C70.9476 22.9142 71.0572 22.537 70.6938 22.313H70.7024Z" fill="#9F13E5"/>
<path d="M91.6492 31.0354C91.6492 30.7407 91.753 30.3694 91.629 30.2516C91.2886 29.9245 91.1992 30.3842 91.0262 30.5463C90.8532 30.7083 90.5619 30.9853 90.334 30.6405C90.1379 30.3459 90.4206 30.116 90.6224 29.9156C91.081 29.4442 91.6809 29.2909 92.1279 29.7654C92.6499 30.3518 92.0789 30.6818 91.6492 31.0354Z" fill="#9F13E5"/>
<path d="M75.9138 60.9511C75.6918 58.5141 75.4581 58.299 73.3384 58.5347L73.3672 58.5524C74.2988 57.9041 75.2361 57.9631 76.0436 58.7027C76.8511 59.4423 76.1936 60.1761 75.8965 60.9128L75.9138 60.9511Z" fill="#9F13E5"/>
<path d="M19.2367 75.069C19.4126 76.1328 19.6318 76.781 19.1012 77.2466C18.8128 77.4942 18.4263 77.1789 18.308 76.8842C17.9995 76.1003 18.7464 75.8823 19.2367 75.069Z" fill="#9F13E5"/>
<path d="M73.3385 58.5347C72.784 58.9627 72.1485 59.2684 71.4723 59.4322C70.7961 59.5961 70.094 59.6145 69.4104 59.4865C70.8524 59.3156 71.9858 58.4433 73.3644 58.5494L73.3385 58.5347Z" fill="#9F13E5"/>
</svg>
