<svg width="14" height="14" viewBox="0 0 14 14" fill="none" xmlns="http://www.w3.org/2000/svg">
<path d="M11.7778 3.77778L1.91667 13.6667C1.69444 13.8889 1.43037 14 1.12444 14C0.818518 14 0.554814 13.8889 0.333333 13.6667C0.111111 13.4444 0 13.1804 0 12.8744C0 12.5685 0.111111 12.3048 0.333333 12.0833L10.2222 2.22223H1.77778C1.46296 2.22223 1.19889 2.11556 0.985555 1.90223C0.772222 1.68889 0.665926 1.42519 0.666666 1.11111C0.666666 0.7963 0.773333 0.532226 0.986666 0.318893C1.2 0.10556 1.4637 -0.000736896 1.77778 3.84467e-06H12.8889C13.2037 3.84467e-06 13.4678 0.106671 13.6811 0.320004C13.8944 0.533337 14.0007 0.797041 14 1.11111V12.2222C14 12.537 13.8933 12.8011 13.68 13.0144C13.4667 13.2278 13.203 13.3341 12.8889 13.3333C12.5741 13.3333 12.31 13.2267 12.0967 13.0133C11.8833 12.8 11.777 12.5363 11.7778 12.2222V3.77778Z" fill="#A5FFB3"/>
</svg>
