<svg width="41" height="56" viewBox="0 0 41 56" fill="none" xmlns="http://www.w3.org/2000/svg">
<path d="M40.4744 33.9016C39.9299 33.0772 39.3613 32.2626 38.7879 31.477C38.5933 31.2116 38.5008 30.8843 38.5277 30.5556C38.6686 28.4028 38.397 26.2429 37.7279 24.1933C37.6557 24.0082 37.6244 23.8096 37.6361 23.6112C37.6477 23.4127 37.702 23.2192 37.7953 23.044C38.1615 22.3699 38.5518 21.7153 38.9325 21.0558C39.3131 20.3963 39.6552 19.8143 39.9925 19.1839C40.2336 18.7274 40.3374 18.2101 40.2913 17.6952C40.2836 17.3297 40.1429 16.9798 39.8961 16.7117C39.6492 16.4436 39.3132 16.2759 38.9517 16.2404C38.3602 16.1652 37.7624 16.3195 37.2798 16.672C36.5329 17.2199 35.7909 17.7776 35.044 18.3304C34.1662 19.056 33.1517 19.5954 32.0614 19.9162C31.4973 20.098 30.8908 20.098 30.3268 19.9162C29.2619 19.4943 28.8041 18.6602 29.0065 17.3315C29.1517 16.5451 29.4462 15.7943 29.8738 15.1202C30.5776 14.0002 31.407 12.9654 32.3457 12.036C32.7145 11.679 33.0121 11.2543 33.2226 10.7849C33.3116 10.6272 33.3596 10.4495 33.3621 10.2682C33.3646 10.0869 33.3216 9.90783 33.237 9.74773C33.1524 9.58762 33.029 9.45161 32.8783 9.35232C32.7275 9.25303 32.5542 9.19368 32.3746 9.17977C32.0558 9.12346 31.734 9.08622 31.4109 9.06823C31.1867 9.06198 30.9737 8.96858 30.8165 8.80764C30.6593 8.6467 30.5701 8.43073 30.5677 8.20505C30.5554 7.99708 30.5798 7.78855 30.64 7.58919C30.9532 6.65812 31.2615 5.7222 31.6036 4.81052C31.8471 4.28822 31.9836 3.72197 32.0051 3.14547C32.0266 2.56897 31.9327 1.99401 31.7289 1.45479C31.6179 1.12203 31.4279 0.821541 31.1754 0.579391C30.9229 0.33724 30.6155 0.160738 30.2799 0.0651885C29.9443 -0.0303606 29.5906 -0.0420715 29.2494 0.0310715C28.9083 0.104215 28.5901 0.260003 28.3223 0.484927C27.9894 0.750364 27.6828 1.04755 27.4068 1.37235C26.8372 2.09136 26.4117 2.91481 26.154 3.79702C25.6477 5.26854 25.0258 6.69715 24.2941 8.06927C23.3129 9.97855 21.6446 11.439 19.6298 12.1524C19.4932 12.202 19.3506 12.233 19.2058 12.2445C18.4301 12.3221 17.6447 12.3415 16.8833 12.4725C12.7298 13.1198 8.96041 15.2889 6.29936 18.5631C3.63832 21.8374 2.27332 25.9858 2.46661 30.2113C2.50591 30.4597 2.49609 30.7135 2.4377 30.9581C2.28432 31.3137 2.09372 31.6518 1.86912 31.9667C1.38728 32.6602 0.905435 33.3343 0.452503 34.0326C0.300364 34.275 0.178961 34.5357 0.0911208 34.8084C0.0261268 34.9549 -0.00908175 35.1131 -0.0124315 35.2735C-0.0157812 35.4339 0.0127956 35.5933 0.0716162 35.7425C0.130437 35.8916 0.218312 36.0274 0.330066 36.1418C0.44182 36.2562 0.575195 36.347 0.722335 36.4087C1.11797 36.6032 1.53769 36.7434 1.97031 36.8258C3.05445 37.044 4.15306 37.1895 5.2372 37.4174C7.02363 37.7398 8.66018 38.6304 9.90626 39.9584C10.3377 40.4237 10.6661 40.9757 10.8699 41.5781C10.7784 41.5345 10.735 41.4423 10.6676 41.3841C10.1279 40.8992 9.60752 40.3852 9.02449 39.9293C8.20593 39.2951 7.22837 38.9022 6.20089 38.7946C5.67161 38.7233 5.1343 38.8418 4.68308 39.1292C4.4518 39.2844 4.3988 39.4541 4.54335 39.6141C4.95079 40.1373 5.23721 40.7452 5.38175 41.3938C5.81541 42.8486 6.22016 44.3568 6.63936 45.8358C7.09486 47.6997 7.79657 49.4938 8.72574 51.1701C9.02369 51.6972 9.38453 52.1858 9.80025 52.6249C9.93422 52.7556 10.0957 52.8544 10.2728 52.9138C10.4498 52.9732 10.6379 52.9917 10.8231 52.9679C11.0082 52.9442 11.1857 52.8788 11.3422 52.7766C11.4988 52.6744 11.6306 52.538 11.7276 52.3775C11.8129 52.2567 11.881 52.1245 11.93 51.9848C12.1227 51.3689 12.2962 50.753 12.4889 50.1372C12.7395 49.3273 12.9708 48.5126 13.2647 47.7125C13.3529 47.4943 13.4836 47.2961 13.6491 47.1295C13.8146 46.9629 14.0116 46.8314 14.2284 46.7426C14.387 46.6376 14.5804 46.6001 14.7665 46.6382C14.9525 46.6764 15.1159 46.7872 15.221 46.9463C15.6723 47.5092 16.011 48.1547 16.2184 48.8472C16.8496 50.5154 17.4471 52.1981 18.2325 53.7984C18.5903 54.6355 19.1917 55.3439 19.9575 55.8303C20.0935 55.9257 20.2526 55.9824 20.418 55.9944C20.5834 56.0063 20.7489 55.9731 20.8971 55.8982C21.4015 55.6394 21.8362 55.2617 22.1643 54.7974C22.8231 53.7438 23.3675 52.622 23.7881 51.4513C24.2941 50.2002 24.7518 48.9394 25.2867 47.6979C25.4417 47.3882 25.6378 47.1011 25.8697 46.8445C25.9492 46.7441 26.0583 46.6717 26.1812 46.6377C26.3042 46.6038 26.4347 46.6099 26.5539 46.6553C26.803 46.7221 27.0343 46.8437 27.231 47.0115C27.4276 47.1792 27.5848 47.3888 27.6911 47.6252C27.9368 48.226 28.1507 48.8395 28.3319 49.4631C28.5921 50.3069 28.8138 51.1749 29.074 52.0139C29.1286 52.2601 29.2591 52.4827 29.4469 52.6499C29.6346 52.8171 29.87 52.9203 30.1196 52.9449C30.4062 52.9708 30.6944 52.9177 30.9533 52.7912C31.2122 52.6648 31.432 52.4698 31.5892 52.2272C32.3269 51.1773 32.9276 50.0365 33.3768 48.8327C34.2634 46.4565 34.8657 43.9834 35.5596 41.5587C35.7058 40.8853 35.9825 40.2476 36.3739 39.682C36.6052 39.3814 36.5763 39.231 36.2534 39.0419C35.6866 38.7259 35.0208 38.6408 34.3935 38.8043C33.2159 39.0763 32.1284 39.6511 31.2374 40.4725C30.8471 40.8022 30.4954 41.1756 30.0714 41.583C30.1485 41.4035 30.1918 41.2823 30.2497 41.1708C30.5964 40.4864 31.0708 39.8755 31.647 39.3717C32.7602 38.3919 34.1093 37.7231 35.5596 37.4319C36.7064 37.1846 37.8724 37.0197 39.024 36.787C39.465 36.7021 39.8927 36.5586 40.2961 36.3602C40.4406 36.2976 40.5713 36.2067 40.6805 36.0927C40.7897 35.9787 40.8753 35.844 40.9322 35.6964C40.9892 35.5488 41.0164 35.3913 41.0122 35.233C41.0081 35.0747 40.9727 34.9189 40.908 34.7745C40.7978 34.4675 40.6522 34.1746 40.4744 33.9016ZM16.4256 34.0132C15.0015 35.1048 13.2624 35.699 11.4722 35.7056C10.5131 35.669 9.57232 35.4294 8.71129 35.0024C7.22203 34.3047 6.00635 33.1273 5.25648 31.6564C4.562 30.3135 4.37702 28.7621 4.73609 27.292C5.01074 26.1912 5.61786 25.3523 6.79837 25.1146C7.41645 24.9915 8.05426 25.0113 8.66361 25.1726C9.27296 25.3339 9.83792 25.6325 10.3158 26.0457C11.0694 26.7158 11.7421 27.4726 12.3203 28.3007C13.3799 29.7302 14.8056 30.8431 16.4449 31.5206C16.8111 31.6709 17.2062 31.8455 17.3025 32.3207C17.3435 32.4771 17.3487 32.6408 17.3178 32.7996C17.2869 32.9583 17.2208 33.1079 17.1243 33.2373C16.924 33.5268 16.6857 33.7878 16.416 34.0132H16.4256ZM23.8122 43.3336C23.6966 44.381 22.7907 44.7399 21.962 44.09C21.4616 43.6603 21.0407 43.1448 20.7188 42.5674L20.5261 42.2619C20.2321 42.6692 19.9816 43.0765 19.678 43.4402C19.4424 43.74 19.161 44.0002 18.8444 44.2113C18.7033 44.3201 18.5361 44.3896 18.3597 44.4127C18.1834 44.4358 18.0041 44.4117 17.8399 44.3429C17.6758 44.274 17.5325 44.1629 17.4247 44.0206C17.3168 43.8783 17.2481 43.7099 17.2255 43.5324C17.0929 42.9352 17.0929 42.3159 17.2255 41.7187C17.6287 39.5742 18.4651 37.5358 19.6828 35.7298C19.7594 35.6131 19.843 35.5014 19.9334 35.3952C19.9941 35.3032 20.0764 35.2277 20.1731 35.1755C20.2698 35.1233 20.3778 35.0959 20.4875 35.0959C20.5973 35.0959 20.7053 35.1233 20.802 35.1755C20.8986 35.2277 20.981 35.3032 21.0416 35.3952C21.3966 35.8566 21.7186 36.3428 22.0053 36.85C22.89 38.4219 23.4904 40.1393 23.7785 41.9224C23.853 42.3891 23.8643 42.8638 23.8122 43.3336ZM36.3064 29.9494C35.9065 32.2189 34.5092 33.7319 32.6011 34.8424C31.6409 35.3962 30.5564 35.695 29.4498 35.7104C27.6874 35.6796 25.9801 35.0871 24.5736 34.018C24.2943 33.7985 24.0504 33.5368 23.8508 33.2421C23.7563 33.1287 23.6888 32.9951 23.6535 32.8514C23.6183 32.7078 23.6161 32.5579 23.6473 32.4133C23.6784 32.2686 23.7421 32.1331 23.8333 32.017C23.9245 31.901 24.0409 31.8075 24.1736 31.7437C24.4588 31.5824 24.7533 31.4383 25.0554 31.3121C26.5636 30.585 27.8672 29.4897 28.8475 28.1261C29.3779 27.3726 29.9958 26.6856 30.6881 26.0797C31.1336 25.7043 31.6507 25.4246 32.2075 25.2578C32.7644 25.091 33.3492 25.0407 33.9261 25.1098C34.4516 25.1578 34.9499 25.3666 35.3539 25.7082C35.758 26.0498 36.0483 26.5078 36.186 27.0204C36.4854 27.9684 36.527 28.9798 36.3064 29.9494Z" fill="white"/>
</svg>
