<svg width="918" height="401" viewBox="0 0 918 401" fill="none" xmlns="http://www.w3.org/2000/svg">
<g clip-path="url(#clip0_795_51)">
<path d="M773.291 285.379C770.943 287.264 768.151 288.515 765.18 289.012C762.209 289.51 759.161 289.238 756.326 288.221C742.111 283.559 730.742 274.22 719.325 265.758C726.424 258.334 733.188 251.054 740.224 244.061C741.379 243.016 742.291 241.732 742.896 240.298C743.501 238.863 743.784 237.314 743.725 235.759C743.608 174.921 743.56 114.083 743.582 53.2442C743.502 51.8206 743.748 50.3975 744.302 49.0833C744.857 47.7691 745.704 46.5986 746.78 45.6607C753.319 39.4981 759.667 33.112 766.063 26.7898C766.979 25.7727 767.838 24.7068 768.638 23.5967C768.462 23.2774 768.27 22.9581 768.094 22.6228C758.66 29.4879 749.69 25.5604 740.911 21.8245C735.187 19.3978 729.718 16.3644 724.138 13.6024C715.024 9.06829 714.784 8.81284 707.94 16.093C694.301 30.6055 687.153 29.5837 670.683 22.4791C668.141 21.3935 665.694 20.0684 663.216 18.855C658.419 16.4762 653.51 14.0654 648.697 11.6866C647.894 11.1517 646.914 10.9478 645.963 11.1174C645.013 11.287 644.165 11.817 643.596 12.5966C641.054 15.3426 638.128 17.7215 635.601 20.5793C628.502 28.5619 619.931 30.1584 610.417 26.0553C600.903 21.9523 591.421 17.3064 581.939 12.7722C579.413 11.5748 577.622 11.5429 575.399 13.778C563.599 25.6402 551.574 37.3109 539.646 49.0613C538.83 49.8755 538.142 50.8335 537.119 52.0628L574.552 69.6246C573.081 70.7581 571.897 71.7161 570.65 72.5941C565.965 75.7872 565.006 80.2256 565.022 85.7974C565.229 148.062 565.118 210.231 565.245 272.448C565.334 274.273 565.003 276.095 564.28 277.774C563.557 279.454 562.46 280.946 561.072 282.138C553.989 288.748 547.193 295.661 540.285 302.462C539.358 303.372 538.494 304.362 537.599 305.336C540.653 307.651 543.163 309.87 545.962 311.61C555.779 317.773 565.389 324.383 575.671 329.667C585.153 334.552 594.235 332.269 601.831 324.622C605.14 321.285 608.674 318.236 611.856 314.692C613.951 312.393 615.438 312.457 618.076 314.149C626.108 319.53 634.43 324.465 643.005 328.933C652.902 333.85 662.193 331.759 669.836 323.696C674.105 319.194 678.231 314.532 682.468 309.886C685.154 311.786 686.657 312.999 688.304 313.957C696.651 318.827 704.758 324.175 713.473 328.326C722.187 332.477 730.806 330.274 737.841 323.409C750.431 311.137 762.967 298.822 775.45 286.465C776.354 285.451 777.198 284.385 777.976 283.272L777.113 282.586C775.849 283.496 774.554 284.422 773.291 285.379ZM636.401 73.9352C633.491 76.2342 632.819 79.0282 632.835 82.6044C632.931 145.731 632.835 208.858 632.979 271.985C633.095 273.745 632.801 275.508 632.122 277.137C631.442 278.765 630.395 280.215 629.061 281.372C619.611 290.089 610.385 299.046 601.047 307.89C600.474 308.348 599.858 308.749 599.208 309.088L598.505 308.497L611.712 287.742L582.515 267.881C589.822 260.234 596.458 253.034 603.414 246.153C604.621 245.067 605.574 243.728 606.204 242.233C606.834 240.737 607.126 239.121 607.059 237.5C606.942 177.896 606.915 118.292 606.979 58.6884V52.5577L641.534 68.6507C639.944 70.5258 638.229 72.2913 636.401 73.9352ZM709.187 68.97C702.471 73.3445 701.672 79.6987 701.704 87.2024C701.96 148.509 701.816 209.816 701.912 271.106C701.994 272.806 701.691 274.502 701.027 276.07C700.363 277.637 699.353 279.034 698.074 280.159C690.079 287.631 682.436 295.374 674.617 303.005C673.769 303.835 672.81 304.602 671.899 305.352L670.971 304.745L680.565 287.742L650.184 267.275C657.14 259.995 663.28 253.066 669.98 246.727C671.65 245.254 672.961 243.42 673.814 241.364C674.668 239.309 675.041 237.086 674.905 234.865C674.777 175.442 674.777 116.02 674.777 56.5969V50.7856L710.418 67.4853C710.085 68.044 709.664 68.5454 709.171 68.97H709.187Z" fill="white"/>
<path d="M543.803 276.199C543.003 275.864 542.667 275.704 542.315 275.577C533.217 272.384 532.817 271.857 532.817 262.469C532.817 211.38 532.817 160.238 532.817 109.043C532.817 106.872 532.642 104.716 532.498 101.747C525.75 105.403 519.706 103.663 513.693 101.156C505.139 97.5639 496.6 93.9717 488.205 89.9803C485.983 88.9426 484.832 89.1342 483.249 90.7307C476.996 97.0051 470.648 103.184 464.316 109.362C463.501 110.16 462.557 110.831 461.214 111.933V50.7856C463.149 51.488 464.684 52.0309 466.203 52.6056C473.575 55.4155 480.898 58.3212 488.301 61.0193C496.504 64.0208 503.46 61.6739 509.504 55.7029C521.8 43.5533 534.177 31.4676 546.489 19.334C547.592 18.2483 548.536 17.003 549.543 15.8376L548.679 15.0074C548.177 15.1895 547.703 15.4422 547.272 15.7577C541.068 22.0161 533.889 22.2396 526.214 19.1424C515.021 14.6242 503.828 10.1539 492.795 5.46013C490.492 4.48625 488.941 4.24677 486.942 6.1626C477.14 15.4863 467.163 24.5865 457.313 33.8943C446.12 44.5751 435.119 55.5273 423.734 66.0963C421.96 67.5985 420.562 69.4937 419.652 71.6307C418.741 73.7678 418.343 76.0877 418.489 78.4055C418.793 143.863 418.489 209.433 418.841 274.938C418.841 281.787 417.162 286.657 411.901 290.999C407.504 294.623 403.906 299.205 399.669 303.66C413.386 313.75 428.035 322.512 443.417 329.827C463.725 339.773 482.193 336.053 498.343 320.743C512.59 307.236 526.501 293.346 540.541 279.616C541.692 278.594 542.619 277.429 543.803 276.199ZM490.748 291.766C475.014 285.603 461.694 276.199 447.127 268.025C451.093 264.018 454.355 260.442 457.92 257.201C458.957 256.311 459.772 255.193 460.302 253.936C460.832 252.678 461.062 251.314 460.974 249.952C460.879 214.435 460.879 178.907 460.974 143.368V137.701C471.16 140.303 479.715 147.28 490.812 144.087L490.748 291.766Z" fill="white"/>
<path d="M903.242 287.455C901.965 286.335 900.953 284.947 900.279 283.39C899.604 281.833 899.284 280.146 899.34 278.45C899.468 228.149 899.468 177.843 899.34 127.531C899.34 110.528 899.052 93.5246 899.548 76.5376C899.695 74.6136 899.371 72.6827 898.605 70.9111C897.839 69.1396 896.654 67.5804 895.151 66.3677C881.9 54.1596 868.703 41.845 855.56 29.424C847.628 21.9097 839.847 14.2304 832.214 6.38612C829.72 3.83167 827.801 3.84764 824.651 5.18872C813.074 10.122 801.338 14.7679 789.617 19.2541C786.677 20.561 783.41 20.9462 780.247 20.359C777.083 19.7717 774.173 18.2396 771.9 15.9653C771.12 15.3488 770.279 14.8139 769.39 14.3688C769.359 14.9561 769.451 15.5434 769.66 16.0932C769.869 16.643 770.191 17.1432 770.605 17.5618C783.797 30.5735 796.956 43.6491 810.308 56.5011C812.58 58.8816 815.492 60.5573 818.694 61.3275C821.895 62.0977 825.252 61.9298 828.361 60.8437C834.005 59.0077 839.554 56.9162 845.134 54.8408C848.972 53.4198 852.745 51.8074 856.983 50.0512V111.518C855.384 110.097 854.392 109.203 853.417 108.324C847.389 102.417 841.328 96.5421 835.396 90.5551C834.773 89.6898 833.835 89.102 832.784 88.9171C831.732 88.7322 830.65 88.9648 829.768 89.5652C820.478 93.8599 811.011 97.7714 801.513 101.619C796.541 103.631 791.392 104.461 785.523 100.023V120.298C785.523 166.885 785.486 213.472 785.412 260.058C785.412 270.101 784.708 271.106 775.194 274.938C775.018 274.938 774.938 275.385 774.522 276.104C776.649 278.387 778.776 280.893 781.126 283.16C784.084 286.066 787.25 288.732 790.24 291.606C800.81 301.76 811.027 312.361 822.013 321.94C831.798 330.513 843.183 336.309 856.871 334.217C862.635 333.535 868.257 331.957 873.532 329.539C886.42 322.882 898.908 315.426 911.46 308.146C913.768 306.605 915.959 304.898 918.016 303.037C912.916 297.673 908.23 292.356 903.242 287.455ZM827.529 291.127V143.464C838.61 146.657 847.181 139.776 857.35 137.078V142.235C857.35 177.885 857.35 213.536 857.35 249.202C857.258 250.627 857.499 252.054 858.054 253.37C858.609 254.686 859.463 255.856 860.548 256.786C864.018 259.979 867.136 263.459 870.942 267.355C856.839 275.609 843.295 284.693 827.529 291.127Z" fill="white"/>
<path d="M417.738 376.429H412.701C412.053 375.202 411.064 374.186 409.854 373.504C408.643 372.821 407.261 372.501 405.873 372.582C400.789 372.582 397.111 376.174 397.111 381.794C397.111 387.414 400.789 391.038 405.873 391.038C407.89 391.153 409.872 390.476 411.396 389.151C412.92 387.827 413.865 385.96 414.028 383.949H404.434V380.612H418.521V383.805C418.119 386.858 416.609 389.657 414.278 391.672C411.947 393.688 408.957 394.78 405.873 394.742C404.12 394.803 402.373 394.511 400.735 393.884C399.098 393.256 397.604 392.306 396.342 391.089C395.08 389.873 394.077 388.415 393.391 386.803C392.706 385.191 392.353 383.457 392.353 381.706C392.353 379.955 392.706 378.221 393.391 376.609C394.077 374.997 395.08 373.539 396.342 372.323C397.604 371.106 399.098 370.156 400.735 369.528C402.373 368.901 404.12 368.609 405.873 368.67C408.416 368.561 410.928 369.25 413.057 370.642C415.186 372.035 416.823 374.059 417.738 376.429Z" fill="white"/>
<path d="M444.121 372.47H434.191V379.974H443.018V383.39H434.191V391.149H444.121V394.566H430.002V369.022H444.121V372.47Z" fill="white"/>
<path d="M477.621 369.053V394.598H473.431L460.815 375.551V394.598H456.626V369.053H460.815L473.431 388.068V369.053H477.621Z" fill="white"/>
<path d="M504.611 372.47H494.682V379.974H503.508V383.39H494.682V391.149H504.611V394.566H490.492V369.022H504.611V372.47Z" fill="white"/>
<path d="M525.942 369.085C532.018 369.085 534.992 372.582 534.992 376.717C535.034 378.438 534.462 380.118 533.378 381.457C532.295 382.796 530.77 383.708 529.076 384.029L535.392 394.598H530.387L524.471 384.396H521.273V394.598H517.115V369.053L525.942 369.085ZM525.942 372.502H521.273V381.059H525.91C529.188 381.059 530.707 379.255 530.707 376.717C530.707 374.178 529.268 372.502 525.942 372.502Z" fill="white"/>
<path d="M563.118 389.393H552.421L550.582 394.598H546.217L555.363 369.053H560.16L569.306 394.598H564.893L563.118 389.393ZM557.794 374.114L553.604 385.977H561.951L557.794 374.114Z" fill="white"/>
<path d="M592.365 368.798C594.899 368.686 597.405 369.366 599.534 370.742C601.663 372.118 603.31 374.123 604.245 376.477H599.208C598.59 375.21 597.61 374.154 596.393 373.441C595.175 372.728 593.774 372.39 592.365 372.47C587.296 372.47 583.618 376.078 583.618 381.842C583.618 387.605 587.296 391.229 592.365 391.229C593.772 391.312 595.173 390.978 596.391 390.267C597.609 389.557 598.589 388.503 599.208 387.238H604.245C603.308 389.587 601.66 391.586 599.53 392.954C597.399 394.323 594.894 394.992 592.365 394.869C590.612 394.931 588.864 394.639 587.227 394.011C585.589 393.384 584.095 392.433 582.833 391.217C581.571 390 580.568 388.543 579.882 386.93C579.197 385.318 578.844 383.585 578.844 381.834C578.844 380.082 579.197 378.349 579.882 376.737C580.568 375.125 581.571 373.667 582.833 372.45C584.095 371.234 585.589 370.284 587.227 369.656C588.864 369.029 590.612 368.737 592.365 368.798Z" fill="white"/>
<path d="M616.493 369.085H620.683V394.63H616.493V369.085Z" fill="white"/>
<path d="M645.211 394.853C642.623 394.86 640.091 394.099 637.936 392.668C635.781 391.237 634.099 389.199 633.104 386.814C632.11 384.428 631.846 381.801 632.347 379.266C632.848 376.73 634.091 374.4 635.919 372.571C637.747 370.741 640.078 369.494 642.616 368.987C645.154 368.481 647.786 368.738 650.177 369.725C652.569 370.713 654.614 372.387 656.053 374.535C657.491 376.683 658.259 379.209 658.259 381.794C658.298 383.517 657.988 385.23 657.347 386.83C656.705 388.43 655.746 389.884 654.527 391.104C653.308 392.324 651.854 393.285 650.253 393.93C648.652 394.574 646.937 394.888 645.211 394.853ZM645.211 391.229C650.28 391.229 653.958 387.557 653.958 381.794C653.958 376.03 650.28 372.422 645.211 372.422C640.143 372.422 636.465 376.03 636.465 381.794C636.465 387.557 640.143 391.229 645.211 391.229ZM649.001 360.049V363.625L640.878 367.617V364.535L649.001 360.049Z" fill="white"/>
<path d="M690.766 369.053V394.598H686.577L673.961 375.551V394.598H669.771V369.053H673.961L686.577 388.068V369.053H690.766Z" fill="white"/>
<path d="M720.523 369.085H725.049L734.019 389.09L742.957 369.085H747.451V394.63H743.261V377.132L735.538 394.598H732.628L724.809 377.132V394.598H720.603L720.523 369.085Z" fill="white"/>
<path d="M775.722 389.393H765.024L763.186 394.598H758.82L767.967 369.053H772.764L781.91 394.598H777.497L775.722 389.393ZM770.397 374.114L766.208 385.977H774.554L770.397 374.114Z" fill="white"/>
<path d="M797.5 369.085V391.229H806.15V394.598H793.358V369.053L797.5 369.085Z" fill="white"/>
<path d="M838.913 381.937C838.913 389.792 833.541 394.598 825.338 394.598H816.991V369.053H825.338C833.541 369.085 838.913 374.051 838.913 381.937ZM825.338 391.149C831.366 391.149 834.612 387.701 834.612 381.906C834.612 376.11 831.414 372.47 825.338 372.47H821.181V391.149H825.338Z" fill="white"/>
<path d="M850.427 369.085H854.616V394.63H850.427V369.085Z" fill="white"/>
<path d="M866.16 369.085H884.005V372.502H877.193V394.598H873.052V372.502H866.208L866.16 369.085Z" fill="white"/>
<path d="M910.997 389.393H900.236L898.397 394.598H894.016L903.178 369.053H907.975L917.137 394.598H912.724L910.997 389.393ZM905.656 374.114L901.467 385.977H909.83L905.656 374.114Z" fill="white"/>
<path d="M165.304 200.444C164.824 198.161 162.906 197.251 161.115 196.596C153.109 193.314 146.142 187.929 140.951 181.014C138.112 177.013 134.812 173.358 131.118 170.126C128.788 168.124 126.032 166.679 123.059 165.899C120.086 165.118 116.975 165.025 113.96 165.624C108.204 166.741 105.262 170.813 103.919 176.145C102.185 183.224 103.088 190.692 106.461 197.155C110.109 204.275 116.036 209.972 123.299 213.344C127.496 215.414 132.084 216.573 136.762 216.745C145.495 216.707 153.978 213.826 160.923 208.539C162.228 207.485 163.384 206.261 164.361 204.898C164.845 204.275 165.181 203.551 165.344 202.779C165.508 202.008 165.494 201.21 165.304 200.444Z" fill="white"/>
<path d="M188.298 222.444C186.872 219.944 185.269 217.548 183.501 215.276C183.212 214.821 182.813 214.446 182.341 214.186C181.869 213.927 181.338 213.79 180.799 213.79C180.259 213.79 179.729 213.927 179.256 214.186C178.784 214.446 178.385 214.821 178.096 215.276C177.665 215.787 177.249 216.33 176.865 216.872C170.953 225.62 166.909 235.489 164.985 245.865C164.289 248.748 164.256 251.75 164.889 254.646C165.896 258.574 169.35 260.106 172.788 257.919C174.322 256.885 175.691 255.626 176.849 254.183C178.32 252.427 179.551 250.463 180.959 248.468L181.902 249.968C183.489 252.761 185.557 255.252 188.01 257.328C192.072 260.521 196.469 258.733 197.06 253.656C197.303 251.441 197.265 249.205 196.948 246.999C195.546 238.367 192.617 230.052 188.298 222.444Z" fill="white"/>
<path d="M378.099 169.791L207.454 2.33105C206.352 1.22869 204.948 0.477351 203.419 0.172094C201.889 -0.133163 200.304 0.021382 198.862 0.616175C197.421 1.21097 196.189 2.21928 195.322 3.51352C194.454 4.80776 193.991 6.32977 193.99 7.88696C194.07 36.0657 181.198 83.5145 99.3138 104.237C66.8365 112.253 38.2821 131.56 18.7723 158.695C4.79711 178.476 -4.79687 202.839 2.55852 228.99L172.516 398.685C173.622 399.786 175.031 400.534 176.563 400.834C178.096 401.134 179.683 400.973 181.124 400.371C182.565 399.769 183.794 398.753 184.656 397.452C185.517 396.152 185.972 394.625 185.963 393.065C185.644 364.903 198.148 317.374 279.713 295.901C312.14 287.591 340.548 268.033 359.854 240.725C373.798 220.736 385.886 195.99 378.099 169.791ZM249.044 97.9471C251.139 94.7541 254.113 92.7903 258.142 93.5088C261.644 94.1314 264.89 98.027 265.482 101.859C265.851 104.114 265.642 106.427 264.874 108.58C263.147 113.37 260.94 117.84 256.767 120.985C254.444 122.822 251.629 123.932 248.676 124.178C242.76 124.178 239.514 119.772 241.225 114.791C241.644 113.678 242.262 112.65 243.048 111.757C244.846 109.466 246.099 106.796 246.709 103.95C247.159 101.857 247.947 99.8506 249.044 98.011V97.9471ZM277.426 220.018C275.465 220.991 273.376 221.684 271.222 222.077C265.609 223.227 259.933 224.009 254.321 225.27C247.251 226.704 240.677 229.951 235.245 234.69C232.446 237.142 230.135 240.1 228.433 243.407C228.161 243.95 227.937 244.524 227.553 245.402C229.632 243.439 231.359 241.635 233.246 240.038C237.594 236.072 242.891 233.29 248.628 231.96C251.692 231.171 254.941 231.583 257.71 233.109C259.309 234.035 259.421 234.706 258.286 236.206C256.389 238.948 255.047 242.034 254.337 245.291C250.947 257.057 247.941 268.967 243.687 280.414C241.489 286.209 238.555 291.698 234.957 296.747C234.19 297.919 233.118 298.861 231.856 299.471C230.594 300.082 229.19 300.338 227.793 300.211C226.579 300.09 225.435 299.589 224.522 298.781C223.609 297.973 222.975 296.898 222.708 295.709C221.317 291.654 220.358 287.455 219.095 283.368C218.185 280.387 217.117 277.456 215.897 274.587C215.385 273.426 214.619 272.393 213.657 271.564C212.694 270.736 211.558 270.132 210.332 269.797C209.754 269.578 209.12 269.55 208.525 269.717C207.929 269.883 207.402 270.236 207.022 270.723C205.884 271.959 204.921 273.345 204.16 274.842C201.634 280.861 199.363 286.96 196.869 292.995C194.788 298.66 192.107 304.087 188.874 309.184C187.266 311.416 185.144 313.229 182.686 314.468C181.964 314.829 181.158 314.989 180.353 314.93C179.548 314.871 178.774 314.595 178.112 314.133C174.377 311.783 171.439 308.36 169.686 304.314C165.848 296.555 162.954 288.349 159.884 280.366C158.893 277.016 157.265 273.888 155.087 271.154C154.573 270.399 153.784 269.874 152.887 269.692C151.991 269.51 151.058 269.685 150.29 270.181C149.254 270.621 148.316 271.26 147.528 272.063C146.741 272.866 146.12 273.816 145.701 274.858C144.326 278.738 143.126 282.665 141.895 286.609C140.968 289.578 140.12 292.564 139.193 295.533C138.956 296.211 138.622 296.851 138.201 297.433C137.73 298.24 137.078 298.927 136.297 299.441C135.516 299.955 134.626 300.282 133.697 300.396C132.769 300.511 131.826 300.409 130.944 300.1C130.061 299.791 129.261 299.283 128.607 298.615C126.576 296.49 124.819 294.119 123.379 291.558C118.582 283.575 115.752 274.715 113.209 265.79C111.162 258.622 109.18 251.421 107.085 244.301C106.363 241.169 104.966 238.233 102.992 235.696C102.288 234.865 102.544 234.099 103.679 233.301C105.882 231.929 108.493 231.365 111.066 231.704C116.084 232.276 120.844 234.227 124.818 237.34C127.648 239.447 130.19 241.938 132.813 244.285C133.149 244.572 133.356 245.003 133.788 245.227C132.799 242.316 131.209 239.645 129.119 237.388C123.039 230.967 115.06 226.659 106.349 225.095C101.073 224.009 95.7161 223.291 90.3594 222.221C88.2526 221.827 86.2087 221.15 84.2832 220.209C83.5634 219.897 82.9145 219.442 82.3759 218.871C81.8372 218.301 81.42 217.628 81.1495 216.892C80.8789 216.156 80.7607 215.373 80.8018 214.591C80.843 213.808 81.0428 213.042 81.3891 212.338C81.8043 211.02 82.396 209.763 83.1479 208.603C85.3706 205.234 87.785 201.961 90.0396 198.608C91.1442 197.087 92.0772 195.449 92.8219 193.723C93.0987 192.54 93.1422 191.314 92.9498 190.115C91.9462 169.864 98.4851 149.959 111.306 134.236C124.722 117.648 142.311 107.878 163.242 104.381C166.983 103.758 170.805 103.663 174.579 103.295C175.288 103.234 175.986 103.084 176.657 102.848C186.473 99.3864 194.602 92.3259 199.395 83.0994C202.96 76.4582 205.992 69.5448 208.461 62.4244C209.72 58.1706 211.795 54.2016 214.57 50.7378C215.93 49.1696 217.434 47.7317 219.063 46.4431C225.091 41.8132 232.798 44.0164 235.692 51.0731C237.963 56.613 237.051 61.9294 234.957 67.2778C233.23 71.7002 231.759 76.2184 230.16 80.7206C229.866 81.6871 229.747 82.698 229.808 83.7061C229.844 84.7856 230.291 85.8108 231.057 86.573C231.824 87.3353 232.852 87.7773 233.933 87.8092C235.54 87.9035 237.141 88.0794 238.73 88.336C242.824 89.1662 244.391 92.2316 242.84 96.1271C241.817 98.4017 240.361 100.457 238.554 102.178C233.983 106.682 229.938 111.69 226.498 117.105C224.461 120.364 223.056 123.977 222.357 127.754C221.365 134.14 223.588 138.228 228.753 140.255C231.508 141.142 234.472 141.142 237.227 140.255C242.712 138.914 247.301 135.865 251.762 132.576L262.651 124.593C265.01 122.899 267.923 122.157 270.806 122.518C272.573 122.69 274.215 123.503 275.421 124.804C276.626 126.105 277.311 127.802 277.346 129.574C277.564 132.069 277.059 134.574 275.891 136.791C274.292 139.824 272.437 142.762 270.694 145.731C268.839 148.924 266.921 152.117 265.146 155.31C264.69 156.157 264.425 157.093 264.37 158.053C264.315 159.013 264.47 159.973 264.826 160.866C268.085 170.783 269.404 181.233 268.712 191.647C268.578 193.238 269.033 194.823 269.991 196.102C272.789 200.013 275.555 203.941 278.21 207.932C279.113 209.304 279.838 210.784 280.368 212.338C280.702 213.037 280.89 213.796 280.922 214.569C280.954 215.342 280.828 216.114 280.553 216.837C280.278 217.561 279.86 218.221 279.322 218.779C278.785 219.336 278.14 219.78 277.426 220.082V220.018Z" fill="white"/>
<path d="M246.357 165.4C243.538 165.081 240.684 165.342 237.97 166.165C235.256 166.989 232.739 168.359 230.575 170.19C227.189 173.115 224.176 176.445 221.605 180.104C216.843 186.699 210.505 192.001 203.168 195.527C201.693 196.142 200.257 196.846 198.867 197.634C198.234 197.955 197.681 198.412 197.246 198.972C196.812 199.532 196.507 200.181 196.354 200.873C196.201 201.564 196.204 202.281 196.362 202.972C196.52 203.663 196.829 204.31 197.268 204.867C198.231 206.293 199.419 207.554 200.786 208.602C207.617 213.771 215.913 216.645 224.483 216.809C229.878 216.726 235.164 215.281 239.849 212.61C249.155 207.229 255.967 199.917 257.918 188.933C258.997 184.225 258.799 179.314 257.342 174.708C255.503 169.471 252.13 166.039 246.357 165.4Z" fill="white"/>
</g>
<defs>
<clipPath id="clip0_795_51">
<rect width="918" height="401" fill="white"/>
</clipPath>
</defs>
</svg>
