<svg width="23" height="23" viewBox="0 0 23 23" fill="none" xmlns="http://www.w3.org/2000/svg">
<path d="M6.40362 0H15.6778C19.2109 0 22.0814 2.87059 22.0814 6.40362V15.6778C22.0814 17.3762 21.4068 19.005 20.2059 20.2059C19.005 21.4068 17.3762 22.0814 15.6778 22.0814H6.40362C2.87059 22.0814 0 19.2109 0 15.6778V6.40362C0 4.70527 0.674665 3.07649 1.87558 1.87558C3.07649 0.674665 4.70527 0 6.40362 0ZM6.18281 2.20814C5.12866 2.20814 4.11769 2.6269 3.3723 3.3723C2.6269 4.11769 2.20814 5.12866 2.20814 6.18281V15.8986C2.20814 18.0957 3.9857 19.8733 6.18281 19.8733H15.8986C16.9528 19.8733 17.9638 19.4545 18.7092 18.7092C19.4545 17.9638 19.8733 16.9528 19.8733 15.8986V6.18281C19.8733 3.9857 18.0957 2.20814 15.8986 2.20814H6.18281ZM16.8371 3.86425C17.2031 3.86425 17.5542 4.00965 17.813 4.26847C18.0718 4.52729 18.2172 4.87832 18.2172 5.24434C18.2172 5.61037 18.0718 5.9614 17.813 6.22021C17.5542 6.47903 17.2031 6.62443 16.8371 6.62443C16.4711 6.62443 16.12 6.47903 15.8612 6.22021C15.6024 5.9614 15.457 5.61037 15.457 5.24434C15.457 4.87832 15.6024 4.52729 15.8612 4.26847C16.12 4.00965 16.4711 3.86425 16.8371 3.86425ZM11.0407 5.52036C12.5048 5.52036 13.9089 6.10197 14.9442 7.13724C15.9795 8.17251 16.5611 9.57663 16.5611 11.0407C16.5611 12.5048 15.9795 13.9089 14.9442 14.9442C13.9089 15.9795 12.5048 16.5611 11.0407 16.5611C9.57663 16.5611 8.17251 15.9795 7.13724 14.9442C6.10197 13.9089 5.52036 12.5048 5.52036 11.0407C5.52036 9.57663 6.10197 8.17251 7.13724 7.13724C8.17251 6.10197 9.57663 5.52036 11.0407 5.52036ZM11.0407 7.72851C10.1623 7.72851 9.31979 8.07747 8.69863 8.69863C8.07747 9.31979 7.72851 10.1623 7.72851 11.0407C7.72851 11.9192 8.07747 12.7617 8.69863 13.3828C9.31979 14.004 10.1623 14.3529 11.0407 14.3529C11.9192 14.3529 12.7617 14.004 13.3828 13.3828C14.004 12.7617 14.3529 11.9192 14.3529 11.0407C14.3529 10.1623 14.004 9.31979 13.3828 8.69863C12.7617 8.07747 11.9192 7.72851 11.0407 7.72851Z" fill="white"/>
</svg>
