<svg width="31" height="20" viewBox="0 0 31 20" fill="none" xmlns="http://www.w3.org/2000/svg">
<ellipse cx="10.5" cy="10.5" rx="9.5" ry="7.5" fill="#FD6163"/>
<path d="M30.8458 6.00706C29.8474 0.6644 24.5697 0 24.5697 0H0.933804C0.153648 0 0.0567741 1.04368 0.0567741 1.04368C0.0567741 1.04368 -0.0491412 10.6225 0.0283578 16.5054C0.240188 19.6756 3.36856 20 3.36856 20C3.36856 20 14.0466 19.9699 18.8244 19.9359C21.9735 19.3788 22.2899 16.5799 22.2576 15.0523C27.8789 15.3662 31.8443 11.3497 30.8458 6.00706ZM16.5576 10.599C14.9482 12.4993 11.3768 15.7991 11.3768 15.7991C11.3768 15.7991 11.2205 15.9547 10.9764 15.8292C10.8782 15.7546 10.8369 15.7115 10.8369 15.7115C10.2647 15.1347 6.48661 11.7238 5.62637 10.5402C4.71059 9.27805 4.28176 7.00889 5.50883 5.68794C6.73719 4.36699 9.39024 4.26759 11.1443 6.22025C11.1443 6.22025 13.1657 3.88962 15.6237 4.96076C18.083 6.03322 17.99 8.89877 16.5576 10.599ZM24.531 11.2242C23.3323 11.3759 22.3584 11.2608 22.3584 11.2608V3.83076H24.6446C24.6446 3.83076 27.1905 4.5514 27.1905 7.28093C27.1905 9.78289 25.9182 10.769 24.531 11.2242Z" fill="white"/>
</svg>
