<svg width="18" height="24" viewBox="0 0 18 24" fill="none" xmlns="http://www.w3.org/2000/svg">
<path d="M13.2493 9.59462C13.0908 9.4236 12.8918 9.31591 12.6772 9.2575C11.7991 8.98752 10.9095 8.91764 10.0475 8.90947C9.61732 8.9054 9.18716 8.91676 8.76805 8.92784L8.76158 8.92801C8.45386 8.93614 8.15207 8.94407 7.85358 8.94626C7.80953 8.83416 7.76497 8.72225 7.72043 8.6109C9.8991 8.38999 12.1189 8.37828 14.0099 9.26869C15.9078 10.8092 16.726 13.3275 17.2906 15.7857L17.2926 15.794L17.2947 15.8022C17.9343 18.2074 17.0699 21.0404 14.9135 22.3168L14.9065 22.321L14.8995 22.3254C12.8396 23.6377 10.2557 23.5734 7.70816 23.4194C5.3453 23.214 2.98137 21.8621 2.22952 19.6748C1.46051 17.3589 2.05942 14.793 3.04437 12.4819L3.04452 12.482L3.04929 12.4699C3.44956 11.4589 4.09301 10.593 4.77944 9.6693C4.94038 9.45272 5.10369 9.23295 5.26678 9.00739L5.4328 8.77778L5.32113 8.51737C4.83315 7.37942 4.30635 6.25706 3.78344 5.14298C3.61967 4.79406 3.45628 4.44595 3.29458 4.09843C2.9328 3.31328 2.41184 2.65602 1.89132 2.05528C1.75077 1.89306 1.61169 1.73641 1.47508 1.58254C1.43402 1.53629 1.39318 1.4903 1.35259 1.44447C2.27248 2.35296 3.08868 3.28443 3.58614 4.42256L3.59606 4.44525L3.60817 4.46685C4.12257 5.38423 4.56135 6.34308 5.00982 7.32309C5.04099 7.39121 5.07221 7.45942 5.1035 7.52774C5.58166 8.57157 6.07643 9.63527 6.67802 10.6472L6.78986 10.8353L7.00396 10.8808C9.03085 11.3111 11.1716 11.1709 13.1515 10.7909L13.645 10.6962L13.5478 10.2032C13.5037 9.97935 13.41 9.76803 13.2493 9.59462ZM5.27066 10.7944L4.89957 10.6479L4.67435 10.9772C3.24915 13.0612 2.3744 15.6195 2.57335 18.1976C2.7154 20.1671 4.24333 21.7392 5.97604 22.376C7.97025 23.121 10.1732 23.1098 12.1867 22.7381C14.2717 22.3545 16.4032 20.8039 16.7368 18.4962L16.7369 18.4962L16.7381 18.4864C17.0703 15.8169 16.1198 13.1952 14.7858 11.0152L14.5762 10.6726L14.1965 10.8035C11.3087 11.7984 8.09957 11.9112 5.27066 10.7944ZM13.142 20.3404L13.1421 20.3405L13.1505 20.3343C13.5402 20.052 13.8785 19.7269 14.1897 19.4095C14.2926 19.3045 14.3909 19.2023 14.4871 19.1022C14.5263 19.0614 14.5651 19.021 14.6038 18.9809C13.8589 20.2023 12.4578 21.0459 11.0259 21.1357C11.1186 21.1109 11.2137 21.0864 11.3117 21.0611C11.3881 21.0414 11.4662 21.0212 11.5461 21.0002C12.0559 20.8659 12.6286 20.6962 13.142 20.3404Z" fill="white" stroke="white"/>
</svg>
