<svg width="32" height="32" viewBox="0 0 32 32" fill="none" xmlns="http://www.w3.org/2000/svg">
<path d="M13.2399 17.32C13.3732 17.32 16.4665 17.4533 18.3065 17H18.3199C20.4399 16.48 23.3865 14.9867 24.1465 10.1067C24.1465 10.1067 25.8399 4 17.4399 4H10.2265C9.57322 4 9.01322 4.48 8.90655 5.12L5.83988 24.5333C5.77322 24.9333 6.09322 25.3067 6.49322 25.3067H11.0665L12.1865 18.2133C12.2665 17.7067 12.7065 17.32 13.2399 17.32Z" fill="white"/>
<path d="M25.3199 11.0533C24.2399 16.0267 20.8399 18.6533 15.4266 18.6533H13.4666L12.0932 27.3467C12.0399 27.6933 12.3066 28 12.6532 28H15.1866C15.6399 28 16.0399 27.6667 16.1066 27.2133C16.2132 26.68 16.7999 22.7867 16.9199 22.12C16.9866 21.6667 17.3866 21.3333 17.8399 21.3333H18.4266C22.1866 21.3333 25.1332 19.8 25.9999 15.3867C26.3466 13.6 26.1599 12.1333 25.3199 11.0533Z" fill="white"/>
</svg>
