<svg width="82" height="73" viewBox="0 0 82 73" fill="none" xmlns="http://www.w3.org/2000/svg">
<path d="M82 2.92C82 2.14557 81.6915 1.40285 81.1422 0.855248C80.593 0.307642 79.8481 0 79.0713 0C62.9344 0 46.3765 18.1441 37.1805 30.16C33.8962 29.1571 30.4219 28.9362 27.0365 29.5149C23.6511 30.0937 20.449 31.4559 17.6874 33.4923C14.9258 35.5287 12.6817 38.1825 11.1353 41.2405C9.58896 44.2984 8.78343 47.6754 8.78344 51.1C8.78344 62.3712 1.63019 67.4265 1.28973 67.66C0.770216 68.0098 0.376972 68.5166 0.16782 69.1058C-0.0413321 69.6949 -0.0553537 70.3355 0.127817 70.9332C0.310987 71.531 0.681684 72.0543 1.1854 72.4264C1.68911 72.7984 2.29926 72.9995 2.92612 73H30.7484C34.1832 73 37.5702 72.1969 40.6372 70.6551C43.7042 69.1133 46.3659 66.8758 48.4083 64.1224C50.4507 61.369 51.8171 58.1764 52.3975 54.801C52.978 51.4256 52.7564 47.9615 51.7506 44.6869C63.8057 35.5181 82 19.0092 82 2.92ZM30.7484 67.16H9.74624C12.2173 63.6597 14.6408 58.3708 14.6408 51.1C14.6408 47.9236 15.5855 44.8186 17.3554 42.1775C19.1253 39.5365 21.641 37.478 24.5843 36.2625C27.5276 35.047 30.7663 34.7289 33.8909 35.3486C37.0154 35.9683 39.8855 37.4978 42.1382 39.7439C44.3909 41.9899 45.925 44.8515 46.5466 47.9669C47.1681 51.0822 46.8491 54.3113 45.6299 57.2459C44.4108 60.1805 42.3462 62.6887 39.6973 64.4534C37.0485 66.2181 33.9342 67.16 30.7484 67.16ZM42.6168 32.6858C43.8713 31.0652 45.1025 29.5382 46.3106 28.105C49.2675 30.0968 51.8139 32.6357 53.8116 35.5839C52.3717 36.7859 50.8403 38.0135 49.2173 39.2667C47.5107 36.6307 45.2606 34.3873 42.6168 32.6858ZM58.2486 31.7076C56.0375 28.597 53.3145 25.882 50.1947 23.6776C61.8288 11.0741 70.6038 7.25255 75.7839 6.1904C74.7406 11.3588 70.8894 20.1079 58.2486 31.7076Z" fill="white"/>
</svg>
