<svg width="136" height="78" viewBox="0 0 136 78" fill="none" xmlns="http://www.w3.org/2000/svg">
<path d="M38.875 74V68.1875C38.875 60.4796 41.9369 53.0875 47.3872 47.6372C52.8375 42.1869 60.2296 39.125 67.9375 39.125M67.9375 39.125C75.6454 39.125 83.0375 42.1869 88.4878 47.6372C93.9381 53.0875 97 60.4796 97 68.1875V74M67.9375 39.125C72.5622 39.125 76.9975 37.2878 80.2677 34.0177C83.5378 30.7475 85.375 26.3122 85.375 21.6875C85.375 17.0628 83.5378 12.6275 80.2677 9.35733C76.9975 6.08716 72.5622 4.25 67.9375 4.25C63.3128 4.25 58.8775 6.08716 55.6073 9.35733C52.3372 12.6275 50.5 17.0628 50.5 21.6875C50.5 26.3122 52.3372 30.7475 55.6073 34.0177C58.8775 37.2878 63.3128 39.125 67.9375 39.125ZM4 74V68.1875C4 63.5628 5.83716 59.1275 9.10733 55.8573C12.3775 52.5872 16.8128 50.75 21.4375 50.75M21.4375 50.75C24.5206 50.75 27.4775 49.5252 29.6576 47.3451C31.8377 45.165 33.0625 42.2081 33.0625 39.125C33.0625 36.0419 31.8377 33.085 29.6576 30.9049C27.4775 28.7248 24.5206 27.5 21.4375 27.5C18.3544 27.5 15.3975 28.7248 13.2174 30.9049C11.0373 33.085 9.8125 36.0419 9.8125 39.125C9.8125 42.2081 11.0373 45.165 13.2174 47.3451C15.3975 49.5252 18.3544 50.75 21.4375 50.75ZM131.875 74V68.1875C131.875 63.5628 130.038 59.1275 126.768 55.8573C123.498 52.5872 119.062 50.75 114.438 50.75M114.438 50.75C117.521 50.75 120.478 49.5252 122.658 47.3451C124.838 45.165 126.063 42.2081 126.063 39.125C126.063 36.0419 124.838 33.085 122.658 30.9049C120.478 28.7248 117.521 27.5 114.438 27.5C111.354 27.5 108.397 28.7248 106.217 30.9049C104.037 33.085 102.812 36.0419 102.812 39.125C102.812 42.2081 104.037 45.165 106.217 47.3451C108.397 49.5252 111.354 50.75 114.438 50.75Z" stroke="white" stroke-width="7" stroke-linecap="round" stroke-linejoin="round"/>
</svg>
