<svg width="71" height="71" viewBox="0 0 71 71" fill="none" xmlns="http://www.w3.org/2000/svg">
<path d="M34.641 46.6669L24.3333 36.3594M34.641 46.6669C39.4404 44.8416 44.0447 42.5395 48.3846 39.7952M34.641 46.6669L34.641 63.8462C34.641 63.8462 45.0517 61.9564 48.3845 56.9745C52.0953 51.4084 48.3846 39.7952 48.3846 39.7952M24.3333 36.3594C26.1617 31.616 28.464 27.0691 31.2051 22.7878C35.2086 16.3867 40.7831 11.1163 47.3985 7.47792C54.0139 3.83949 61.4502 1.95402 69 2.00085C69 11.3464 66.32 27.7698 48.3846 39.7952M24.3333 36.3594L7.15377 36.3593C7.15377 36.3593 9.04352 25.9487 14.0256 22.6159C19.5917 18.9052 31.2051 22.6159 31.2051 22.6159M8.8718 51.8207C3.71795 56.1499 2 69 2 69C2 69 14.8503 67.2821 19.1795 62.1283C21.619 59.2422 21.5846 54.8099 18.8703 52.13C17.5347 50.8553 15.7755 50.1187 13.9302 50.0617C12.0849 50.0046 10.2835 50.631 8.8718 51.8207Z" stroke="#A5FFB3" stroke-width="4" stroke-linecap="round" stroke-linejoin="round"/>
</svg>
