<svg width="44" height="112" viewBox="0 0 44 112" fill="none" xmlns="http://www.w3.org/2000/svg">
<path d="M21.8128 0C24.1556 1.93829 26.545 3.90666 28.9262 5.88596C33.6639 9.82269 38.4181 13.743 43.1092 17.7344C43.649 18.2442 43.9688 18.9432 44.0007 19.6837C43.9203 36.4512 43.7904 53.2188 43.6112 69.9863C43.5672 71.5659 43.216 73.122 42.577 74.5683C37.3098 86.6327 31.9713 98.6917 26.6493 110.742C26.4902 111.098 26.2954 111.437 26.0074 112C24.6906 107.552 23.4424 103.339 22.2024 99.1318C19.706 90.6569 17.2342 82.1547 14.6994 73.6798C14.434 72.8726 13.9896 72.1353 13.3991 71.5228C11.5446 69.5681 9.55845 67.7309 7.71769 65.7817C7.18266 65.2422 6.81011 64.5641 6.64231 63.8243C5.64648 57.8344 4.74119 51.8282 3.79475 45.8301C2.8483 39.8321 1.87443 33.834 0.922498 27.836C0.612504 25.9223 0.23667 24.0086 0.00897481 22.0621C-0.0101714 21.7795 0.0277964 21.496 0.120628 21.2283C0.21346 20.9607 0.359267 20.7143 0.549408 20.5038C7.49913 13.7093 14.4653 6.93484 21.448 0.180434C21.5626 0.10716 21.6849 0.0466523 21.8128 0ZM9.24297 29.0416L8.67236 29.0635C8.64493 30.0066 8.45838 30.9772 8.62024 31.8903C9.02899 34.1922 9.66544 36.4585 10.0358 38.7659C10.1181 39.2771 9.54199 39.9387 9.17164 40.4636C8.86713 40.8955 8.07432 41.2509 8.10724 41.5981C8.18254 42.2459 8.50346 42.8406 9.0043 43.2603C10.5625 44.4714 12.406 44.9444 14.3757 45.0154C14.8146 45.0318 15.2453 45.3079 15.6815 45.4665C15.506 45.9121 15.4593 46.4972 15.1329 46.7788C13.4622 48.2414 11.9643 50.2015 9.28686 49.1627C8.57086 52.7167 8.87811 53.7254 11.4815 55.0869C12.834 55.7895 13.5088 56.7272 13.8188 58.1761C14.137 59.6798 14.7159 61.1287 15.1905 62.6022L15.6733 62.553C15.8023 61.7725 15.9736 60.9995 16.1863 60.2375C16.3591 59.7098 16.735 59.2451 17.0093 58.7502C17.4372 59.1029 17.9365 59.4009 18.2794 59.8219C18.7154 60.4166 19.1157 61.0364 19.4783 61.6782C19.9803 60.5354 20.0983 59.4747 20.3232 58.4359C20.4302 57.9438 20.7402 57.4981 20.9597 57.0334C21.3969 57.302 21.8075 57.6114 22.1859 57.9574C22.5566 58.4194 22.8922 58.9083 23.19 59.42L25.1432 62.3316C25.6919 60.9647 26.1034 59.8711 26.5972 58.8213C27.1458 57.6348 28.0539 57.5692 28.737 58.6874C29.1073 59.297 29.2692 60.0324 29.527 60.7104C29.6697 61.0877 29.8206 61.465 29.9687 61.8395C30.4844 61.2012 30.845 60.4527 31.0221 59.6524C31.3896 57.9031 32.3271 56.3239 33.6886 55.1607C34.2688 54.6454 34.7838 54.0615 35.2221 53.422C35.6563 52.8141 35.9752 52.1322 36.1631 51.4099C36.5938 49.4087 37.1562 47.6208 39.5456 47.1478C40.001 47.0576 40.6978 46.4999 40.7033 46.1472C40.7335 44.6518 40.5469 43.1537 40.429 41.6555C40.0012 41.9214 39.6422 42.2838 39.381 42.7135C38.1822 44.3757 37.0492 46.0898 35.7543 47.6755C34.3827 49.3376 32.6187 49.9281 30.479 49.2064C29.7081 48.933 28.8604 48.9139 28.0868 48.6596C25.8537 47.9215 23.0775 47.8231 22.9102 44.5124C22.9102 44.4577 22.773 44.4113 22.6962 44.362C18.8062 45.5075 18.0325 45.3298 17.6924 43.2111C20.8033 43.4544 20.8582 43.4544 21.9719 42.6643C22.3492 42.3917 22.7076 42.0939 23.0446 41.7731C25.4724 39.4958 27.8783 37.1939 30.3171 34.9385C31.9768 33.3993 32.9205 33.1615 34.8381 34.2878C36.4292 35.2201 37.8173 36.4995 39.2905 37.6313C39.5483 37.8309 39.776 38.0687 39.894 38.1781V25.3318L39.4222 25.2908C39.3064 25.6197 39.1497 25.9329 38.9558 26.223C38.5662 26.6768 38.1328 27.3165 37.6527 27.3986C37.3071 27.456 36.6377 26.7944 36.4484 26.3214C35.9698 25.1471 35.6024 23.9307 35.3511 22.6881C34.9917 20.8647 34.8491 19.0002 34.4595 17.1849C34.3251 16.5643 33.7298 16.0449 33.3457 15.479L32.8958 15.6977C32.8327 16.1324 32.7806 16.5698 32.701 17.0018C32.4267 18.4261 32.2155 19.8696 31.8369 21.2666C31.7189 21.6985 31.1566 22.0129 30.7944 22.382C30.4351 22.0211 29.9056 21.7231 29.7492 21.2884C29.4255 20.3917 29.2993 19.4267 29.0936 18.4917C28.8104 18.7289 28.6224 19.0599 28.5641 19.4239C28.309 20.6214 28.1636 21.8543 27.7686 23.0025C27.6067 23.4728 26.8002 24.1453 26.4929 24.0496C26.1975 23.9358 25.9314 23.7574 25.7144 23.5274C25.4974 23.2974 25.335 23.0218 25.2392 22.721C25.0472 21.8106 25.2804 20.8073 25.2118 19.8696C25.0664 17.8793 24.8414 15.8946 24.6412 13.8032C24.1693 13.959 24.0459 13.9973 23.9279 14.041C23.2915 14.2707 22.3203 14.8612 22.0926 14.6589C21.5869 14.1165 21.3056 13.4036 21.3053 12.6632C21.3053 11.4493 21.6757 10.2437 21.7799 9.02441C21.832 8.40383 21.651 7.76138 21.5769 7.12986L21.1243 7.10799C20.7896 7.46339 20.4302 7.80238 20.1229 8.17965C17.728 11.1049 17.2836 14.3773 17.953 18.0598C18.3233 20.0609 18.0298 22.207 17.8597 24.2738C17.8323 24.7795 17.0861 25.2334 16.6691 25.6981C16.1698 25.2552 15.5361 24.878 15.2069 24.3312C14.9128 23.774 14.7771 23.1472 14.8146 22.5187C14.8887 20.7526 15.0753 18.992 15.2206 17.2259C15.2837 16.4632 15.3496 15.7032 15.4154 14.9404C14.4333 16.8323 13.9478 18.8553 12.9464 20.5858C11.1029 23.8008 10.568 27.0021 12.0357 30.455C12.0549 30.4987 12.0878 30.5452 12.0823 30.5835C12.0055 31.0018 11.9259 31.42 11.8464 31.841C11.4404 31.6251 10.9219 31.5048 10.653 31.1767C10.1395 30.4945 9.66862 29.7814 9.24297 29.0416ZM35.0548 66.4788L34.5967 66.364C34.3964 66.5964 34.1769 66.8123 33.9986 67.0584C32.9562 68.4991 31.9686 69.9809 30.8685 71.3779C29.8919 72.6218 28.8933 72.537 28.0155 71.2466C27.7631 70.8776 27.5272 70.503 27.368 70.2597C26.5972 70.7491 25.7879 71.643 25.2721 71.4954C24.5671 71.2986 24.0843 70.3117 23.4341 69.5817C22.773 70.462 22.2764 71.7688 21.4535 72.0285C20.6798 72.2609 19.5633 71.3724 18.477 70.935C18.6306 72.5233 19.6456 73.6387 20.4631 74.858C20.707 75.2366 20.8738 75.6592 20.9542 76.1019C21.2285 77.5372 21.448 78.9834 21.6894 80.4269C22.0367 80.2522 22.3347 79.9937 22.5563 79.6751C22.8745 79.3251 23.2366 79.0162 23.5823 78.6881C23.7962 79.1447 24.1309 79.5821 24.205 80.0551C24.6576 82.5155 25.0691 84.976 25.4587 87.4364C25.6233 88.4753 26.139 88.7104 27.1047 88.3058C27.2034 87.6114 27.3379 86.9389 27.379 86.2664C27.571 83.9563 27.711 81.6434 27.9277 79.3361C27.9633 78.9561 28.309 78.6034 28.512 78.2425C28.797 78.5443 29.0482 78.8761 29.2609 79.2322C29.4063 79.5466 29.3597 79.9457 29.4392 80.2984C29.6176 81.0885 29.8206 81.8758 30.0153 82.6632L30.4186 82.6468C30.5969 82.1 30.8822 81.5778 30.9343 81.0283C31.2773 77.3404 31.9713 73.7864 34.3443 70.7655C34.6362 70.3541 34.8176 69.875 34.871 69.374C35.0054 68.4171 35.0054 67.4439 35.0548 66.4788Z" fill="#FF0000" fill-opacity="0.5"/>
<path d="M9.24232 29.0416C9.66658 29.7776 10.1356 30.487 10.6469 31.1658C10.9212 31.4939 11.4342 31.6142 11.8402 31.8302C11.9198 31.4091 11.9993 30.9909 12.0762 30.5726C12.0762 30.5343 12.0487 30.4878 12.0295 30.4441C10.5618 26.9913 11.0968 23.7899 12.9403 20.5749C13.9334 18.8444 14.4189 16.8214 15.4093 14.9296C15.3434 15.6923 15.2776 16.4523 15.2145 17.215C15.0691 18.9811 14.8826 20.7417 14.8085 22.5078C14.7706 23.1458 14.9112 23.7818 15.2145 24.3449C15.5437 24.8917 16.1774 25.2553 16.6767 25.7118C17.0937 25.2361 17.8261 24.7823 17.8673 24.2766C18.0374 22.2098 18.3309 20.0637 17.9606 18.0625C17.283 14.3773 17.7274 11.1049 20.1278 8.17696C20.435 7.79969 20.7944 7.4607 21.1236 7.10803L21.5817 7.13264C21.6558 7.76415 21.8369 8.40661 21.7847 9.02719C21.6805 10.2465 21.3211 11.4521 21.3102 12.6659C21.3105 13.4063 21.5917 14.1193 22.0975 14.6616C22.3252 14.8694 23.2963 14.2734 23.9328 14.0438C24.0507 14 24.1742 13.9618 24.646 13.8059C24.8463 15.8973 25.0712 17.8821 25.2166 19.8723C25.2852 20.821 25.052 21.8134 25.2441 22.7237C25.3394 23.0259 25.5019 23.3028 25.7194 23.5337C25.937 23.7647 26.2039 23.9438 26.5005 24.0578C26.8078 24.1535 27.6143 23.481 27.7761 23.0108C28.1712 21.8626 28.3248 20.6296 28.5717 19.4322C28.63 19.0681 28.818 18.7372 29.1012 18.4999C29.3069 19.4349 29.4331 20.4 29.7568 21.2967C29.9132 21.7286 30.4426 22.0266 30.802 22.3902C31.1641 22.0211 31.7265 21.7067 31.8445 21.2748C32.2231 19.8778 32.437 18.4343 32.7086 17.01C32.7882 16.5781 32.8403 16.1406 32.9034 15.706L33.3533 15.4873C33.7374 16.0532 34.3327 16.5808 34.4671 17.1932C34.8566 19.0084 34.9993 20.8729 35.3587 22.6964C35.61 23.9389 35.9773 25.1553 36.456 26.3297C36.6453 26.8026 37.3146 27.4642 37.6603 27.4068C38.1514 27.3221 38.5738 26.6851 38.9634 26.2312C39.1563 25.941 39.3121 25.6278 39.427 25.299L39.8988 25.34V38.1699C39.7809 38.066 39.5532 37.8282 39.2953 37.6232C37.8222 36.4914 36.434 35.2119 34.8429 34.2797C32.9226 33.1533 31.9816 33.3912 30.3219 34.9303C27.8831 37.1967 25.4772 39.4986 23.0494 41.7649C22.713 42.0828 22.3556 42.3778 21.9795 42.648C20.8657 43.4435 20.8109 43.4435 17.6999 43.1947C18.0374 45.3135 18.8137 45.4912 22.7065 44.3457C22.7806 44.3949 22.915 44.4414 22.9177 44.496C23.0851 47.8067 25.8613 47.9051 28.0944 48.6433C28.868 48.8975 29.7157 48.9167 30.4865 49.19C32.6263 49.9118 34.4012 49.3213 35.7619 47.6591C37.0568 46.0735 38.1898 44.3593 39.3886 42.6972C39.6498 42.2674 40.0087 41.905 40.4365 41.6392C40.5463 43.1373 40.7328 44.6464 40.7109 46.1309C40.7109 46.4835 40.0086 47.0412 39.5532 47.1315C37.1638 47.6044 36.6014 49.3924 36.1707 51.3935C35.9828 52.1158 35.6639 52.7977 35.2297 53.4056C34.7914 54.0452 34.2764 54.6291 33.6962 55.1444C32.3346 56.3076 31.3972 57.8867 31.0297 59.6361C30.8526 60.4363 30.492 61.1848 29.9763 61.8231C29.8281 61.4486 29.6773 61.0713 29.5346 60.694C29.2767 60.0161 29.1149 59.2807 28.7445 58.671C28.0614 57.5529 27.1644 57.6185 26.6047 58.805C26.1027 59.8712 25.7049 60.9647 25.1426 62.3316L23.1893 59.4228C22.8917 58.9101 22.5561 58.4203 22.1853 57.9575C21.8049 57.613 21.3924 57.3054 20.9535 57.0389C20.7341 57.5037 20.4241 57.9493 20.3171 58.4414C20.0921 59.4802 19.9742 60.541 19.4721 61.6837C19.1087 61.0419 18.7074 60.422 18.2706 59.8274C17.9276 59.4064 17.4284 59.1084 17.0004 58.7558C16.7261 59.2506 16.3557 59.7153 16.1774 60.243C15.9665 61.0051 15.7971 61.7781 15.6699 62.5585L15.1871 62.6077C14.7207 61.1342 14.1419 59.6853 13.8154 58.1817C13.5054 56.73 12.8306 55.795 11.4781 55.0924C8.86923 53.7255 8.56197 52.7249 9.28347 49.1682C11.9609 50.207 13.4588 48.2469 15.1295 46.7843C15.4504 46.5109 15.4971 45.9176 15.6781 45.472C15.2419 45.3135 14.8112 45.0373 14.3723 45.0209C12.4026 44.9499 10.5591 44.4742 9.0009 43.2658C8.50006 42.8461 8.17915 42.2514 8.10384 41.6036C8.07915 41.2564 8.86374 40.901 9.16825 40.4691C9.53859 39.9442 10.1147 39.2826 10.0324 38.7714C9.66204 36.464 9.02559 34.1977 8.61684 31.8958C8.45498 30.9854 8.64153 30.0122 8.66896 29.069L9.24232 29.0416ZM18.0401 48.8784C18.811 49.7888 19.4694 50.6499 20.2348 51.4099C20.4789 51.6532 20.9947 51.6259 21.387 51.7216C21.4501 51.3552 21.6942 50.8714 21.5461 50.6444C20.5365 49.108 19.5023 47.5771 18.3501 46.1473C17.8261 45.4939 17.1101 45.6196 16.7288 46.4562C16.1802 47.6974 15.6041 48.9385 15.1267 50.2125C15.0142 50.5132 15.2419 50.9452 15.3133 51.306C15.6754 51.194 16.1363 51.183 16.3777 50.9452C16.9593 50.3492 17.4393 49.6411 18.0401 48.8784ZM19.4776 39.8895C23.2744 36.9916 25.6199 32.8389 30.2451 31.1248C27.7597 30.3648 20.5393 36.3191 19.4776 39.8895ZM12.0844 39.8622L11.8265 40.2422L14.2818 41.7895L14.5561 41.3494L12.0844 39.8622Z" fill="#FF0000"/>
<path d="M35.0542 66.4788C35.0049 67.4439 35.0049 68.4171 34.8869 69.374C34.8335 69.875 34.6521 70.3541 34.3602 70.7655C31.9872 73.7727 31.2932 77.3267 30.9502 81.0283C30.8981 81.5751 30.6128 82.1082 30.4345 82.6468L30.0312 82.6632C29.8365 81.8758 29.6335 81.0885 29.4551 80.2984C29.3756 79.9457 29.4222 79.5466 29.2768 79.2322C29.0649 78.8763 28.8147 78.5444 28.5306 78.2426C28.3276 78.6062 27.982 78.9588 27.9463 79.3361C27.7241 81.6435 27.5842 83.9563 27.3977 86.2664C27.3428 86.9416 27.2084 87.6114 27.1233 88.3058C26.1604 88.7104 25.6447 88.4753 25.4773 87.4365C25.0878 84.976 24.6763 82.5155 24.2236 80.0551C24.1359 79.5767 23.8149 79.1392 23.6009 78.6882C23.2553 79.0162 22.8931 79.3252 22.5749 79.6751C22.3533 79.9938 22.0553 80.2522 21.708 80.4269C21.4666 78.9834 21.2471 77.5372 20.9728 76.102C20.8925 75.6593 20.7256 75.2366 20.4818 74.8581C19.6588 73.6388 18.6492 72.5234 18.4956 70.935C19.5929 71.3779 20.6903 72.2664 21.4721 72.0285C22.2951 71.777 22.7916 70.462 23.4528 69.5817C24.1029 70.3144 24.5858 71.3013 25.2908 71.4954C25.8065 71.6431 26.6158 70.7491 27.3867 70.2597C27.5458 70.503 27.7817 70.8776 28.0341 71.2466C28.912 72.537 29.9105 72.6136 30.8872 71.3779C31.9845 69.9809 32.9748 68.4991 34.0173 67.0584C34.1956 66.8124 34.4151 66.5964 34.6153 66.364L35.0542 66.4788Z" fill="#FF0000"/>
<path d="M18.0401 48.8783C17.4394 49.641 16.9593 50.3491 16.3722 50.9533C16.1418 51.1911 15.6699 51.2021 15.3078 51.3141C15.2365 50.9451 15.0088 50.5131 15.1213 50.2206C15.5986 48.9466 16.1637 47.7055 16.7234 46.4643C17.1047 45.6278 17.8207 45.502 18.3447 46.1554C19.4968 47.5852 20.5393 49.1161 21.5406 50.6526C21.6887 50.8795 21.4446 51.3634 21.3815 51.7297C20.9892 51.634 20.4735 51.6613 20.2293 51.418C19.4776 50.6498 18.811 49.7887 18.0401 48.8783Z" fill="#FF0000" fill-opacity="0.5"/>
<path d="M19.4775 39.8894C20.5337 36.319 27.7541 30.3647 30.245 31.1247C25.6253 32.8389 23.2798 36.9916 19.4775 39.8894Z" fill="#FF0000" fill-opacity="0.5"/>
<path d="M12.09 39.8622L14.5589 41.3494L14.2846 41.7895L11.8293 40.2422L12.09 39.8622Z" fill="#FF0000" fill-opacity="0.5"/>
</svg>
