<svg width="31" height="29" viewBox="0 0 31 29" fill="none" xmlns="http://www.w3.org/2000/svg">
<path d="M15.5 24.2198L8.41042 28.4907C8.09722 28.69 7.76979 28.7754 7.42812 28.7469C7.08646 28.7185 6.7875 28.6046 6.53125 28.4053C6.275 28.206 6.07569 27.9571 5.93333 27.6587C5.79097 27.3592 5.7625 27.0244 5.84791 26.6542L7.72708 18.5823L1.44896 13.1584C1.16423 12.9021 0.986568 12.61 0.915957 12.282C0.844207 11.9551 0.865276 11.6351 0.979165 11.3219C1.09305 11.0087 1.26389 10.7525 1.49166 10.5532C1.71944 10.3539 2.03264 10.2257 2.43125 10.1688L10.7167 9.44276L13.9198 1.84067C14.0622 1.49901 14.2831 1.24276 14.5826 1.07192C14.881 0.901091 15.1868 0.815674 15.5 0.815674C15.8132 0.815674 16.1196 0.901091 16.4191 1.07192C16.7175 1.24276 16.9378 1.49901 17.0802 1.84067L20.2833 9.44276L28.5687 10.1688C28.9674 10.2257 29.2806 10.3539 29.5083 10.5532C29.7361 10.7525 29.9069 11.0087 30.0208 11.3219C30.1347 11.6351 30.1564 11.9551 30.0857 12.282C30.014 12.61 29.8358 12.9021 29.551 13.1584L23.2729 18.5823L25.1521 26.6542C25.2375 27.0244 25.209 27.3592 25.0667 27.6587C24.9243 27.9571 24.725 28.206 24.4687 28.4053C24.2125 28.6046 23.9135 28.7185 23.5719 28.7469C23.2302 28.7754 22.9028 28.69 22.5896 28.4907L15.5 24.2198Z" fill="#FFDC60"/>
</svg>
