<svg width="71" height="64" viewBox="0 0 71 64" fill="none" xmlns="http://www.w3.org/2000/svg">
<path d="M35.5 8.66667C40.525 3.66667 44.679 2 50.575 2C55.4616 2 60.1481 3.93154 63.6034 7.36971C67.0588 10.8079 69 15.471 69 20.3333C69 27.9667 63.9415 33.8 58.95 38.6667L35.5 62L12.05 38.6667C7.025 33.8333 2 28 2 20.3333C2 15.471 3.9412 10.8079 7.39656 7.36971C10.8519 3.93154 15.5384 2 20.425 2C26.321 2 30.475 3.66667 35.5 8.66667ZM35.5 8.66667L25.584 18.5333C24.9033 19.2057 24.3631 20.0054 23.9945 20.8864C23.6259 21.7674 23.4361 22.7123 23.4361 23.6667C23.4361 24.621 23.6259 25.5659 23.9945 26.4469C24.3631 27.3279 24.9033 28.1276 25.584 28.8C28.331 31.5333 32.7195 31.6333 35.634 29.0333L42.5685 22.7C44.3067 21.1306 46.5697 20.2613 48.9167 20.2613C51.2638 20.2613 53.5268 21.1306 55.265 22.7L65.181 31.5667M55.6 42L48.9 35.3333M45.55 52L38.85 45.3333" stroke="#A5FFB3" stroke-width="4" stroke-linecap="round" stroke-linejoin="round"/>
</svg>
