<svg width="20" height="24" viewBox="0 0 20 24" fill="none" xmlns="http://www.w3.org/2000/svg">
<path d="M15.7502 4.275C14.8957 3.29953 14.4248 2.04679 14.4252 0.75H10.5627V16.25C10.5329 17.0888 10.1788 17.8833 9.5749 18.4662C8.97102 19.0491 8.16451 19.3749 7.3252 19.375C5.5502 19.375 4.0752 17.925 4.0752 16.125C4.0752 13.975 6.1502 12.3625 8.2877 13.025V9.075C3.9752 8.5 0.200195 11.85 0.200195 16.125C0.200195 20.2875 3.6502 23.25 7.3127 23.25C11.2377 23.25 14.4252 20.0625 14.4252 16.125V8.2625C15.9914 9.38731 17.8719 9.99081 19.8002 9.9875V6.125C19.8002 6.125 17.4502 6.2375 15.7502 4.275Z" fill="white"/>
</svg>
