<svg width="25" height="20" viewBox="0 0 25 20" fill="none" xmlns="http://www.w3.org/2000/svg">
<path d="M25 2.45879C24.0682 2.86369 23.0822 3.13044 22.0733 3.25062C23.1336 2.62977 23.9309 1.64345 24.3158 0.476637C23.3134 1.06279 22.2185 1.47407 21.0781 1.69284C20.5979 1.18956 20.0204 0.789178 19.3806 0.516045C18.7408 0.242911 18.0522 0.102727 17.3565 0.104013C14.5401 0.104013 12.2609 2.35011 12.2609 5.11892C12.2589 5.50405 12.303 5.88803 12.3924 6.26267C10.3728 6.16799 8.3952 5.6528 6.58613 4.75005C4.77707 3.8473 3.17636 2.57687 1.88642 1.02005C1.43387 1.78295 1.19454 2.65341 1.19344 3.54044C1.19344 5.27935 2.10068 6.81643 3.47059 7.71694C2.65895 7.69768 1.86395 7.48286 1.15307 7.09072V7.15282C1.15307 9.58523 2.91269 11.6088 5.24159 12.0694C4.80364 12.1861 4.35235 12.2453 3.89911 12.2454C3.5775 12.2459 3.25662 12.2147 2.94115 12.1522C3.58859 14.1447 5.47293 15.5938 7.70505 15.6352C5.89129 17.033 3.66447 17.7885 1.37458 17.783C0.968114 17.7824 0.56203 17.7582 0.158371 17.7105C2.48788 19.198 5.19576 19.9848 7.95968 19.9773C17.3457 19.9773 22.4734 12.3333 22.4734 5.70373C22.4734 5.48637 22.4677 5.269 22.4574 5.05681C23.4526 4.34886 24.3136 3.46908 25 2.45879Z" fill="white"/>
</svg>
