<svg width="23" height="18" viewBox="0 0 23 18" fill="none" xmlns="http://www.w3.org/2000/svg">
<path d="M22.1561 2.96623C22.6606 4.93368 22.6606 9.04083 22.6606 9.04083C22.6606 9.04083 22.6606 13.148 22.1561 15.1154C21.8756 16.203 21.0553 17.0586 20.0164 17.3479C18.1295 17.8734 11.6199 17.8734 11.6199 17.8734C11.6199 17.8734 5.11362 17.8734 3.22345 17.3479C2.1801 17.0542 1.36088 16.1996 1.08375 15.1154C0.579193 13.148 0.579193 9.04083 0.579193 9.04083C0.579193 9.04083 0.579193 4.93368 1.08375 2.96623C1.36419 1.87871 2.18451 1.02306 3.22345 0.73379C5.11362 0.208252 11.6199 0.208252 11.6199 0.208252C11.6199 0.208252 18.1295 0.208252 20.0164 0.73379C21.0597 1.02747 21.879 1.88203 22.1561 2.96623ZM9.41177 12.9051L16.0362 9.04083L9.41177 5.17658V12.9051Z" fill="white"/>
</svg>
