<svg width="289" height="257" viewBox="0 0 289 257" fill="none" xmlns="http://www.w3.org/2000/svg">
<rect x="0.5" y="0.5" width="288" height="256" fill="white" stroke="#0A0909"/>
<rect x="9" y="33" width="271" height="214" fill="#0A0909"/>
<path d="M280 8.71214L278.288 7L271.5 13.7879L264.712 7L263 8.71214L269.788 15.5L263 22.2879L264.712 24L271.5 17.2121L278.288 24L280 22.2879L273.212 15.5L280 8.71214Z" fill="#0A0909"/>
<path d="M19.7912 24.26C18.3245 24.26 17.0912 23.9533 16.0912 23.34C15.0912 22.7267 14.3978 21.9 14.0112 20.86L16.1312 19.76C16.4245 20.4933 16.8778 21.0667 17.4912 21.48C18.1178 21.88 18.9045 22.08 19.8512 22.08C20.4512 22.08 20.9712 21.98 21.4112 21.78C21.8512 21.58 22.1845 21.3267 22.4112 21.02C22.6378 20.7133 22.7512 20.3933 22.7512 20.06C22.7512 19.6867 22.6178 19.3733 22.3512 19.12C22.0978 18.8533 21.7312 18.6333 21.2512 18.46C20.7712 18.2733 20.0978 18.06 19.2312 17.82C18.2578 17.54 17.4512 17.2533 16.8112 16.96C16.1712 16.6667 15.6445 16.26 15.2312 15.74C14.8312 15.22 14.6312 14.56 14.6312 13.76C14.6312 12.9467 14.8512 12.24 15.2912 11.64C15.7312 11.0267 16.3178 10.56 17.0512 10.24C17.7845 9.90667 18.5845 9.74 19.4512 9.74C20.6645 9.74 21.7112 10.0133 22.5912 10.56C23.4845 11.1067 24.1712 11.8533 24.6512 12.8L22.4912 13.88C21.9045 12.5867 20.8912 11.94 19.4512 11.94C18.6912 11.94 18.0778 12.1267 17.6112 12.5C17.1578 12.86 16.9312 13.2867 16.9312 13.78C16.9312 14.1533 17.0312 14.4533 17.2312 14.68C17.4312 14.8933 17.7045 15.0733 18.0512 15.22C18.4112 15.3533 18.9712 15.5333 19.7312 15.76C19.7978 15.7867 19.9445 15.8333 20.1712 15.9C21.2245 16.2067 22.0845 16.5133 22.7512 16.82C23.4178 17.1133 23.9712 17.5267 24.4112 18.06C24.8645 18.5933 25.0912 19.28 25.0912 20.12C25.0912 20.9333 24.8578 21.6533 24.3912 22.28C23.9378 22.9067 23.3112 23.3933 22.5112 23.74C21.7112 24.0867 20.8045 24.26 19.7912 24.26ZM31.6168 24.26C30.6701 24.26 29.7901 24.0267 28.9768 23.56C28.1768 23.08 27.5435 22.44 27.0768 21.64C26.6101 20.8267 26.3768 19.9467 26.3768 19C26.3768 18.0533 26.6101 17.18 27.0768 16.38C27.5435 15.58 28.1768 14.9467 28.9768 14.48C29.7901 14 30.6701 13.76 31.6168 13.76C32.5635 13.76 33.4368 14 34.2368 14.48C35.0501 14.9467 35.6901 15.58 36.1568 16.38C36.6235 17.18 36.8568 18.0533 36.8568 19C36.8568 19.9467 36.6235 20.8267 36.1568 21.64C35.6901 22.44 35.0501 23.08 34.2368 23.56C33.4368 24.0267 32.5635 24.26 31.6168 24.26ZM31.6168 22.16C32.1901 22.16 32.7168 22.02 33.1968 21.74C33.6768 21.4467 34.0568 21.06 34.3368 20.58C34.6168 20.1 34.7568 19.5733 34.7568 19C34.7568 18.4267 34.6168 17.9 34.3368 17.42C34.0568 16.94 33.6768 16.56 33.1968 16.28C32.7168 16 32.1901 15.86 31.6168 15.86C31.0435 15.86 30.5168 16 30.0368 16.28C29.5568 16.56 29.1701 16.94 28.8768 17.42C28.5968 17.9 28.4568 18.4267 28.4568 19C28.4568 19.5733 28.5968 20.1 28.8768 20.58C29.1701 21.06 29.5568 21.4467 30.0368 21.74C30.5168 22.02 31.0435 22.16 31.6168 22.16ZM43.9285 13.76C44.9152 13.76 45.7818 13.9933 46.5285 14.46C47.2752 14.9133 47.8485 15.54 48.2485 16.34C48.6618 17.14 48.8685 18.0333 48.8685 19.02C48.8685 20.0067 48.6618 20.9 48.2485 21.7C47.8485 22.4867 47.2752 23.1133 46.5285 23.58C45.7818 24.0333 44.9152 24.26 43.9285 24.26C43.2352 24.26 42.6152 24.1133 42.0685 23.82C41.5218 23.5267 41.0618 23.1267 40.6885 22.62V24H38.5885V10H40.6885V15.4C41.0618 14.8933 41.5218 14.4933 42.0685 14.2C42.6152 13.9067 43.2352 13.76 43.9285 13.76ZM43.8685 22.3C44.4418 22.3 44.9485 22.1533 45.3885 21.86C45.8418 21.5667 46.1885 21.1733 46.4285 20.68C46.6818 20.1733 46.8085 19.62 46.8085 19.02C46.8085 18.42 46.6818 17.8733 46.4285 17.38C46.1885 16.8733 45.8418 16.4733 45.3885 16.18C44.9485 15.8867 44.4418 15.74 43.8685 15.74C43.2685 15.74 42.7285 15.88 42.2485 16.16C41.7685 16.44 41.3885 16.8333 41.1085 17.34C40.8418 17.8333 40.7085 18.3867 40.7085 19C40.7085 19.6133 40.8418 20.1733 41.1085 20.68C41.3885 21.1867 41.7685 21.5867 42.2485 21.88C42.7285 22.16 43.2685 22.3 43.8685 22.3ZM56.4137 14L56.2537 16C56.1737 15.9733 56.0403 15.96 55.8537 15.96C55.0003 15.96 54.2937 16.1933 53.7337 16.66C53.187 17.1267 52.9137 17.8067 52.9137 18.7V24H50.8137V14H52.9137V15.82C53.1403 15.3 53.527 14.8667 54.0737 14.52C54.6337 14.1733 55.3003 14 56.0737 14H56.4137ZM62.3199 13.74C63.2933 13.74 64.1599 13.98 64.9199 14.46C65.6799 14.9267 66.2733 15.5667 66.6999 16.38C67.1266 17.18 67.3399 18.06 67.3399 19.02C67.3399 19.18 67.3133 19.4333 67.2599 19.78H59.1799C59.3266 20.5533 59.6999 21.1867 60.2999 21.68C60.8999 22.1733 61.6399 22.42 62.5199 22.42C63.0666 22.42 63.5866 22.3 64.0799 22.06C64.5866 21.82 64.9599 21.5067 65.1999 21.12L66.8399 22.08C66.3866 22.7733 65.7866 23.3133 65.0399 23.7C64.2933 24.0733 63.4399 24.26 62.4799 24.26C61.4133 24.26 60.4666 24.0333 59.6399 23.58C58.8266 23.1267 58.1933 22.5 57.7399 21.7C57.2999 20.9 57.0799 20 57.0799 19C57.0799 18.0133 57.2999 17.12 57.7399 16.32C58.1933 15.52 58.8133 14.8933 59.5999 14.44C60.3999 13.9733 61.3066 13.74 62.3199 13.74ZM65.3399 18.12C65.2466 17.3333 64.9266 16.7133 64.3799 16.26C63.8333 15.8067 63.1399 15.58 62.2999 15.58C61.7266 15.58 61.1999 15.7 60.7199 15.94C60.2399 16.1667 59.8599 16.48 59.5799 16.88C59.2999 17.2667 59.1599 17.68 59.1599 18.12H65.3399ZM79.5855 13.74C80.5589 13.74 81.4255 13.98 82.1855 14.46C82.9455 14.9267 83.5389 15.5667 83.9655 16.38C84.3922 17.18 84.6055 18.06 84.6055 19.02C84.6055 19.18 84.5789 19.4333 84.5255 19.78H76.4455C76.5922 20.5533 76.9655 21.1867 77.5655 21.68C78.1655 22.1733 78.9055 22.42 79.7855 22.42C80.3322 22.42 80.8522 22.3 81.3455 22.06C81.8522 21.82 82.2255 21.5067 82.4655 21.12L84.1055 22.08C83.6522 22.7733 83.0522 23.3133 82.3055 23.7C81.5589 24.0733 80.7055 24.26 79.7455 24.26C78.6789 24.26 77.7322 24.0333 76.9055 23.58C76.0922 23.1267 75.4589 22.5 75.0055 21.7C74.5655 20.9 74.3455 20 74.3455 19C74.3455 18.0133 74.5655 17.12 75.0055 16.32C75.4589 15.52 76.0789 14.8933 76.8655 14.44C77.6655 13.9733 78.5722 13.74 79.5855 13.74ZM82.6055 18.12C82.5122 17.3333 82.1922 16.7133 81.6455 16.26C81.0989 15.8067 80.4055 15.58 79.5655 15.58C78.9922 15.58 78.4655 15.7 77.9855 15.94C77.5055 16.1667 77.1255 16.48 76.8455 16.88C76.5655 17.2667 76.4255 17.68 76.4255 18.12H82.6055ZM88.3838 21.52C88.3838 21.7467 88.4305 21.9067 88.5238 22C88.6305 22.08 88.7972 22.12 89.0238 22.12C89.1972 22.12 89.4038 22.1 89.6438 22.06V24C89.0572 24.08 88.6438 24.12 88.4038 24.12C87.7238 24.12 87.1972 23.94 86.8238 23.58C86.4638 23.22 86.2838 22.58 86.2838 21.66V10H88.3838V21.52ZM102.033 13.76C103.02 13.76 103.886 13.9867 104.633 14.44C105.393 14.8933 105.973 15.52 106.373 16.32C106.786 17.12 106.993 18.0133 106.993 19C106.993 20 106.786 20.9 106.373 21.7C105.973 22.4867 105.393 23.1133 104.633 23.58C103.886 24.0333 103.02 24.26 102.033 24.26C101.353 24.26 100.74 24.12 100.193 23.84C99.6597 23.5467 99.2064 23.1467 98.833 22.64V28H96.733V14H98.833V15.36C99.633 14.2933 100.7 13.76 102.033 13.76ZM101.993 22.26C102.566 22.26 103.073 22.1133 103.513 21.82C103.966 21.5267 104.313 21.1333 104.553 20.64C104.806 20.1333 104.933 19.5867 104.933 19C104.933 18.4 104.806 17.8533 104.553 17.36C104.313 16.8533 103.966 16.4533 103.513 16.16C103.073 15.8667 102.566 15.72 101.993 15.72C101.393 15.72 100.853 15.8667 100.373 16.16C99.893 16.44 99.513 16.8333 99.233 17.34C98.9664 17.8467 98.833 18.4067 98.833 19.02C98.833 19.6333 98.9664 20.1867 99.233 20.68C99.513 21.1733 99.893 21.56 100.373 21.84C100.853 22.12 101.393 22.26 101.993 22.26ZM114.343 14L114.183 16C114.103 15.9733 113.97 15.96 113.783 15.96C112.93 15.96 112.223 16.1933 111.663 16.66C111.117 17.1267 110.843 17.8067 110.843 18.7V24H108.743V14H110.843V15.82C111.07 15.3 111.457 14.8667 112.003 14.52C112.563 14.1733 113.23 14 114.003 14H114.343ZM120.25 24.26C119.303 24.26 118.423 24.0267 117.61 23.56C116.81 23.08 116.176 22.44 115.71 21.64C115.243 20.8267 115.01 19.9467 115.01 19C115.01 18.0533 115.243 17.18 115.71 16.38C116.176 15.58 116.81 14.9467 117.61 14.48C118.423 14 119.303 13.76 120.25 13.76C121.196 13.76 122.07 14 122.87 14.48C123.683 14.9467 124.323 15.58 124.79 16.38C125.256 17.18 125.49 18.0533 125.49 19C125.49 19.9467 125.256 20.8267 124.79 21.64C124.323 22.44 123.683 23.08 122.87 23.56C122.07 24.0267 121.196 24.26 120.25 24.26ZM120.25 22.16C120.823 22.16 121.35 22.02 121.83 21.74C122.31 21.4467 122.69 21.06 122.97 20.58C123.25 20.1 123.39 19.5733 123.39 19C123.39 18.4267 123.25 17.9 122.97 17.42C122.69 16.94 122.31 16.56 121.83 16.28C121.35 16 120.823 15.86 120.25 15.86C119.676 15.86 119.15 16 118.67 16.28C118.19 16.56 117.803 16.94 117.51 17.42C117.23 17.9 117.09 18.4267 117.09 19C117.09 19.5733 117.23 20.1 117.51 20.58C117.803 21.06 118.19 21.4467 118.67 21.74C119.15 22.02 119.676 22.16 120.25 22.16ZM133.896 14H136.116L132.456 24.2C131.949 25.4933 131.263 26.4733 130.396 27.14C129.529 27.8067 128.523 28.0933 127.376 28V25.98C127.443 25.9933 127.543 26 127.676 26C128.849 26 129.756 25.2467 130.396 23.74L125.916 14H128.176L131.396 20.94L133.896 14ZM141.851 13.74C142.825 13.74 143.691 13.98 144.451 14.46C145.211 14.9267 145.805 15.5667 146.231 16.38C146.658 17.18 146.871 18.06 146.871 19.02C146.871 19.18 146.845 19.4333 146.791 19.78H138.711C138.858 20.5533 139.231 21.1867 139.831 21.68C140.431 22.1733 141.171 22.42 142.051 22.42C142.598 22.42 143.118 22.3 143.611 22.06C144.118 21.82 144.491 21.5067 144.731 21.12L146.371 22.08C145.918 22.7733 145.318 23.3133 144.571 23.7C143.825 24.0733 142.971 24.26 142.011 24.26C140.945 24.26 139.998 24.0333 139.171 23.58C138.358 23.1267 137.725 22.5 137.271 21.7C136.831 20.9 136.611 20 136.611 19C136.611 18.0133 136.831 17.12 137.271 16.32C137.725 15.52 138.345 14.8933 139.131 14.44C139.931 13.9733 140.838 13.74 141.851 13.74ZM144.871 18.12C144.778 17.3333 144.458 16.7133 143.911 16.26C143.365 15.8067 142.671 15.58 141.831 15.58C141.258 15.58 140.731 15.7 140.251 15.94C139.771 16.1667 139.391 16.48 139.111 16.88C138.831 17.2667 138.691 17.68 138.691 18.12H144.871ZM157.849 22.06C157.369 22.74 156.756 23.28 156.009 23.68C155.263 24.0667 154.456 24.26 153.589 24.26C152.643 24.26 151.763 24.0267 150.949 23.56C150.149 23.08 149.516 22.44 149.049 21.64C148.583 20.8267 148.349 19.9467 148.349 19C148.349 18.0533 148.583 17.18 149.049 16.38C149.516 15.58 150.149 14.9467 150.949 14.48C151.763 14 152.643 13.76 153.589 13.76C154.443 13.76 155.236 13.9533 155.969 14.34C156.716 14.7267 157.336 15.26 157.829 15.94L156.109 17.1C155.789 16.7 155.409 16.3933 154.969 16.18C154.543 15.9667 154.083 15.86 153.589 15.86C153.016 15.86 152.489 16 152.009 16.28C151.529 16.56 151.149 16.94 150.869 17.42C150.589 17.9 150.449 18.4267 150.449 19C150.449 19.5733 150.589 20.1 150.869 20.58C151.149 21.06 151.529 21.4467 152.009 21.74C152.489 22.02 153.016 22.16 153.589 22.16C154.083 22.16 154.543 22.0533 154.969 21.84C155.409 21.6133 155.789 21.3067 156.109 20.92L157.849 22.06ZM162.911 20.72C162.911 21.2533 163.018 21.62 163.231 21.82C163.458 22.02 163.818 22.12 164.311 22.12C164.591 22.12 164.911 22.1 165.271 22.06V24C164.671 24.0667 164.165 24.1 163.751 24.1C162.751 24.1 162.011 23.8667 161.531 23.4C161.051 22.92 160.811 22.0733 160.811 20.86V15.9H158.751V14H160.811V11.4L162.911 10.68V14H165.231V15.9H162.911V20.72ZM172.046 24.26C171.1 24.26 170.22 24.0267 169.406 23.56C168.606 23.08 167.973 22.44 167.506 21.64C167.04 20.8267 166.806 19.9467 166.806 19C166.806 18.0533 167.04 17.18 167.506 16.38C167.973 15.58 168.606 14.9467 169.406 14.48C170.22 14 171.1 13.76 172.046 13.76C172.993 13.76 173.866 14 174.666 14.48C175.48 14.9467 176.12 15.58 176.586 16.38C177.053 17.18 177.286 18.0533 177.286 19C177.286 19.9467 177.053 20.8267 176.586 21.64C176.12 22.44 175.48 23.08 174.666 23.56C173.866 24.0267 172.993 24.26 172.046 24.26ZM172.046 22.16C172.62 22.16 173.146 22.02 173.626 21.74C174.106 21.4467 174.486 21.06 174.766 20.58C175.046 20.1 175.186 19.5733 175.186 19C175.186 18.4267 175.046 17.9 174.766 17.42C174.486 16.94 174.106 16.56 173.626 16.28C173.146 16 172.62 15.86 172.046 15.86C171.473 15.86 170.946 16 170.466 16.28C169.986 16.56 169.6 16.94 169.306 17.42C169.026 17.9 168.886 18.4267 168.886 19C168.886 19.5733 169.026 20.1 169.306 20.58C169.6 21.06 169.986 21.4467 170.466 21.74C170.946 22.02 171.473 22.16 172.046 22.16Z" fill="#0A0909"/>
<path d="M29.42 55.34C29.42 56.726 28.286 58.098 26.172 58.098C24.212 58.098 22.826 57.006 22.798 55.396H24.156C24.24 56.208 24.814 57.02 26.172 57.02C27.404 57.02 28.132 56.32 28.132 55.396C28.132 52.764 22.854 54.444 22.854 50.818C22.854 49.208 24.156 48.116 26.088 48.116C27.95 48.116 29.168 49.138 29.322 50.622H27.922C27.838 49.964 27.222 49.222 26.032 49.208C24.982 49.18 24.156 49.726 24.156 50.776C24.156 53.296 29.42 51.728 29.42 55.34ZM38.5748 54.15C38.5748 56.586 36.8248 58.126 34.6408 58.126C32.4708 58.126 30.8188 56.586 30.8188 54.15C30.8188 51.728 32.5268 50.202 34.6968 50.202C36.8808 50.202 38.5748 51.728 38.5748 54.15ZM32.1208 54.15C32.1208 56.096 33.3108 57.006 34.6408 57.006C35.9708 57.006 37.2728 56.096 37.2728 54.15C37.2728 52.218 35.9988 51.308 34.6828 51.308C33.3388 51.308 32.1208 52.218 32.1208 54.15ZM51.3239 58V53.66C51.3239 52.092 50.4839 51.294 49.2239 51.294C47.9359 51.294 47.0539 52.12 47.0539 53.772V58H45.7939V53.66C45.7939 52.092 44.9539 51.294 43.6939 51.294C42.4059 51.294 41.5239 52.12 41.5239 53.772V58H40.2499V50.328H41.5239V51.434C42.0279 50.622 42.9379 50.188 43.9459 50.188C45.2059 50.188 46.2559 50.748 46.7599 51.896C47.2079 50.79 48.2999 50.188 49.4759 50.188C51.2259 50.188 52.5839 51.28 52.5839 53.478V58H51.3239ZM61.9537 54.15C61.9537 56.586 60.2037 58.126 58.0197 58.126C55.8497 58.126 54.1977 56.586 54.1977 54.15C54.1977 51.728 55.9057 50.202 58.0757 50.202C60.2597 50.202 61.9537 51.728 61.9537 54.15ZM55.4997 54.15C55.4997 56.096 56.6897 57.006 58.0197 57.006C59.3497 57.006 60.6517 56.096 60.6517 54.15C60.6517 52.218 59.3777 51.308 58.0617 51.308C56.7177 51.308 55.4997 52.218 55.4997 54.15ZM69.1448 55.914C69.1448 57.174 68.0388 58.126 66.3448 58.126C64.5528 58.126 63.2928 57.146 63.2088 55.746H64.5248C64.5948 56.488 65.2528 57.048 66.3308 57.048C67.3388 57.048 67.8988 56.544 67.8988 55.914C67.8988 54.206 63.3628 55.2 63.3628 52.344C63.3628 51.168 64.4688 50.202 66.1768 50.202C67.8708 50.202 68.9908 51.112 69.0748 52.61H67.8008C67.7448 51.84 67.1568 51.28 66.1348 51.28C65.1968 51.28 64.6368 51.728 64.6368 52.344C64.6368 54.164 69.0888 53.17 69.1448 55.914ZM81.4797 50.328V58H80.2057V56.866C79.7157 57.664 78.7777 58.112 77.7557 58.112C75.9917 58.112 74.6057 57.02 74.6057 54.822V50.328H75.8657V54.654C75.8657 56.208 76.7197 57.006 78.0077 57.006C79.3237 57.006 80.2057 56.194 80.2057 54.542V50.328H81.4797ZM89.2447 58V53.66C89.2447 52.092 88.3907 51.294 87.1027 51.294C85.8007 51.294 84.9047 52.106 84.9047 53.758V58H83.6307V50.328H84.9047V51.42C85.4087 50.622 86.3327 50.188 87.3687 50.188C89.1467 50.188 90.5047 51.28 90.5047 53.478V58H89.2447ZM95.8422 54.15C95.8422 51.742 97.3962 50.202 99.5802 50.202C101.484 50.202 102.73 51.182 103.122 52.792H101.75C101.484 51.868 100.714 51.28 99.5802 51.28C98.1802 51.28 97.1442 52.274 97.1442 54.15C97.1442 56.054 98.1802 57.048 99.5802 57.048C100.714 57.048 101.47 56.502 101.75 55.536H103.122C102.73 57.062 101.484 58.126 99.5802 58.126C97.3962 58.126 95.8422 56.586 95.8422 54.15ZM112.102 54.15C112.102 56.586 110.352 58.126 108.168 58.126C105.998 58.126 104.346 56.586 104.346 54.15C104.346 51.728 106.054 50.202 108.224 50.202C110.408 50.202 112.102 51.728 112.102 54.15ZM105.648 54.15C105.648 56.096 106.838 57.006 108.168 57.006C109.498 57.006 110.8 56.096 110.8 54.15C110.8 52.218 109.526 51.308 108.21 51.308C106.866 51.308 105.648 52.218 105.648 54.15ZM113.777 58V47.64H115.051V58H113.777ZM120.485 51.28C119.239 51.28 118.203 52.106 118.063 53.604H122.907C122.921 52.106 121.801 51.28 120.485 51.28ZM124.069 55.634C123.677 57.034 122.445 58.126 120.541 58.126C118.357 58.126 116.747 56.586 116.747 54.15C116.747 51.728 118.301 50.202 120.541 50.202C122.767 50.202 124.223 51.77 124.223 53.87C124.223 54.15 124.209 54.374 124.181 54.64H118.049C118.147 56.194 119.239 57.048 120.541 57.048C121.689 57.048 122.417 56.46 122.697 55.634H124.069ZM125.428 54.15C125.428 51.742 126.982 50.202 129.166 50.202C131.07 50.202 132.316 51.182 132.708 52.792H131.336C131.07 51.868 130.3 51.28 129.166 51.28C127.766 51.28 126.73 52.274 126.73 54.15C126.73 56.054 127.766 57.048 129.166 57.048C130.3 57.048 131.056 56.502 131.336 55.536H132.708C132.316 57.062 131.07 58.126 129.166 58.126C126.982 58.126 125.428 56.586 125.428 54.15ZM134.688 55.9V51.378H133.694V50.328H134.688V48.396H135.962V50.328H137.964V51.378H135.962V55.9C135.962 56.656 136.242 56.922 137.026 56.922H137.964V58H136.816C135.458 58 134.688 57.44 134.688 55.9ZM139.508 58V50.328H140.782V58H139.508ZM140.166 49.082C139.676 49.082 139.298 48.704 139.298 48.214C139.298 47.724 139.676 47.346 140.166 47.346C140.628 47.346 141.006 47.724 141.006 48.214C141.006 48.704 140.628 49.082 140.166 49.082ZM142.043 50.328H143.415L145.809 56.824L148.189 50.328H149.547L146.537 58H145.053L142.043 50.328ZM158.081 54.15C158.081 56.586 156.331 58.126 154.147 58.126C151.977 58.126 150.325 56.586 150.325 54.15C150.325 51.728 152.033 50.202 154.203 50.202C156.387 50.202 158.081 51.728 158.081 54.15ZM151.627 54.15C151.627 56.096 152.817 57.006 154.147 57.006C155.477 57.006 156.779 56.096 156.779 54.15C156.779 52.218 155.505 51.308 154.189 51.308C152.845 51.308 151.627 52.218 151.627 54.15ZM163.012 54.136C163.012 51.742 164.594 50.202 166.666 50.202C167.87 50.202 168.976 50.818 169.508 51.7V47.64H170.796V58H169.508V56.558C169.046 57.412 168.052 58.126 166.652 58.126C164.594 58.126 163.012 56.516 163.012 54.136ZM169.508 54.15C169.508 52.372 168.304 51.308 166.904 51.308C165.504 51.308 164.314 52.33 164.314 54.136C164.314 55.942 165.504 57.006 166.904 57.006C168.304 57.006 169.508 55.956 169.508 54.15ZM176.211 51.28C174.965 51.28 173.929 52.106 173.789 53.604H178.633C178.647 52.106 177.527 51.28 176.211 51.28ZM179.795 55.634C179.403 57.034 178.171 58.126 176.267 58.126C174.083 58.126 172.473 56.586 172.473 54.15C172.473 51.728 174.027 50.202 176.267 50.202C178.493 50.202 179.949 51.77 179.949 53.87C179.949 54.15 179.935 54.374 179.907 54.64H173.775C173.873 56.194 174.965 57.048 176.267 57.048C177.415 57.048 178.143 56.46 178.423 55.634H179.795ZM184.887 54.136C184.887 51.742 186.469 50.202 188.527 50.202C189.955 50.202 190.935 50.93 191.383 51.728V50.328H192.671V58H191.383V56.572C190.921 57.398 189.927 58.126 188.513 58.126C186.469 58.126 184.887 56.516 184.887 54.136ZM191.383 54.15C191.383 52.372 190.179 51.308 188.779 51.308C187.379 51.308 186.189 52.33 186.189 54.136C186.189 55.942 187.379 57.006 188.779 57.006C190.179 57.006 191.383 55.956 191.383 54.15ZM196.098 53.828V58H194.824V50.328H196.098V51.574C196.532 50.72 197.358 50.188 198.576 50.188V51.504H198.24C197.022 51.504 196.098 52.05 196.098 53.828ZM200.327 55.9V51.378H199.333V50.328H200.327V48.396H201.601V50.328H203.603V51.378H201.601V55.9C201.601 56.656 201.881 56.922 202.665 56.922H203.603V58H202.455C201.097 58 200.327 57.44 200.327 55.9ZM205.146 58V50.328H206.42V58H205.146ZM205.804 49.082C205.314 49.082 204.936 48.704 204.936 48.214C204.936 47.724 205.314 47.346 205.804 47.346C206.266 47.346 206.644 47.724 206.644 48.214C206.644 48.704 206.266 49.082 205.804 49.082ZM214.108 55.914C214.108 57.174 213.002 58.126 211.308 58.126C209.516 58.126 208.256 57.146 208.172 55.746H209.488C209.558 56.488 210.216 57.048 211.294 57.048C212.302 57.048 212.862 56.544 212.862 55.914C212.862 54.206 208.326 55.2 208.326 52.344C208.326 51.168 209.432 50.202 211.14 50.202C212.834 50.202 213.954 51.112 214.038 52.61H212.764C212.708 51.84 212.12 51.28 211.098 51.28C210.16 51.28 209.6 51.728 209.6 52.344C209.6 54.164 214.052 53.17 214.108 55.914ZM216.186 55.9V51.378H215.192V50.328H216.186V48.396H217.46V50.328H219.462V51.378H217.46V55.9C217.46 56.656 217.74 56.922 218.524 56.922H219.462V58H218.314C216.956 58 216.186 57.44 216.186 55.9ZM220.53 54.136C220.53 51.742 222.112 50.202 224.17 50.202C225.598 50.202 226.578 50.93 227.026 51.728V50.328H228.314V58H227.026V56.572C226.564 57.398 225.57 58.126 224.156 58.126C222.112 58.126 220.53 56.516 220.53 54.136ZM227.026 54.15C227.026 52.372 225.822 51.308 224.422 51.308C223.022 51.308 221.832 52.33 221.832 54.136C221.832 55.942 223.022 57.006 224.422 57.006C225.822 57.006 227.026 55.956 227.026 54.15ZM235.983 55.914C235.983 57.174 234.877 58.126 233.183 58.126C231.391 58.126 230.131 57.146 230.047 55.746H231.363C231.433 56.488 232.091 57.048 233.169 57.048C234.177 57.048 234.737 56.544 234.737 55.914C234.737 54.206 230.201 55.2 230.201 52.344C230.201 51.168 231.307 50.202 233.015 50.202C234.709 50.202 235.829 51.112 235.913 52.61H234.639C234.583 51.84 233.995 51.28 232.973 51.28C232.035 51.28 231.475 51.728 231.475 52.344C231.475 54.164 235.927 53.17 235.983 55.914ZM241.038 54.15C241.038 51.742 242.592 50.202 244.776 50.202C246.68 50.202 247.926 51.182 248.318 52.792H246.946C246.68 51.868 245.91 51.28 244.776 51.28C243.376 51.28 242.34 52.274 242.34 54.15C242.34 56.054 243.376 57.048 244.776 57.048C245.91 57.048 246.666 56.502 246.946 55.536H248.318C247.926 57.062 246.68 58.126 244.776 58.126C242.592 58.126 241.038 56.586 241.038 54.15ZM257.297 54.15C257.297 56.586 255.547 58.126 253.363 58.126C251.193 58.126 249.541 56.586 249.541 54.15C249.541 51.728 251.249 50.202 253.419 50.202C255.603 50.202 257.297 51.728 257.297 54.15ZM250.843 54.15C250.843 56.096 252.033 57.006 253.363 57.006C254.693 57.006 255.995 56.096 255.995 54.15C255.995 52.218 254.721 51.308 253.405 51.308C252.061 51.308 250.843 52.218 250.843 54.15ZM264.587 58V53.66C264.587 52.092 263.733 51.294 262.445 51.294C261.143 51.294 260.247 52.106 260.247 53.758V58H258.973V50.328H260.247V51.42C260.751 50.622 261.675 50.188 262.711 50.188C264.489 50.188 265.847 51.28 265.847 53.478V58H264.587ZM26.34 72.28C25.094 72.28 24.058 73.106 23.918 74.604H28.762C28.776 73.106 27.656 72.28 26.34 72.28ZM29.924 76.634C29.532 78.034 28.3 79.126 26.396 79.126C24.212 79.126 22.602 77.586 22.602 75.15C22.602 72.728 24.156 71.202 26.396 71.202C28.622 71.202 30.078 72.77 30.078 74.87C30.078 75.15 30.064 75.374 30.036 75.64H23.904C24.002 77.194 25.094 78.048 26.396 78.048C27.544 78.048 28.272 77.46 28.552 76.634H29.924ZM31.7596 79V68.64H33.0336V79H31.7596ZM38.4614 75.15C38.4614 72.742 40.0154 71.202 42.1994 71.202C44.1034 71.202 45.3494 72.182 45.7414 73.792H44.3694C44.1034 72.868 43.3334 72.28 42.1994 72.28C40.7994 72.28 39.7634 73.274 39.7634 75.15C39.7634 77.054 40.7994 78.048 42.1994 78.048C43.3334 78.048 44.0894 77.502 44.3694 76.536H45.7414C45.3494 78.062 44.1034 79.126 42.1994 79.126C40.0154 79.126 38.4614 77.586 38.4614 75.15ZM54.7213 75.15C54.7213 77.586 52.9713 79.126 50.7873 79.126C48.6173 79.126 46.9653 77.586 46.9653 75.15C46.9653 72.728 48.6733 71.202 50.8433 71.202C53.0273 71.202 54.7213 72.728 54.7213 75.15ZM48.2673 75.15C48.2673 77.096 49.4573 78.006 50.7873 78.006C52.1173 78.006 53.4193 77.096 53.4193 75.15C53.4193 73.218 52.1453 72.308 50.8293 72.308C49.4853 72.308 48.2673 73.218 48.2673 75.15ZM67.4704 79V74.66C67.4704 73.092 66.6304 72.294 65.3704 72.294C64.0824 72.294 63.2004 73.12 63.2004 74.772V79H61.9404V74.66C61.9404 73.092 61.1004 72.294 59.8404 72.294C58.5524 72.294 57.6704 73.12 57.6704 74.772V79H56.3964V71.328H57.6704V72.434C58.1744 71.622 59.0844 71.188 60.0924 71.188C61.3524 71.188 62.4024 71.748 62.9064 72.896C63.3544 71.79 64.4464 71.188 65.6224 71.188C67.3724 71.188 68.7304 72.28 68.7304 74.478V79H67.4704ZM72.0942 72.742C72.5562 71.93 73.5642 71.202 74.9642 71.202C77.0222 71.202 78.6042 72.742 78.6042 75.136C78.6042 77.516 77.0222 79.126 74.9642 79.126C73.5642 79.126 72.5702 78.37 72.0942 77.586V82.64H70.8202V71.328H72.0942V72.742ZM77.3022 75.136C77.3022 73.33 76.1122 72.308 74.6982 72.308C73.3122 72.308 72.0942 73.372 72.0942 75.15C72.0942 76.956 73.3122 78.006 74.6982 78.006C76.1122 78.006 77.3022 76.942 77.3022 75.136ZM81.5551 74.828V79H80.2811V71.328H81.5551V72.574C81.9891 71.72 82.8151 71.188 84.0331 71.188V72.504H83.6971C82.4791 72.504 81.5551 73.05 81.5551 74.828ZM92.7838 75.15C92.7838 77.586 91.0338 79.126 88.8498 79.126C86.6798 79.126 85.0278 77.586 85.0278 75.15C85.0278 72.728 86.7358 71.202 88.9058 71.202C91.0898 71.202 92.7838 72.728 92.7838 75.15ZM86.3298 75.15C86.3298 77.096 87.5198 78.006 88.8498 78.006C90.1798 78.006 91.4818 77.096 91.4818 75.15C91.4818 73.218 90.2078 72.308 88.8918 72.308C87.5478 72.308 86.3298 73.218 86.3298 75.15ZM105.533 79V74.66C105.533 73.092 104.693 72.294 103.433 72.294C102.145 72.294 101.263 73.12 101.263 74.772V79H100.003V74.66C100.003 73.092 99.1629 72.294 97.9029 72.294C96.6149 72.294 95.7329 73.12 95.7329 74.772V79H94.4589V71.328H95.7329V72.434C96.2369 71.622 97.1469 71.188 98.1549 71.188C99.4149 71.188 100.465 71.748 100.969 72.896C101.417 71.79 102.509 71.188 103.685 71.188C105.435 71.188 106.793 72.28 106.793 74.478V79H105.533ZM108.883 79V71.328H110.157V79H108.883ZM109.541 70.082C109.051 70.082 108.673 69.704 108.673 69.214C108.673 68.724 109.051 68.346 109.541 68.346C110.003 68.346 110.381 68.724 110.381 69.214C110.381 69.704 110.003 70.082 109.541 70.082ZM117.844 76.914C117.844 78.174 116.738 79.126 115.044 79.126C113.252 79.126 111.992 78.146 111.908 76.746H113.224C113.294 77.488 113.952 78.048 115.03 78.048C116.038 78.048 116.598 77.544 116.598 76.914C116.598 75.206 112.062 76.2 112.062 73.344C112.062 72.168 113.168 71.202 114.876 71.202C116.57 71.202 117.69 72.112 117.774 73.61H116.5C116.444 72.84 115.856 72.28 114.834 72.28C113.896 72.28 113.336 72.728 113.336 73.344C113.336 75.164 117.788 74.17 117.844 76.914ZM126.922 75.15C126.922 77.586 125.172 79.126 122.988 79.126C120.818 79.126 119.166 77.586 119.166 75.15C119.166 72.728 120.874 71.202 123.044 71.202C125.228 71.202 126.922 72.728 126.922 75.15ZM120.468 75.15C120.468 77.096 121.658 78.006 122.988 78.006C124.318 78.006 125.62 77.096 125.62 75.15C125.62 73.218 124.346 72.308 123.03 72.308C121.686 72.308 120.468 73.218 120.468 75.15ZM131.854 75.136C131.854 72.742 133.436 71.202 135.508 71.202C136.712 71.202 137.818 71.818 138.35 72.7V68.64H139.638V79H138.35V77.558C137.888 78.412 136.894 79.126 135.494 79.126C133.436 79.126 131.854 77.516 131.854 75.136ZM138.35 75.15C138.35 73.372 137.146 72.308 135.746 72.308C134.346 72.308 133.156 73.33 133.156 75.136C133.156 76.942 134.346 78.006 135.746 78.006C137.146 78.006 138.35 76.956 138.35 75.15ZM145.053 72.28C143.807 72.28 142.771 73.106 142.631 74.604H147.475C147.489 73.106 146.369 72.28 145.053 72.28ZM148.637 76.634C148.245 78.034 147.013 79.126 145.109 79.126C142.925 79.126 141.315 77.586 141.315 75.15C141.315 72.728 142.869 71.202 145.109 71.202C147.335 71.202 148.791 72.77 148.791 74.87C148.791 75.15 148.777 75.374 148.749 75.64H142.617C142.715 77.194 143.807 78.048 145.109 78.048C146.257 78.048 146.985 77.46 147.265 76.634H148.637ZM165.279 79V74.66C165.279 73.092 164.439 72.294 163.179 72.294C161.891 72.294 161.009 73.12 161.009 74.772V79H159.749V74.66C159.749 73.092 158.909 72.294 157.649 72.294C156.361 72.294 155.479 73.12 155.479 74.772V79H154.205V71.328H155.479V72.434C155.983 71.622 156.893 71.188 157.901 71.188C159.161 71.188 160.211 71.748 160.715 72.896C161.163 71.79 162.255 71.188 163.431 71.188C165.181 71.188 166.539 72.28 166.539 74.478V79H165.279ZM175.909 75.15C175.909 77.586 174.159 79.126 171.975 79.126C169.805 79.126 168.153 77.586 168.153 75.15C168.153 72.728 169.861 71.202 172.031 71.202C174.215 71.202 175.909 72.728 175.909 75.15ZM169.455 75.15C169.455 77.096 170.645 78.006 171.975 78.006C173.305 78.006 174.607 77.096 174.607 75.15C174.607 73.218 173.333 72.308 172.017 72.308C170.673 72.308 169.455 73.218 169.455 75.15ZM183.1 76.914C183.1 78.174 181.994 79.126 180.3 79.126C178.508 79.126 177.248 78.146 177.164 76.746H178.48C178.55 77.488 179.208 78.048 180.286 78.048C181.294 78.048 181.854 77.544 181.854 76.914C181.854 75.206 177.318 76.2 177.318 73.344C177.318 72.168 178.424 71.202 180.132 71.202C181.826 71.202 182.946 72.112 183.03 73.61H181.756C181.7 72.84 181.112 72.28 180.09 72.28C179.152 72.28 178.592 72.728 178.592 73.344C178.592 75.164 183.044 74.17 183.1 76.914ZM185.178 76.9V72.378H184.184V71.328H185.178V69.396H186.452V71.328H188.454V72.378H186.452V76.9C186.452 77.656 186.732 77.922 187.516 77.922H188.454V79H187.306C185.948 79 185.178 78.44 185.178 76.9ZM191.272 74.828V79H189.998V71.328H191.272V72.574C191.706 71.72 192.532 71.188 193.75 71.188V72.504H193.414C192.196 72.504 191.272 73.05 191.272 74.828ZM194.745 75.136C194.745 72.742 196.327 71.202 198.385 71.202C199.813 71.202 200.793 71.93 201.241 72.728V71.328H202.529V79H201.241V77.572C200.779 78.398 199.785 79.126 198.371 79.126C196.327 79.126 194.745 77.516 194.745 75.136ZM201.241 75.15C201.241 73.372 200.037 72.308 198.637 72.308C197.237 72.308 196.047 73.33 196.047 75.136C196.047 76.942 197.237 78.006 198.637 78.006C200.037 78.006 201.241 76.956 201.241 75.15ZM205.956 74.828V79H204.682V71.328H205.956V72.574C206.39 71.72 207.216 71.188 208.434 71.188V72.504H208.098C206.88 72.504 205.956 73.05 205.956 74.828ZM219.251 79V74.66C219.251 73.092 218.397 72.294 217.109 72.294C215.807 72.294 214.911 73.106 214.911 74.758V79H213.637V71.328H214.911V72.42C215.415 71.622 216.339 71.188 217.375 71.188C219.153 71.188 220.511 72.28 220.511 74.478V79H219.251ZM229.396 71.328V79H228.122V77.866C227.632 78.664 226.694 79.112 225.672 79.112C223.908 79.112 222.522 78.02 222.522 75.822V71.328H223.782V75.654C223.782 77.208 224.636 78.006 225.924 78.006C227.24 78.006 228.122 77.194 228.122 75.542V71.328H229.396ZM234.809 72.28C233.563 72.28 232.527 73.106 232.387 74.604H237.231C237.245 73.106 236.125 72.28 234.809 72.28ZM238.393 76.634C238.001 78.034 236.769 79.126 234.865 79.126C232.681 79.126 231.071 77.586 231.071 75.15C231.071 72.728 232.625 71.202 234.865 71.202C237.091 71.202 238.547 72.77 238.547 74.87C238.547 75.15 238.533 75.374 238.505 75.64H232.373C232.471 77.194 233.563 78.048 234.865 78.048C236.013 78.048 236.741 77.46 237.021 76.634H238.393ZM245.744 76.914C245.744 78.174 244.638 79.126 242.944 79.126C241.152 79.126 239.892 78.146 239.808 76.746H241.124C241.194 77.488 241.852 78.048 242.93 78.048C243.938 78.048 244.498 77.544 244.498 76.914C244.498 75.206 239.962 76.2 239.962 73.344C239.962 72.168 241.068 71.202 242.776 71.202C244.47 71.202 245.59 72.112 245.674 73.61H244.4C244.344 72.84 243.756 72.28 242.734 72.28C241.796 72.28 241.236 72.728 241.236 73.344C241.236 75.164 245.688 74.17 245.744 76.914ZM247.823 76.9V72.378H246.829V71.328H247.823V69.396H249.097V71.328H251.099V72.378H249.097V76.9C249.097 77.656 249.377 77.922 250.161 77.922H251.099V79H249.951C248.593 79 247.823 78.44 247.823 76.9ZM253.916 74.828V79H252.642V71.328H253.916V72.574C254.35 71.72 255.176 71.188 256.394 71.188V72.504H256.058C254.84 72.504 253.916 73.05 253.916 74.828ZM265.145 75.15C265.145 77.586 263.395 79.126 261.211 79.126C259.041 79.126 257.389 77.586 257.389 75.15C257.389 72.728 259.097 71.202 261.267 71.202C263.451 71.202 265.145 72.728 265.145 75.15ZM258.691 75.15C258.691 77.096 259.881 78.006 261.211 78.006C262.541 78.006 263.843 77.096 263.843 75.15C263.843 73.218 262.569 72.308 261.253 72.308C259.909 72.308 258.691 73.218 258.691 75.15ZM23.358 97.9V93.378H22.364V92.328H23.358V90.396H24.632V92.328H26.634V93.378H24.632V97.9C24.632 98.656 24.912 98.922 25.696 98.922H26.634V100H25.486C24.128 100 23.358 99.44 23.358 97.9ZM27.7016 96.136C27.7016 93.742 29.2836 92.202 31.3416 92.202C32.7696 92.202 33.7496 92.93 34.1976 93.728V92.328H35.4856V100H34.1976V98.572C33.7356 99.398 32.7416 100.126 31.3276 100.126C29.2836 100.126 27.7016 98.516 27.7016 96.136ZM34.1976 96.15C34.1976 94.372 32.9936 93.308 31.5936 93.308C30.1936 93.308 29.0036 94.33 29.0036 96.136C29.0036 97.942 30.1936 99.006 31.5936 99.006C32.9936 99.006 34.1976 97.956 34.1976 96.15ZM37.6385 100V89.64H38.9125V100H37.6385ZM44.3459 93.28C43.0999 93.28 42.0639 94.106 41.9239 95.604H46.7679C46.7819 94.106 45.6619 93.28 44.3459 93.28ZM47.9299 97.634C47.5379 99.034 46.3059 100.126 44.4019 100.126C42.2179 100.126 40.6079 98.586 40.6079 96.15C40.6079 93.728 42.1619 92.202 44.4019 92.202C46.6279 92.202 48.0839 93.77 48.0839 95.87C48.0839 96.15 48.0699 96.374 48.0419 96.64H41.9099C42.0079 98.194 43.0999 99.048 44.4019 99.048C45.5499 99.048 46.2779 98.46 46.5579 97.634H47.9299ZM55.3795 100V95.66C55.3795 94.092 54.5255 93.294 53.2375 93.294C51.9355 93.294 51.0395 94.106 51.0395 95.758V100H49.7655V92.328H51.0395V93.42C51.5435 92.622 52.4675 92.188 53.5035 92.188C55.2815 92.188 56.6395 93.28 56.6395 95.478V100H55.3795ZM59.0006 97.9V93.378H58.0066V92.328H59.0006V90.396H60.2746V92.328H62.2766V93.378H60.2746V97.9C60.2746 98.656 60.5546 98.922 61.3386 98.922H62.2766V100H61.1286C59.7706 100 59.0006 99.44 59.0006 97.9ZM71.1002 96.15C71.1002 98.586 69.3502 100.126 67.1662 100.126C64.9962 100.126 63.3442 98.586 63.3442 96.15C63.3442 93.728 65.0522 92.202 67.2222 92.202C69.4062 92.202 71.1002 93.728 71.1002 96.15ZM64.6462 96.15C64.6462 98.096 65.8362 99.006 67.1662 99.006C68.4962 99.006 69.7982 98.096 69.7982 96.15C69.7982 94.218 68.5242 93.308 67.2082 93.308C65.8642 93.308 64.6462 94.218 64.6462 96.15ZM79.4197 98.544L81.7997 92.328H83.1157L78.4957 103.612H77.1797L78.6917 99.916L75.5977 92.328H77.0117L79.4197 98.544ZM87.6528 96.15C87.6528 93.742 89.2068 92.202 91.3908 92.202C93.2948 92.202 94.5408 93.182 94.9328 94.792H93.5608C93.2948 93.868 92.5248 93.28 91.3908 93.28C89.9908 93.28 88.9548 94.274 88.9548 96.15C88.9548 98.054 89.9908 99.048 91.3908 99.048C92.5248 99.048 93.2808 98.502 93.5608 97.536H94.9328C94.5408 99.062 93.2948 100.126 91.3908 100.126C89.2068 100.126 87.6528 98.586 87.6528 96.15ZM97.9067 95.828V100H96.6327V92.328H97.9067V93.574C98.3407 92.72 99.1667 92.188 100.385 92.188V93.504H100.049C98.8307 93.504 97.9067 94.05 97.9067 95.828ZM105.117 93.28C103.871 93.28 102.835 94.106 102.695 95.604H107.539C107.553 94.106 106.433 93.28 105.117 93.28ZM108.701 97.634C108.309 99.034 107.077 100.126 105.173 100.126C102.989 100.126 101.379 98.586 101.379 96.15C101.379 93.728 102.933 92.202 105.173 92.202C107.399 92.202 108.855 93.77 108.855 95.87C108.855 96.15 108.841 96.374 108.813 96.64H102.681C102.779 98.194 103.871 99.048 105.173 99.048C106.321 99.048 107.049 98.46 107.329 97.634H108.701ZM110.061 96.136C110.061 93.742 111.643 92.202 113.701 92.202C115.129 92.202 116.109 92.93 116.557 93.728V92.328H117.845V100H116.557V98.572C116.095 99.398 115.101 100.126 113.687 100.126C111.643 100.126 110.061 98.516 110.061 96.136ZM116.557 96.15C116.557 94.372 115.353 93.308 113.953 93.308C112.553 93.308 111.363 94.33 111.363 96.136C111.363 97.942 112.553 99.006 113.953 99.006C115.353 99.006 116.557 97.956 116.557 96.15ZM120.278 97.9V93.378H119.284V92.328H120.278V90.396H121.552V92.328H123.554V93.378H121.552V97.9C121.552 98.656 121.832 98.922 122.616 98.922H123.554V100H122.406C121.048 100 120.278 99.44 120.278 97.9ZM125.098 100V92.328H126.372V100H125.098ZM125.756 91.082C125.266 91.082 124.888 90.704 124.888 90.214C124.888 89.724 125.266 89.346 125.756 89.346C126.218 89.346 126.596 89.724 126.596 90.214C126.596 90.704 126.218 91.082 125.756 91.082ZM127.633 92.328H129.005L131.399 98.824L133.779 92.328H135.137L132.127 100H130.643L127.633 92.328ZM136.391 100V92.328H137.665V100H136.391ZM137.049 91.082C136.559 91.082 136.181 90.704 136.181 90.214C136.181 89.724 136.559 89.346 137.049 89.346C137.511 89.346 137.889 89.724 137.889 90.214C137.889 90.704 137.511 91.082 137.049 91.082ZM139.36 96.136C139.36 93.742 140.942 92.202 143.014 92.202C144.218 92.202 145.324 92.818 145.856 93.7V89.64H147.144V100H145.856V98.558C145.394 99.412 144.4 100.126 143 100.126C140.942 100.126 139.36 98.516 139.36 96.136ZM145.856 96.15C145.856 94.372 144.652 93.308 143.252 93.308C141.852 93.308 140.662 94.33 140.662 96.136C140.662 97.942 141.852 99.006 143.252 99.006C144.652 99.006 145.856 97.956 145.856 96.15ZM148.821 96.136C148.821 93.742 150.403 92.202 152.461 92.202C153.889 92.202 154.869 92.93 155.317 93.728V92.328H156.605V100H155.317V98.572C154.855 99.398 153.861 100.126 152.447 100.126C150.403 100.126 148.821 98.516 148.821 96.136ZM155.317 96.15C155.317 94.372 154.113 93.308 152.713 93.308C151.313 93.308 150.123 94.33 150.123 96.136C150.123 97.942 151.313 99.006 152.713 99.006C154.113 99.006 155.317 97.956 155.317 96.15ZM158.282 96.136C158.282 93.742 159.864 92.202 161.936 92.202C163.14 92.202 164.246 92.818 164.778 93.7V89.64H166.066V100H164.778V98.558C164.316 99.412 163.322 100.126 161.922 100.126C159.864 100.126 158.282 98.516 158.282 96.136ZM164.778 96.15C164.778 94.372 163.574 93.308 162.174 93.308C160.774 93.308 159.584 94.33 159.584 96.136C159.584 97.942 160.774 99.006 162.174 99.006C163.574 99.006 164.778 97.956 164.778 96.15ZM171.475 96.136C171.475 93.742 173.057 92.202 175.115 92.202C176.543 92.202 177.523 92.93 177.971 93.728V92.328H179.259V100H177.971V98.572C177.509 99.398 176.515 100.126 175.101 100.126C173.057 100.126 171.475 98.516 171.475 96.136ZM177.971 96.15C177.971 94.372 176.767 93.308 175.367 93.308C173.967 93.308 172.777 94.33 172.777 96.136C172.777 97.942 173.967 99.006 175.367 99.006C176.767 99.006 177.971 97.956 177.971 96.15ZM185.424 97.9V93.378H184.43V92.328H185.424V90.396H186.698V92.328H188.7V93.378H186.698V97.9C186.698 98.656 186.978 98.922 187.762 98.922H188.7V100H187.552C186.194 100 185.424 99.44 185.424 97.9ZM191.518 95.828V100H190.244V92.328H191.518V93.574C191.952 92.72 192.778 92.188 193.996 92.188V93.504H193.66C192.442 93.504 191.518 94.05 191.518 95.828ZM194.991 96.136C194.991 93.742 196.573 92.202 198.631 92.202C200.059 92.202 201.039 92.93 201.487 93.728V92.328H202.775V100H201.487V98.572C201.025 99.398 200.031 100.126 198.617 100.126C196.573 100.126 194.991 98.516 194.991 96.136ZM201.487 96.15C201.487 94.372 200.283 93.308 198.883 93.308C197.483 93.308 196.293 94.33 196.293 96.136C196.293 97.942 197.483 99.006 198.883 99.006C200.283 99.006 201.487 97.956 201.487 96.15ZM204.018 92.328H205.39L207.784 98.824L210.164 92.328H211.522L208.512 100H207.028L204.018 92.328ZM216.037 93.28C214.791 93.28 213.755 94.106 213.615 95.604H218.459C218.473 94.106 217.353 93.28 216.037 93.28ZM219.621 97.634C219.229 99.034 217.997 100.126 216.093 100.126C213.909 100.126 212.299 98.586 212.299 96.15C212.299 93.728 213.853 92.202 216.093 92.202C218.319 92.202 219.775 93.77 219.775 95.87C219.775 96.15 219.761 96.374 219.733 96.64H213.601C213.699 98.194 214.791 99.048 216.093 99.048C217.241 99.048 217.969 98.46 218.249 97.634H219.621ZM214.427 90.802L217.409 89.052V90.158L214.427 91.754V90.802ZM226.973 97.914C226.973 99.174 225.867 100.126 224.173 100.126C222.381 100.126 221.121 99.146 221.037 97.746H222.353C222.423 98.488 223.081 99.048 224.159 99.048C225.167 99.048 225.727 98.544 225.727 97.914C225.727 96.206 221.191 97.2 221.191 94.344C221.191 93.168 222.297 92.202 224.005 92.202C225.699 92.202 226.819 93.112 226.903 94.61H225.629C225.573 93.84 224.985 93.28 223.963 93.28C223.025 93.28 222.465 93.728 222.465 94.344C222.465 96.164 226.917 95.17 226.973 97.914ZM232.028 96.136C232.028 93.742 233.61 92.202 235.682 92.202C236.886 92.202 237.992 92.818 238.524 93.7V89.64H239.812V100H238.524V98.558C238.062 99.412 237.068 100.126 235.668 100.126C233.61 100.126 232.028 98.516 232.028 96.136ZM238.524 96.15C238.524 94.372 237.32 93.308 235.92 93.308C234.52 93.308 233.33 94.33 233.33 96.136C233.33 97.942 234.52 99.006 235.92 99.006C237.32 99.006 238.524 97.956 238.524 96.15ZM245.227 93.28C243.981 93.28 242.945 94.106 242.805 95.604H247.649C247.663 94.106 246.543 93.28 245.227 93.28ZM248.811 97.634C248.419 99.034 247.187 100.126 245.283 100.126C243.099 100.126 241.489 98.586 241.489 96.15C241.489 93.728 243.043 92.202 245.283 92.202C247.509 92.202 248.965 93.77 248.965 95.87C248.965 96.15 248.951 96.374 248.923 96.64H242.791C242.889 98.194 243.981 99.048 245.283 99.048C246.431 99.048 247.159 98.46 247.439 97.634H248.811ZM23.078 121V110.64H24.352V121H23.078ZM33.8033 117.15C33.8033 119.586 32.0533 121.126 29.8693 121.126C27.6993 121.126 26.0473 119.586 26.0473 117.15C26.0473 114.728 27.7553 113.202 29.9253 113.202C32.1093 113.202 33.8033 114.728 33.8033 117.15ZM27.3493 117.15C27.3493 119.096 28.5393 120.006 29.8693 120.006C31.1993 120.006 32.5013 119.096 32.5013 117.15C32.5013 115.218 31.2273 114.308 29.9113 114.308C28.5673 114.308 27.3493 115.218 27.3493 117.15ZM40.9944 118.914C40.9944 120.174 39.8884 121.126 38.1944 121.126C36.4024 121.126 35.1424 120.146 35.0584 118.746H36.3744C36.4444 119.488 37.1024 120.048 38.1804 120.048C39.1884 120.048 39.7484 119.544 39.7484 118.914C39.7484 117.206 35.2124 118.2 35.2124 115.344C35.2124 114.168 36.3184 113.202 38.0264 113.202C39.7204 113.202 40.8404 114.112 40.9244 115.61H39.6504C39.5944 114.84 39.0064 114.28 37.9844 114.28C37.0464 114.28 36.4864 114.728 36.4864 115.344C36.4864 117.164 40.9384 116.17 40.9944 118.914ZM46.0493 117.136C46.0493 114.742 47.6313 113.202 49.7033 113.202C50.9073 113.202 52.0133 113.818 52.5453 114.7V110.64H53.8333V121H52.5453V119.558C52.0833 120.412 51.0893 121.126 49.6893 121.126C47.6313 121.126 46.0493 119.516 46.0493 117.136ZM52.5453 117.15C52.5453 115.372 51.3413 114.308 49.9413 114.308C48.5413 114.308 47.3513 115.33 47.3513 117.136C47.3513 118.942 48.5413 120.006 49.9413 120.006C51.3413 120.006 52.5453 118.956 52.5453 117.15ZM55.9862 121V113.328H57.2602V121H55.9862ZM56.6442 112.082C56.1542 112.082 55.7762 111.704 55.7762 111.214C55.7762 110.724 56.1542 110.346 56.6442 110.346C57.1062 110.346 57.4842 110.724 57.4842 111.214C57.4842 111.704 57.1062 112.082 56.6442 112.082ZM64.9475 118.914C64.9475 120.174 63.8415 121.126 62.1475 121.126C60.3555 121.126 59.0955 120.146 59.0115 118.746H60.3275C60.3975 119.488 61.0555 120.048 62.1335 120.048C63.1415 120.048 63.7015 119.544 63.7015 118.914C63.7015 117.206 59.1655 118.2 59.1655 115.344C59.1655 114.168 60.2715 113.202 61.9795 113.202C63.6735 113.202 64.7935 114.112 64.8775 115.61H63.6035C63.5475 114.84 62.9595 114.28 61.9375 114.28C60.9995 114.28 60.4395 114.728 60.4395 115.344C60.4395 117.164 64.8915 116.17 64.9475 118.914ZM67.026 118.9V114.378H66.032V113.328H67.026V111.396H68.3V113.328H70.302V114.378H68.3V118.9C68.3 119.656 68.58 119.922 69.364 119.922H70.302V121H69.154C67.796 121 67.026 120.44 67.026 118.9ZM71.8456 121V113.328H73.1196V121H71.8456ZM72.5036 112.082C72.0136 112.082 71.6356 111.704 71.6356 111.214C71.6356 110.724 72.0136 110.346 72.5036 110.346C72.9656 110.346 73.3436 110.724 73.3436 111.214C73.3436 111.704 72.9656 112.082 72.5036 112.082ZM80.9049 121V116.66C80.9049 115.092 80.0509 114.294 78.7629 114.294C77.4609 114.294 76.5649 115.106 76.5649 116.758V121H75.2909V113.328H76.5649V114.42C77.0689 113.622 77.9929 113.188 79.0289 113.188C80.8069 113.188 82.1649 114.28 82.1649 116.478V121H80.9049ZM84.526 118.9V114.378H83.532V113.328H84.526V111.396H85.8V113.328H87.802V114.378H85.8V118.9C85.8 119.656 86.08 119.922 86.864 119.922H87.802V121H86.654C85.296 121 84.526 120.44 84.526 118.9ZM96.6256 117.15C96.6256 119.586 94.8756 121.126 92.6916 121.126C90.5216 121.126 88.8696 119.586 88.8696 117.15C88.8696 114.728 90.5776 113.202 92.7476 113.202C94.9316 113.202 96.6256 114.728 96.6256 117.15ZM90.1716 117.15C90.1716 119.096 91.3616 120.006 92.6916 120.006C94.0216 120.006 95.3236 119.096 95.3236 117.15C95.3236 115.218 94.0496 114.308 92.7336 114.308C91.3896 114.308 90.1716 115.218 90.1716 117.15ZM103.817 118.914C103.817 120.174 102.711 121.126 101.017 121.126C99.2247 121.126 97.9647 120.146 97.8807 118.746H99.1967C99.2667 119.488 99.9247 120.048 101.003 120.048C102.011 120.048 102.571 119.544 102.571 118.914C102.571 117.206 98.0347 118.2 98.0347 115.344C98.0347 114.168 99.1407 113.202 100.849 113.202C102.543 113.202 103.663 114.112 103.747 115.61H102.473C102.417 114.84 101.829 114.28 100.807 114.28C99.8687 114.28 99.3087 114.728 99.3087 115.344C99.3087 117.164 103.761 116.17 103.817 118.914ZM120.422 121V116.66C120.422 115.092 119.582 114.294 118.322 114.294C117.034 114.294 116.152 115.12 116.152 116.772V121H114.892V116.66C114.892 115.092 114.052 114.294 112.792 114.294C111.504 114.294 110.622 115.12 110.622 116.772V121H109.348V113.328H110.622V114.434C111.126 113.622 112.036 113.188 113.044 113.188C114.304 113.188 115.354 113.748 115.858 114.896C116.306 113.79 117.398 113.188 118.574 113.188C120.324 113.188 121.682 114.28 121.682 116.478V121H120.422ZM127.033 114.28C125.787 114.28 124.751 115.106 124.611 116.604H129.455C129.469 115.106 128.349 114.28 127.033 114.28ZM130.617 118.634C130.225 120.034 128.993 121.126 127.089 121.126C124.905 121.126 123.295 119.586 123.295 117.15C123.295 114.728 124.849 113.202 127.089 113.202C129.315 113.202 130.771 114.77 130.771 116.87C130.771 117.15 130.757 117.374 130.729 117.64H124.597C124.695 119.194 125.787 120.048 127.089 120.048C128.237 120.048 128.965 119.46 129.245 118.634H130.617ZM131.977 117.136C131.977 114.742 133.559 113.202 135.631 113.202C136.835 113.202 137.941 113.818 138.473 114.7V110.64H139.761V121H138.473V119.558C138.011 120.412 137.017 121.126 135.617 121.126C133.559 121.126 131.977 119.516 131.977 117.136ZM138.473 117.15C138.473 115.372 137.269 114.308 135.869 114.308C134.469 114.308 133.279 115.33 133.279 117.136C133.279 118.942 134.469 120.006 135.869 120.006C137.269 120.006 138.473 118.956 138.473 117.15ZM141.914 121V113.328H143.188V121H141.914ZM142.572 112.082C142.082 112.082 141.704 111.704 141.704 111.214C141.704 110.724 142.082 110.346 142.572 110.346C143.034 110.346 143.412 110.724 143.412 111.214C143.412 111.704 143.034 112.082 142.572 112.082ZM152.639 117.15C152.639 119.586 150.889 121.126 148.705 121.126C146.535 121.126 144.883 119.586 144.883 117.15C144.883 114.728 146.591 113.202 148.761 113.202C150.945 113.202 152.639 114.728 152.639 117.15ZM146.185 117.15C146.185 119.096 147.375 120.006 148.705 120.006C150.035 120.006 151.337 119.096 151.337 117.15C151.337 115.218 150.063 114.308 148.747 114.308C147.403 114.308 146.185 115.218 146.185 117.15ZM159.83 118.914C159.83 120.174 158.724 121.126 157.03 121.126C155.238 121.126 153.978 120.146 153.894 118.746H155.21C155.28 119.488 155.938 120.048 157.016 120.048C158.024 120.048 158.584 119.544 158.584 118.914C158.584 117.206 154.048 118.2 154.048 115.344C154.048 114.168 155.154 113.202 156.862 113.202C158.556 113.202 159.676 114.112 159.76 115.61H158.486C158.43 114.84 157.842 114.28 156.82 114.28C155.882 114.28 155.322 114.728 155.322 115.344C155.322 117.164 159.774 116.17 159.83 118.914ZM168.273 119.544L170.653 113.328H171.969L167.349 124.612H166.033L167.545 120.916L164.451 113.328H165.865L168.273 119.544ZM177.22 121V114.378H176.226V113.328H177.22V112.782C177.22 111.074 178.06 110.304 180.02 110.304V111.368C178.872 111.368 178.494 111.788 178.494 112.782V113.328H180.104V114.378H178.494V121H177.22ZM188.87 117.15C188.87 119.586 187.12 121.126 184.936 121.126C182.766 121.126 181.114 119.586 181.114 117.15C181.114 114.728 182.822 113.202 184.992 113.202C187.176 113.202 188.87 114.728 188.87 117.15ZM182.416 117.15C182.416 119.096 183.606 120.006 184.936 120.006C186.266 120.006 187.568 119.096 187.568 117.15C187.568 115.218 186.294 114.308 184.978 114.308C183.634 114.308 182.416 115.218 182.416 117.15ZM191.819 116.828V121H190.545V113.328H191.819V114.574C192.253 113.72 193.079 113.188 194.297 113.188V114.504H193.961C192.743 114.504 191.819 115.05 191.819 116.828ZM206.841 121V116.66C206.841 115.092 206.001 114.294 204.741 114.294C203.453 114.294 202.571 115.12 202.571 116.772V121H201.311V116.66C201.311 115.092 200.471 114.294 199.211 114.294C197.923 114.294 197.041 115.12 197.041 116.772V121H195.767V113.328H197.041V114.434C197.545 113.622 198.455 113.188 199.463 113.188C200.723 113.188 201.773 113.748 202.277 114.896C202.725 113.79 203.817 113.188 204.993 113.188C206.743 113.188 208.101 114.28 208.101 116.478V121H206.841ZM209.715 117.136C209.715 114.742 211.297 113.202 213.355 113.202C214.783 113.202 215.763 113.93 216.211 114.728V113.328H217.499V121H216.211V119.572C215.749 120.398 214.755 121.126 213.341 121.126C211.297 121.126 209.715 119.516 209.715 117.136ZM216.211 117.15C216.211 115.372 215.007 114.308 213.607 114.308C212.207 114.308 211.017 115.33 211.017 117.136C211.017 118.942 212.207 120.006 213.607 120.006C215.007 120.006 216.211 118.956 216.211 117.15ZM219.932 118.9V114.378H218.938V113.328H219.932V111.396H221.206V113.328H223.208V114.378H221.206V118.9C221.206 119.656 221.486 119.922 222.27 119.922H223.208V121H222.06C220.702 121 219.932 120.44 219.932 118.9ZM232.032 117.15C232.032 119.586 230.282 121.126 228.098 121.126C225.928 121.126 224.276 119.586 224.276 117.15C224.276 114.728 225.984 113.202 228.154 113.202C230.338 113.202 232.032 114.728 232.032 117.15ZM225.578 117.15C225.578 119.096 226.768 120.006 228.098 120.006C229.428 120.006 230.73 119.096 230.73 117.15C230.73 115.218 229.456 114.308 228.14 114.308C226.796 114.308 225.578 115.218 225.578 117.15ZM239.223 118.914C239.223 120.174 238.117 121.126 236.423 121.126C234.631 121.126 233.371 120.146 233.287 118.746H234.603C234.673 119.488 235.331 120.048 236.409 120.048C237.417 120.048 237.977 119.544 237.977 118.914C237.977 117.206 233.441 118.2 233.441 115.344C233.441 114.168 234.547 113.202 236.255 113.202C237.949 113.202 239.069 114.112 239.153 115.61H237.879C237.823 114.84 237.235 114.28 236.213 114.28C235.275 114.28 234.715 114.728 234.715 115.344C234.715 117.164 239.167 116.17 239.223 118.914ZM239.915 123.002L240.937 119.236H242.337L240.769 123.002H239.915ZM22.602 138.15C22.602 135.742 24.156 134.202 26.34 134.202C28.244 134.202 29.49 135.182 29.882 136.792H28.51C28.244 135.868 27.474 135.28 26.34 135.28C24.94 135.28 23.904 136.274 23.904 138.15C23.904 140.054 24.94 141.048 26.34 141.048C27.474 141.048 28.23 140.502 28.51 139.536H29.882C29.49 141.062 28.244 142.126 26.34 142.126C24.156 142.126 22.602 140.586 22.602 138.15ZM38.8619 138.15C38.8619 140.586 37.1119 142.126 34.9279 142.126C32.7579 142.126 31.1059 140.586 31.1059 138.15C31.1059 135.728 32.8139 134.202 34.9839 134.202C37.1679 134.202 38.8619 135.728 38.8619 138.15ZM32.4079 138.15C32.4079 140.096 33.5979 141.006 34.9279 141.006C36.2579 141.006 37.5599 140.096 37.5599 138.15C37.5599 136.218 36.2859 135.308 34.9699 135.308C33.6259 135.308 32.4079 136.218 32.4079 138.15ZM51.611 142V137.66C51.611 136.092 50.771 135.294 49.511 135.294C48.223 135.294 47.341 136.12 47.341 137.772V142H46.081V137.66C46.081 136.092 45.241 135.294 43.981 135.294C42.693 135.294 41.811 136.12 41.811 137.772V142H40.537V134.328H41.811V135.434C42.315 134.622 43.225 134.188 44.233 134.188C45.493 134.188 46.543 134.748 47.047 135.896C47.495 134.79 48.587 134.188 49.763 134.188C51.513 134.188 52.871 135.28 52.871 137.478V142H51.611ZM62.2408 138.15C62.2408 140.586 60.4908 142.126 58.3068 142.126C56.1368 142.126 54.4848 140.586 54.4848 138.15C54.4848 135.728 56.1928 134.202 58.3628 134.202C60.5468 134.202 62.2408 135.728 62.2408 138.15ZM55.7868 138.15C55.7868 140.096 56.9768 141.006 58.3068 141.006C59.6368 141.006 60.9388 140.096 60.9388 138.15C60.9388 136.218 59.6648 135.308 58.3488 135.308C57.0048 135.308 55.7868 136.218 55.7868 138.15ZM67.1723 138.15C67.1723 135.742 68.7263 134.202 70.9103 134.202C72.8143 134.202 74.0603 135.182 74.4523 136.792H73.0803C72.8143 135.868 72.0443 135.28 70.9103 135.28C69.5103 135.28 68.4743 136.274 68.4743 138.15C68.4743 140.054 69.5103 141.048 70.9103 141.048C72.0443 141.048 72.8003 140.502 73.0803 139.536H74.4523C74.0603 141.062 72.8143 142.126 70.9103 142.126C68.7263 142.126 67.1723 140.586 67.1723 138.15ZM83.4322 138.15C83.4322 140.586 81.6822 142.126 79.4982 142.126C77.3282 142.126 75.6762 140.586 75.6762 138.15C75.6762 135.728 77.3842 134.202 79.5542 134.202C81.7382 134.202 83.4322 135.728 83.4322 138.15ZM76.9782 138.15C76.9782 140.096 78.1682 141.006 79.4982 141.006C80.8282 141.006 82.1302 140.096 82.1302 138.15C82.1302 136.218 80.8562 135.308 79.5402 135.308C78.1962 135.308 76.9782 136.218 76.9782 138.15ZM86.3813 137.828V142H85.1073V134.328H86.3813V135.574C86.8153 134.72 87.6413 134.188 88.8593 134.188V135.504H88.5233C87.3053 135.504 86.3813 136.05 86.3813 137.828ZM90.61 139.9V135.378H89.616V134.328H90.61V132.396H91.884V134.328H93.886V135.378H91.884V139.9C91.884 140.656 92.164 140.922 92.948 140.922H93.886V142H92.738C91.38 142 90.61 141.44 90.61 139.9ZM102.71 138.15C102.71 140.586 100.96 142.126 98.7756 142.126C96.6056 142.126 94.9536 140.586 94.9536 138.15C94.9536 135.728 96.6616 134.202 98.8316 134.202C101.016 134.202 102.71 135.728 102.71 138.15ZM96.2556 138.15C96.2556 140.096 97.4456 141.006 98.7756 141.006C100.106 141.006 101.408 140.096 101.408 138.15C101.408 136.218 100.134 135.308 98.8176 135.308C97.4736 135.308 96.2556 136.218 96.2556 138.15ZM109.901 139.914C109.901 141.174 108.795 142.126 107.101 142.126C105.309 142.126 104.049 141.146 103.965 139.746H105.281C105.351 140.488 106.009 141.048 107.087 141.048C108.095 141.048 108.655 140.544 108.655 139.914C108.655 138.206 104.119 139.2 104.119 136.344C104.119 135.168 105.225 134.202 106.933 134.202C108.627 134.202 109.747 135.112 109.831 136.61H108.557C108.501 135.84 107.913 135.28 106.891 135.28C105.953 135.28 105.393 135.728 105.393 136.344C105.393 138.164 109.845 137.17 109.901 139.914ZM114.956 138.136C114.956 135.742 116.538 134.202 118.61 134.202C119.814 134.202 120.92 134.818 121.452 135.7V131.64H122.74V142H121.452V140.558C120.99 141.412 119.996 142.126 118.596 142.126C116.538 142.126 114.956 140.516 114.956 138.136ZM121.452 138.15C121.452 136.372 120.248 135.308 118.848 135.308C117.448 135.308 116.258 136.33 116.258 138.136C116.258 139.942 117.448 141.006 118.848 141.006C120.248 141.006 121.452 139.956 121.452 138.15ZM128.154 135.28C126.908 135.28 125.872 136.106 125.732 137.604H130.576C130.59 136.106 129.47 135.28 128.154 135.28ZM131.738 139.634C131.346 141.034 130.114 142.126 128.21 142.126C126.026 142.126 124.416 140.586 124.416 138.15C124.416 135.728 125.97 134.202 128.21 134.202C130.436 134.202 131.892 135.77 131.892 137.87C131.892 138.15 131.878 138.374 131.85 138.64H125.718C125.816 140.194 126.908 141.048 128.21 141.048C129.358 141.048 130.086 140.46 130.366 139.634H131.738ZM136.831 138.136C136.831 135.742 138.413 134.202 140.471 134.202C141.899 134.202 142.879 134.93 143.327 135.728V134.328H144.615V142H143.327V140.572C142.865 141.398 141.871 142.126 140.457 142.126C138.413 142.126 136.831 140.516 136.831 138.136ZM143.327 138.15C143.327 136.372 142.123 135.308 140.723 135.308C139.323 135.308 138.133 136.33 138.133 138.136C138.133 139.942 139.323 141.006 140.723 141.006C142.123 141.006 143.327 139.956 143.327 138.15ZM152.381 142V137.66C152.381 136.092 151.527 135.294 150.239 135.294C148.937 135.294 148.041 136.106 148.041 137.758V142H146.767V134.328H148.041V135.42C148.545 134.622 149.469 134.188 150.505 134.188C152.283 134.188 153.641 135.28 153.641 137.478V142H152.381ZM155.723 142V134.328H156.997V142H155.723ZM156.381 133.082C155.891 133.082 155.513 132.704 155.513 132.214C155.513 131.724 155.891 131.346 156.381 131.346C156.843 131.346 157.221 131.724 157.221 132.214C157.221 132.704 156.843 133.082 156.381 133.082ZM170.242 142V137.66C170.242 136.092 169.402 135.294 168.142 135.294C166.854 135.294 165.972 136.12 165.972 137.772V142H164.712V137.66C164.712 136.092 163.872 135.294 162.612 135.294C161.324 135.294 160.442 136.12 160.442 137.772V142H159.168V134.328H160.442V135.434C160.946 134.622 161.856 134.188 162.864 134.188C164.124 134.188 165.174 134.748 165.678 135.896C166.126 134.79 167.218 134.188 168.394 134.188C170.144 134.188 171.502 135.28 171.502 137.478V142H170.242ZM173.116 138.136C173.116 135.742 174.698 134.202 176.756 134.202C178.184 134.202 179.164 134.93 179.612 135.728V134.328H180.9V142H179.612V140.572C179.15 141.398 178.156 142.126 176.742 142.126C174.698 142.126 173.116 140.516 173.116 138.136ZM179.612 138.15C179.612 136.372 178.408 135.308 177.008 135.308C175.608 135.308 174.418 136.33 174.418 138.136C174.418 139.942 175.608 141.006 177.008 141.006C178.408 141.006 179.612 139.956 179.612 138.15ZM182.577 138.15C182.577 135.742 184.131 134.202 186.315 134.202C188.219 134.202 189.465 135.182 189.857 136.792H188.485C188.219 135.868 187.449 135.28 186.315 135.28C184.915 135.28 183.879 136.274 183.879 138.15C183.879 140.054 184.915 141.048 186.315 141.048C187.449 141.048 188.205 140.502 188.485 139.536H189.857C189.465 141.062 188.219 142.126 186.315 142.126C184.131 142.126 182.577 140.586 182.577 138.15ZM191.557 142V134.328H192.831V142H191.557ZM192.215 133.082C191.725 133.082 191.347 132.704 191.347 132.214C191.347 131.724 191.725 131.346 192.215 131.346C192.677 131.346 193.055 131.724 193.055 132.214C193.055 132.704 192.677 133.082 192.215 133.082ZM202.282 138.15C202.282 140.586 200.532 142.126 198.348 142.126C196.178 142.126 194.526 140.586 194.526 138.15C194.526 135.728 196.234 134.202 198.404 134.202C200.588 134.202 202.282 135.728 202.282 138.15ZM195.828 138.15C195.828 140.096 197.018 141.006 198.348 141.006C199.678 141.006 200.98 140.096 200.98 138.15C200.98 136.218 199.706 135.308 198.39 135.308C197.046 135.308 195.828 136.218 195.828 138.15ZM196.794 132.704L199.776 130.954V132.06L196.794 133.656V132.704ZM209.571 142V137.66C209.571 136.092 208.717 135.294 207.429 135.294C206.127 135.294 205.231 136.106 205.231 137.758V142H203.957V134.328H205.231V135.42C205.735 134.622 206.659 134.188 207.695 134.188C209.473 134.188 210.831 135.28 210.831 137.478V142H209.571ZM211.806 144.002L212.828 140.236H214.228L212.66 144.002H211.806ZM23.078 163V155.328H24.352V163H23.078ZM23.736 154.082C23.246 154.082 22.868 153.704 22.868 153.214C22.868 152.724 23.246 152.346 23.736 152.346C24.198 152.346 24.576 152.724 24.576 153.214C24.576 153.704 24.198 154.082 23.736 154.082ZM26.5233 163V152.64H27.7973V163H26.5233ZM36.7726 155.328V163H35.4986V161.866C35.0086 162.664 34.0706 163.112 33.0486 163.112C31.2846 163.112 29.8986 162.02 29.8986 159.822V155.328H31.1586V159.654C31.1586 161.208 32.0126 162.006 33.3006 162.006C34.6166 162.006 35.4986 161.194 35.4986 159.542V155.328H36.7726ZM44.4397 160.914C44.4397 162.174 43.3337 163.126 41.6397 163.126C39.8477 163.126 38.5877 162.146 38.5037 160.746H39.8197C39.8897 161.488 40.5477 162.048 41.6257 162.048C42.6337 162.048 43.1937 161.544 43.1937 160.914C43.1937 159.206 38.6577 160.2 38.6577 157.344C38.6577 156.168 39.7637 155.202 41.4717 155.202C43.1657 155.202 44.2857 156.112 44.3697 157.61H43.0957C43.0397 156.84 42.4517 156.28 41.4297 156.28C40.4917 156.28 39.9317 156.728 39.9317 157.344C39.9317 159.164 44.3837 158.17 44.4397 160.914ZM46.5182 160.9V156.378H45.5242V155.328H46.5182V153.396H47.7922V155.328H49.7942V156.378H47.7922V160.9C47.7922 161.656 48.0722 161.922 48.8562 161.922H49.7942V163H48.6462C47.2882 163 46.5182 162.44 46.5182 160.9ZM52.6118 158.828V163H51.3378V155.328H52.6118V156.574C53.0458 155.72 53.8718 155.188 55.0898 155.188V156.504H54.7538C53.5358 156.504 52.6118 157.05 52.6118 158.828ZM56.0844 159.136C56.0844 156.742 57.6664 155.202 59.7244 155.202C61.1524 155.202 62.1324 155.93 62.5804 156.728V155.328H63.8684V163H62.5804V161.572C62.1184 162.398 61.1244 163.126 59.7104 163.126C57.6664 163.126 56.0844 161.516 56.0844 159.136ZM62.5804 159.15C62.5804 157.372 61.3764 156.308 59.9764 156.308C58.5764 156.308 57.3864 157.33 57.3864 159.136C57.3864 160.942 58.5764 162.006 59.9764 162.006C61.3764 162.006 62.5804 160.956 62.5804 159.15ZM65.5454 159.15C65.5454 156.742 67.0994 155.202 69.2834 155.202C71.1874 155.202 72.4334 156.182 72.8254 157.792H71.4534C71.1874 156.868 70.4174 156.28 69.2834 156.28C67.8834 156.28 66.8474 157.274 66.8474 159.15C66.8474 161.054 67.8834 162.048 69.2834 162.048C70.4174 162.048 71.1734 161.502 71.4534 160.536H72.8254C72.4334 162.062 71.1874 163.126 69.2834 163.126C67.0994 163.126 65.5454 161.586 65.5454 159.15ZM74.5253 163V155.328H75.7993V163H74.5253ZM75.1833 154.082C74.6933 154.082 74.3153 153.704 74.3153 153.214C74.3153 152.724 74.6933 152.346 75.1833 152.346C75.6453 152.346 76.0233 152.724 76.0233 153.214C76.0233 153.704 75.6453 154.082 75.1833 154.082ZM85.2506 159.15C85.2506 161.586 83.5006 163.126 81.3166 163.126C79.1466 163.126 77.4946 161.586 77.4946 159.15C77.4946 156.728 79.2026 155.202 81.3726 155.202C83.5566 155.202 85.2506 156.728 85.2506 159.15ZM78.7966 159.15C78.7966 161.096 79.9866 162.006 81.3166 162.006C82.6466 162.006 83.9486 161.096 83.9486 159.15C83.9486 157.218 82.6746 156.308 81.3586 156.308C80.0146 156.308 78.7966 157.218 78.7966 159.15ZM92.5397 163V158.66C92.5397 157.092 91.6857 156.294 90.3977 156.294C89.0957 156.294 88.1997 157.106 88.1997 158.758V163H86.9257V155.328H88.1997V156.42C88.7037 155.622 89.6277 155.188 90.6637 155.188C92.4417 155.188 93.7997 156.28 93.7997 158.478V163H92.5397ZM99.1427 156.28C97.8967 156.28 96.8607 157.106 96.7207 158.604H101.565C101.579 157.106 100.459 156.28 99.1427 156.28ZM102.727 160.634C102.335 162.034 101.103 163.126 99.1987 163.126C97.0147 163.126 95.4047 161.586 95.4047 159.15C95.4047 156.728 96.9587 155.202 99.1987 155.202C101.425 155.202 102.881 156.77 102.881 158.87C102.881 159.15 102.867 159.374 102.839 159.64H96.7067C96.8047 161.194 97.8967 162.048 99.1987 162.048C100.347 162.048 101.075 161.46 101.355 160.634H102.727ZM110.078 160.914C110.078 162.174 108.972 163.126 107.278 163.126C105.486 163.126 104.226 162.146 104.142 160.746H105.458C105.528 161.488 106.186 162.048 107.264 162.048C108.272 162.048 108.832 161.544 108.832 160.914C108.832 159.206 104.296 160.2 104.296 157.344C104.296 156.168 105.402 155.202 107.11 155.202C108.804 155.202 109.924 156.112 110.008 157.61H108.734C108.678 156.84 108.09 156.28 107.068 156.28C106.13 156.28 105.57 156.728 105.57 157.344C105.57 159.164 110.022 158.17 110.078 160.914ZM110.771 165.002L111.793 161.236H113.193L111.625 165.002H110.771ZM118.623 163V156.378H117.629V155.328H118.623V154.782C118.623 153.074 119.463 152.304 121.423 152.304V153.368C120.275 153.368 119.897 153.788 119.897 154.782V155.328H121.507V156.378H119.897V163H118.623ZM122.516 159.136C122.516 156.742 124.098 155.202 126.156 155.202C127.584 155.202 128.564 155.93 129.012 156.728V155.328H130.3V163H129.012V161.572C128.55 162.398 127.556 163.126 126.142 163.126C124.098 163.126 122.516 161.516 122.516 159.136ZM129.012 159.15C129.012 157.372 127.808 156.308 126.408 156.308C125.008 156.308 123.818 157.33 123.818 159.136C123.818 160.942 125.008 162.006 126.408 162.006C127.808 162.006 129.012 160.956 129.012 159.15ZM138.067 163V158.66C138.067 157.092 137.213 156.294 135.925 156.294C134.623 156.294 133.727 157.106 133.727 158.758V163H132.453V155.328H133.727V156.42C134.231 155.622 135.155 155.188 136.191 155.188C137.969 155.188 139.327 156.28 139.327 158.478V163H138.067ZM146.098 155.328V156.364L142.36 161.95H146.126V163H140.904V161.95L144.628 156.364H140.932V155.328H146.098ZM147.779 163V155.328H149.053V163H147.779ZM148.437 154.082C147.947 154.082 147.569 153.704 147.569 153.214C147.569 152.724 147.947 152.346 148.437 152.346C148.899 152.346 149.277 152.724 149.277 153.214C149.277 153.704 148.899 154.082 148.437 154.082ZM156.838 163V158.66C156.838 157.092 155.984 156.294 154.696 156.294C153.394 156.294 152.498 157.106 152.498 158.758V163H151.224V155.328H152.498V156.42C153.002 155.622 153.926 155.188 154.962 155.188C156.74 155.188 158.098 156.28 158.098 158.478V163H156.838ZM163.442 156.28C162.196 156.28 161.16 157.106 161.02 158.604H165.864C165.878 157.106 164.758 156.28 163.442 156.28ZM167.026 160.634C166.634 162.034 165.402 163.126 163.498 163.126C161.314 163.126 159.704 161.586 159.704 159.15C159.704 156.728 161.258 155.202 163.498 155.202C165.724 155.202 167.18 156.77 167.18 158.87C167.18 159.15 167.166 159.374 167.138 159.64H161.006C161.104 161.194 162.196 162.048 163.498 162.048C164.646 162.048 165.374 161.46 165.654 160.634H167.026ZM174.377 160.914C174.377 162.174 173.271 163.126 171.577 163.126C169.785 163.126 168.525 162.146 168.441 160.746H169.757C169.827 161.488 170.485 162.048 171.563 162.048C172.571 162.048 173.131 161.544 173.131 160.914C173.131 159.206 168.595 160.2 168.595 157.344C168.595 156.168 169.701 155.202 171.409 155.202C173.103 155.202 174.223 156.112 174.307 157.61H173.033C172.977 156.84 172.389 156.28 171.367 156.28C170.429 156.28 169.869 156.728 169.869 157.344C169.869 159.164 174.321 158.17 174.377 160.914ZM182.82 161.544L185.2 155.328H186.516L181.896 166.612H180.58L182.092 162.916L178.998 155.328H180.412L182.82 161.544ZM191.809 160.9V156.378H190.815V155.328H191.809V153.396H193.083V155.328H195.085V156.378H193.083V160.9C193.083 161.656 193.363 161.922 194.147 161.922H195.085V163H193.937C192.579 163 191.809 162.44 191.809 160.9ZM197.903 158.828V163H196.629V155.328H197.903V156.574C198.337 155.72 199.163 155.188 200.381 155.188V156.504H200.045C198.827 156.504 197.903 157.05 197.903 158.828ZM201.375 159.136C201.375 156.742 202.957 155.202 205.015 155.202C206.443 155.202 207.423 155.93 207.871 156.728V155.328H209.159V163H207.871V161.572C207.409 162.398 206.415 163.126 205.001 163.126C202.957 163.126 201.375 161.516 201.375 159.136ZM207.871 159.15C207.871 157.372 206.667 156.308 205.267 156.308C203.867 156.308 202.677 157.33 202.677 159.136C202.677 160.942 203.867 162.006 205.267 162.006C206.667 162.006 207.871 160.956 207.871 159.15ZM212.586 156.756C213.076 155.902 214.098 155.202 215.456 155.202C217.528 155.202 219.096 156.742 219.096 159.136C219.096 161.516 217.514 163.126 215.456 163.126C214.056 163.126 213.062 162.426 212.586 161.586V163H211.312V152.64H212.586V156.756ZM217.794 159.136C217.794 157.33 216.604 156.308 215.19 156.308C213.804 156.308 212.586 157.372 212.586 159.15C212.586 160.956 213.804 162.006 215.19 162.006C216.604 162.006 217.794 160.942 217.794 159.136ZM220.297 159.136C220.297 156.742 221.879 155.202 223.937 155.202C225.365 155.202 226.345 155.93 226.793 156.728V155.328H228.081V163H226.793V161.572C226.331 162.398 225.337 163.126 223.923 163.126C221.879 163.126 220.297 161.516 220.297 159.136ZM226.793 159.15C226.793 157.372 225.589 156.308 224.189 156.308C222.789 156.308 221.599 157.33 221.599 159.136C221.599 160.942 222.789 162.006 224.189 162.006C225.589 162.006 226.793 160.956 226.793 159.15ZM230.92 154.082C230.444 154.082 230.066 153.704 230.066 153.214C230.066 152.724 230.444 152.346 230.92 152.346C231.396 152.346 231.774 152.724 231.774 153.214C231.774 153.704 231.396 154.082 230.92 154.082ZM230.276 155.328H231.55V164.666C231.55 166.052 230.822 166.64 229.52 166.64H228.778V165.562H229.31C230.01 165.562 230.276 165.31 230.276 164.638V155.328ZM240.987 159.15C240.987 161.586 239.237 163.126 237.053 163.126C234.883 163.126 233.231 161.586 233.231 159.15C233.231 156.728 234.939 155.202 237.109 155.202C239.293 155.202 240.987 156.728 240.987 159.15ZM234.533 159.15C234.533 161.096 235.723 162.006 237.053 162.006C238.383 162.006 239.685 161.096 239.685 159.15C239.685 157.218 238.411 156.308 237.095 156.308C235.751 156.308 234.533 157.218 234.533 159.15ZM248.178 160.914C248.178 162.174 247.072 163.126 245.378 163.126C243.586 163.126 242.326 162.146 242.242 160.746H243.558C243.628 161.488 244.286 162.048 245.364 162.048C246.372 162.048 246.932 161.544 246.932 160.914C246.932 159.206 242.396 160.2 242.396 157.344C242.396 156.168 243.502 155.202 245.21 155.202C246.904 155.202 248.024 156.112 248.108 157.61H246.834C246.778 156.84 246.19 156.28 245.168 156.28C244.23 156.28 243.67 156.728 243.67 157.344C243.67 159.164 248.122 158.17 248.178 160.914ZM24.352 177.742C24.814 176.93 25.822 176.202 27.222 176.202C29.28 176.202 30.862 177.742 30.862 180.136C30.862 182.516 29.28 184.126 27.222 184.126C25.822 184.126 24.828 183.37 24.352 182.586V187.64H23.078V176.328H24.352V177.742ZM29.56 180.136C29.56 178.33 28.37 177.308 26.956 177.308C25.57 177.308 24.352 178.372 24.352 180.15C24.352 181.956 25.57 183.006 26.956 183.006C28.37 183.006 29.56 181.942 29.56 180.136ZM35.8009 177.28C34.5549 177.28 33.5189 178.106 33.3789 179.604H38.2229C38.2369 178.106 37.1169 177.28 35.8009 177.28ZM39.3849 181.634C38.9929 183.034 37.7609 184.126 35.8569 184.126C33.6729 184.126 32.0629 182.586 32.0629 180.15C32.0629 177.728 33.6169 176.202 35.8569 176.202C38.0829 176.202 39.5389 177.77 39.5389 179.87C39.5389 180.15 39.5249 180.374 39.4969 180.64H33.3649C33.4629 182.194 34.5549 183.048 35.8569 183.048C37.0049 183.048 37.7329 182.46 38.0129 181.634H39.3849ZM42.4946 179.828V184H41.2206V176.328H42.4946V177.574C42.9286 176.72 43.7546 176.188 44.9726 176.188V177.504H44.6366C43.4186 177.504 42.4946 178.05 42.4946 179.828ZM51.9592 181.914C51.9592 183.174 50.8532 184.126 49.1592 184.126C47.3672 184.126 46.1072 183.146 46.0232 181.746H47.3392C47.4092 182.488 48.0672 183.048 49.1452 183.048C50.1532 183.048 50.7132 182.544 50.7132 181.914C50.7132 180.206 46.1772 181.2 46.1772 178.344C46.1772 177.168 47.2832 176.202 48.9912 176.202C50.6852 176.202 51.8052 177.112 51.8892 178.61H50.6152C50.5592 177.84 49.9712 177.28 48.9492 177.28C48.0112 177.28 47.4512 177.728 47.4512 178.344C47.4512 180.164 51.9032 179.17 51.9592 181.914ZM61.0377 180.15C61.0377 182.586 59.2877 184.126 57.1037 184.126C54.9337 184.126 53.2817 182.586 53.2817 180.15C53.2817 177.728 54.9897 176.202 57.1597 176.202C59.3437 176.202 61.0377 177.728 61.0377 180.15ZM54.5837 180.15C54.5837 182.096 55.7737 183.006 57.1037 183.006C58.4337 183.006 59.7357 182.096 59.7357 180.15C59.7357 178.218 58.4617 177.308 57.1457 177.308C55.8017 177.308 54.5837 178.218 54.5837 180.15ZM68.3268 184V179.66C68.3268 178.092 67.4728 177.294 66.1848 177.294C64.8828 177.294 63.9868 178.106 63.9868 179.758V184H62.7128V176.328H63.9868V177.42C64.4908 176.622 65.4148 176.188 66.4508 176.188C68.2288 176.188 69.5868 177.28 69.5868 179.478V184H68.3268ZM71.1918 180.136C71.1918 177.742 72.7738 176.202 74.8318 176.202C76.2598 176.202 77.2398 176.93 77.6878 177.728V176.328H78.9758V184H77.6878V182.572C77.2258 183.398 76.2318 184.126 74.8178 184.126C72.7738 184.126 71.1918 182.516 71.1918 180.136ZM77.6878 180.15C77.6878 178.372 76.4838 177.308 75.0838 177.308C73.6838 177.308 72.4938 178.33 72.4938 180.136C72.4938 181.942 73.6838 183.006 75.0838 183.006C76.4838 183.006 77.6878 181.956 77.6878 180.15ZM81.1288 184V173.64H82.4028V184H81.1288ZM87.8361 177.28C86.5901 177.28 85.5541 178.106 85.4141 179.604H90.2581C90.2721 178.106 89.1521 177.28 87.8361 177.28ZM91.4201 181.634C91.0281 183.034 89.7961 184.126 87.8921 184.126C85.7081 184.126 84.0981 182.586 84.0981 180.15C84.0981 177.728 85.6521 176.202 87.8921 176.202C90.1181 176.202 91.5741 177.77 91.5741 179.87C91.5741 180.15 91.5601 180.374 91.5321 180.64H85.4001C85.4981 182.194 86.5901 183.048 87.8921 183.048C89.0401 183.048 89.7681 182.46 90.0481 181.634H91.4201ZM98.7717 181.914C98.7717 183.174 97.6657 184.126 95.9717 184.126C94.1797 184.126 92.9197 183.146 92.8357 181.746H94.1517C94.2217 182.488 94.8797 183.048 95.9577 183.048C96.9657 183.048 97.5257 182.544 97.5257 181.914C97.5257 180.206 92.9897 181.2 92.9897 178.344C92.9897 177.168 94.0957 176.202 95.8037 176.202C97.4977 176.202 98.6177 177.112 98.7017 178.61H97.4277C97.3717 177.84 96.7837 177.28 95.7617 177.28C94.8237 177.28 94.2637 177.728 94.2637 178.344C94.2637 180.164 98.7157 179.17 98.7717 181.914ZM101.816 183.216C101.816 183.706 101.438 184.084 100.976 184.084C100.486 184.084 100.108 183.706 100.108 183.216C100.108 182.726 100.486 182.348 100.976 182.348C101.438 182.348 101.816 182.726 101.816 183.216Z" fill="#CDD0D8"/>
<path d="M183.185 222L182 223.185L190.123 231.308H182.846V233H193V222.846H191.308V230.123L183.185 222Z" fill="white" fill-opacity="0.2"/>
<path d="M206.152 230.04L209.016 221.8H211.224L207.336 233H204.984L201.096 221.8H203.304L206.152 230.04ZM214.381 228.296V231.016H219.085V233H212.301V221.8H219.005V223.784H214.381V226.328H218.605V228.296H214.381ZM227.106 233L224.914 229.128H222.834V233H220.754V221.8H225.282C225.944 221.8 226.557 221.965 227.122 222.296C227.688 222.616 228.13 223.059 228.45 223.624C228.781 224.189 228.946 224.803 228.946 225.464C228.946 226.147 228.776 226.771 228.434 227.336C228.093 227.901 227.634 228.344 227.058 228.664L229.506 233H227.106ZM222.834 223.784V227.128H225.282C225.741 227.128 226.136 226.968 226.466 226.648C226.797 226.317 226.962 225.923 226.962 225.464C226.962 224.995 226.797 224.6 226.466 224.28C226.146 223.949 225.752 223.784 225.282 223.784H222.834ZM244.087 221.832V221.8H246.183V233H244.087V225.624L240.999 230.808H240.471L237.367 225.608V233H235.287V221.8H237.367V221.832L237.415 221.8L240.727 227.384L244.039 221.8L244.087 221.832ZM257.751 233H255.527L254.695 230.744H250.263L249.431 233H247.191L251.351 221.8H253.591L257.751 233ZM252.487 224.792L250.999 228.76H253.959L252.487 224.792ZM251.831 219.672L253.991 217.368H256.102L253.863 219.672H251.831ZM262.855 233.208C261.649 233.208 260.636 232.963 259.815 232.472C258.993 231.981 258.417 231.32 258.087 230.488L260.103 229.448C260.572 230.589 261.505 231.16 262.903 231.16C263.329 231.16 263.703 231.091 264.023 230.952C264.353 230.813 264.604 230.643 264.775 230.44C264.945 230.227 265.031 230.008 265.031 229.784C265.031 229.517 264.935 229.299 264.743 229.128C264.551 228.947 264.273 228.792 263.911 228.664C263.559 228.536 263.025 228.376 262.311 228.184C261.553 227.971 260.913 227.741 260.391 227.496C259.868 227.24 259.436 226.899 259.095 226.472C258.764 226.045 258.599 225.507 258.599 224.856C258.599 224.195 258.78 223.619 259.143 223.128C259.505 222.627 259.991 222.248 260.599 221.992C261.207 221.725 261.868 221.592 262.583 221.592C263.564 221.592 264.423 221.811 265.159 222.248C265.905 222.675 266.476 223.277 266.871 224.056L264.823 225.08C264.375 224.131 263.628 223.656 262.583 223.656C262.049 223.656 261.612 223.779 261.271 224.024C260.94 224.269 260.775 224.557 260.775 224.888C260.775 225.165 260.855 225.384 261.015 225.544C261.175 225.693 261.393 225.821 261.671 225.928C261.959 226.024 262.481 226.179 263.239 226.392C264.071 226.627 264.759 226.872 265.303 227.128C265.847 227.373 266.3 227.72 266.663 228.168C267.036 228.605 267.223 229.165 267.223 229.848C267.223 230.52 267.031 231.112 266.647 231.624C266.273 232.125 265.751 232.515 265.079 232.792C264.417 233.069 263.676 233.208 262.855 233.208Z" fill="white" fill-opacity="0.2"/>
</svg>
