<svg width="227" height="257" viewBox="0 0 227 257" fill="none" xmlns="http://www.w3.org/2000/svg">
<g clip-path="url(#clip0_268_38)">
<path d="M226.939 117.663C228.683 153.722 191.867 181.006 161.601 191.454C155.204 193.667 148.725 195.707 142.726 198.855C132.309 204.298 123.657 211.74 117.576 221.867C113.371 228.772 111.498 236.839 112.23 244.884C112.522 248.097 113.257 251.255 114.413 254.269C114.505 254.518 114.658 254.752 114.735 255.006C114.944 255.662 114.923 256.324 114.311 256.751C114.041 256.937 113.713 257.02 113.387 256.985C113.061 256.949 112.759 256.798 112.536 256.558C112.291 256.349 112.061 256.12 111.837 255.891C93.3939 237.291 74.944 218.693 56.4873 200.096C46.8968 190.439 37.3011 180.786 27.7004 171.138C20.0075 163.397 12.3555 155.604 4.59125 147.928C3.16157 146.479 2.14094 144.678 1.63247 142.71C-1.50487 131.982 -0.00506719 121.804 5.1524 112.012C7.70308 107.144 11.1771 102.999 15.0643 99.1683C23.4407 90.928 33.4955 85.5413 44.5757 81.8739C49.677 80.1801 54.7324 78.3692 59.7828 76.5279C86.723 66.7006 114.719 37.6409 114.78 7.45199C114.78 5.62082 114.709 3.80491 113.821 2.12125C113.641 1.84652 113.562 1.51791 113.597 1.19142C113.632 0.864925 113.78 0.560759 114.015 0.330766C114.525 -0.147374 115.036 -0.0151226 115.643 0.173081C116.557 0.477601 117.373 1.01817 118.01 1.73975C130.705 14.5444 143.402 27.3406 156.101 40.1283C167.92 52.041 179.739 63.9572 191.561 75.8768C199.21 83.5847 206.877 91.2807 214.563 98.9648C217.976 102.398 221.353 105.862 224.766 109.296C225.911 110.452 226.603 111.978 226.719 113.599C226.872 115.145 226.893 116.702 226.939 117.663ZM143.608 161.647L143.21 161.606C143.193 160.953 143.232 160.299 143.328 159.653C144.205 155.965 145.878 152.7 148.771 150.166C150.708 148.369 152.904 146.87 155.285 145.721C158.412 144.302 161.555 142.908 164.692 141.509C166.998 140.492 169.319 139.5 170.982 137.44C172.966 134.988 173.262 132.465 171.048 129.917C168.436 126.921 167.171 123.38 167.875 119.326C167.979 118.799 168.052 118.265 168.095 117.729C168.299 113.823 167.738 110.288 164.172 107.765C161.958 106.193 161.57 104.204 162.483 101.6C163.229 99.6363 164.286 97.8054 165.615 96.1774C166.372 95.1975 167.077 94.1788 167.727 93.1254C168.399 92.0092 168.715 90.7164 168.635 89.4173C168.625 88.8787 168.497 88.3488 168.26 87.8647C168.022 87.3807 167.682 86.9541 167.262 86.615C166.842 86.2758 166.353 86.0322 165.829 85.9013C165.305 85.7703 164.758 85.7551 164.228 85.8567C162.75 86.1229 161.313 86.5795 159.953 87.2148C157.407 88.5029 154.93 89.9206 152.53 91.4621C150.739 92.6588 148.688 93.4153 146.547 93.6697C145.077 93.8325 143.521 93.8172 142.369 92.8559C141.071 91.7766 140.159 90.3082 139.767 88.6696C139.016 85.5668 139.276 82.3059 140.512 79.3611C141.659 76.6972 143.079 74.159 144.751 71.7872C145.554 70.5847 146.216 69.2945 146.725 67.9417C147.128 66.843 146.644 66.3496 145.455 66.3293C144.593 66.3293 143.731 66.4158 142.869 66.3903C141.272 66.3395 140.507 65.4798 140.706 63.903C140.835 63.2768 141.032 62.6663 141.292 62.082C142.42 58.9537 143.7 55.8763 144.634 52.6921C145.191 50.7316 145.465 48.7021 145.45 46.6645C145.492 45.4669 145.171 44.2844 144.528 43.2717C143.886 42.259 142.952 41.463 141.848 40.9879C139.481 39.9197 137.15 40.4284 135.216 42.1273C134.2 43.0836 133.304 44.1597 132.548 45.3318C130.913 47.8669 129.613 50.6025 128.682 53.4704C127.61 56.5223 126.687 59.5997 125.478 62.5754C124.019 66.1716 121.882 69.31 118.336 71.2582C116.059 72.5935 113.563 73.5198 110.965 73.9948C107.991 74.4577 104.981 74.6815 101.991 75.0426C99.4407 75.3478 96.839 75.5513 94.3393 76.0599C85.3303 78.0234 78.1221 82.7284 72.878 90.3736C66.1034 100.308 63.0681 111.396 62.7467 123.299C62.711 124.759 62.8691 126.076 61.5683 127.323C60.0838 128.757 59.0176 130.629 57.8035 132.333C57.179 133.132 56.6244 133.983 56.1455 134.876C55.6432 135.848 55.5413 136.976 55.8615 138.021C56.1817 139.067 56.8987 139.946 57.8596 140.471C58.5877 140.93 59.3878 141.264 60.2266 141.458C62.6957 141.967 65.18 142.435 67.6797 142.765C71.4139 143.274 75.1378 143.783 78.7649 144.8C80.588 145.298 82.293 146.154 83.7795 147.318C85.1663 148.396 86.3003 149.763 87.1021 151.323C87.9039 152.884 88.3543 154.6 88.4218 156.352C88.4626 157.049 88.5034 157.878 87.7637 158.198C86.9475 158.529 86.7434 157.618 86.3761 157.14C83.9173 153.773 80.5657 151.575 76.7958 150.019C75.8748 149.624 74.8787 149.433 73.8763 149.459C72.8739 149.485 71.8893 149.728 70.9905 150.172C69.4907 150.879 69.3733 151.397 70.2661 152.761C70.7058 153.368 71.0499 154.039 71.2863 154.749C72.0566 157.486 72.7555 160.243 73.4697 162.995C74.8063 168.198 76.1683 173.397 78.3823 178.305C79.2138 180.147 80.1576 182.07 81.5145 183.524C84.4784 186.698 86.9934 186.261 88.9013 182.4C89.59 181.012 90.0389 179.506 90.6205 178.061C91.28 176.191 92.043 174.359 92.9059 172.573C94.9158 168.839 99.6345 168.783 101.772 172.441C102.445 173.661 102.999 174.944 103.425 176.271C104.415 179.109 105.205 182.019 106.307 184.806C107.167 186.828 108.169 188.786 109.307 190.666C109.974 191.787 110.987 192.663 112.194 193.163C113.255 193.631 114.306 193.672 115.194 192.833C116.223 191.899 117.181 190.891 118.061 189.816C118.891 188.627 119.649 187.389 120.331 186.108C122.371 182.634 124.351 179.124 126.452 175.686C127.147 174.534 127.991 173.479 128.962 172.547C130.59 171.021 132.533 170.381 134.757 171.225C135.445 171.487 136.066 171.896 136.577 172.423C137.088 172.95 137.477 173.583 137.716 174.277C138.354 175.981 138.782 177.761 139.359 179.491C139.759 180.766 140.245 182.014 140.813 183.224C141.532 184.674 142.144 184.786 143.506 183.891C145.102 182.871 146.449 181.508 147.45 179.903C148.47 178.209 149.49 176.495 150.413 174.73C153.52 168.687 155.642 162.267 157.525 155.762C157.718 155.096 157.856 154.415 157.938 153.727C158.173 151.85 157.03 150.828 155.234 151.362C152.099 152.234 149.323 154.08 147.312 156.632C146.006 158.239 144.827 159.963 143.608 161.647ZM165.513 71.248C165.702 66.9397 164.269 64.9254 161.902 63.491C161.27 63.0736 160.535 62.8368 159.778 62.8063C159.021 62.7758 158.27 62.9528 157.606 63.318C156.556 63.8205 155.644 64.5702 154.949 65.5024C154.254 66.4347 153.797 67.5215 153.617 68.6691C153.286 70.6298 152.461 72.4746 151.219 74.0304C150.345 75.2084 149.872 76.6342 149.868 78.0996C149.791 79.5442 150.26 80.6429 151.704 81.3551C153.148 82.0672 154.525 82.4538 156.045 81.9044C157.105 81.5438 158.13 81.0875 159.106 80.5412C160.816 79.5839 162.282 78.2483 163.393 76.6373C164.504 75.0262 165.229 73.1825 165.513 71.248Z" fill="#0A0909"/>
<path d="M137.191 139.591C134.248 139.688 131.319 139.148 128.605 138.009C127.211 137.422 125.962 136.539 124.946 135.42C123.93 134.302 123.172 132.975 122.723 131.534C121.938 129.22 122.591 127.333 124.641 126.01C128.722 123.38 132.028 119.957 135.191 116.346C137.823 113.35 140.665 110.583 144.373 108.884C147.245 107.571 150.469 107.235 153.551 107.927C156.428 108.517 158.321 110.298 159.448 112.917C160.82 116.127 160.647 119.423 159.8 122.714C157.698 130.898 152.413 136.097 144.455 138.666C142.105 139.39 139.648 139.703 137.191 139.591Z" fill="#0A0909"/>
<path d="M92.7375 138.62C84.9835 138.752 78.6986 135.924 73.9696 130.008C72.2522 127.926 70.9765 125.518 70.2198 122.93C69.463 120.342 69.241 117.628 69.5672 114.952C69.7478 113.571 70.1819 112.234 70.8476 111.01C72.3219 108.217 74.8267 106.94 77.9385 106.661C79.8725 106.462 81.8268 106.652 83.686 107.219C85.5452 107.786 87.2717 108.719 88.7636 109.962C91.2329 112.033 93.5513 114.277 95.7014 116.676C97.9664 119.196 100.43 121.531 103.068 123.66C103.682 124.093 104.322 124.487 104.986 124.84C107.149 126.158 107.832 128.075 107.057 130.496C105.894 134.103 103.41 136.371 99.8794 137.557C97.5826 138.338 95.163 138.698 92.7375 138.62Z" fill="#0A0909"/>
<path d="M114.617 137.068C115.269 137.816 115.868 138.608 116.408 139.439C117.525 141.514 118.52 143.655 119.611 145.746C120.377 147.336 121.246 148.873 122.213 150.349C123.859 152.679 125.021 155.313 125.631 158.096C125.879 159.305 125.914 160.548 125.733 161.769C125.528 162.886 124.977 163.911 124.158 164.701C123.34 165.491 122.294 166.006 121.167 166.174C120.63 166.244 120.085 166.17 119.585 165.961C119.086 165.752 118.652 165.415 118.326 164.984C117.596 164.073 116.984 163.061 116.285 162.105C115.739 161.331 115.168 160.579 114.546 159.729C113.449 160.497 112.862 161.52 112.174 162.445C111.597 163.219 111.031 164.002 110.429 164.755C109.521 165.815 108.352 166.621 107.037 167.095C105.593 167.7 102.843 166.377 102.507 164.734C102.261 163.807 102.144 162.85 102.16 161.891C102.483 157.484 103.871 153.22 106.205 149.464C108.807 145.334 111.679 141.407 114.617 137.068Z" fill="#0A0909"/>
</g>
<defs>
<clipPath id="clip0_268_38">
<rect width="227" height="257" fill="white"/>
</clipPath>
</defs>
</svg>
